{
.appVersion = "3226";
.formatVersion = 3;
DisplayStrings = (
"/Ecircumflexgrave.ss01",
"∆",
T,
n,
o
);
classes = (
{
code = "zero one two three four five six seven eight nine";
name = Num;
},
{

glyphs = (
{
color = 3;
glyphname = A;
kernLeft = A;
kernRight = N;
lastChange = "2023-11-07 16:54:13 +0000";
layers = (
{
anchors = (
{
name = bottom;
pos = (392,0);
},
{
name = ogonek;
pos = (730,10);
},
{
name = top;
pos = (600,840);
}
);
background = {
shapes = (
{
closed = 1;
nodes = (
(812,142,o),
(778,114,o),
(734,114,cs),
(691,114,o),
(669,144,o),
(669,217,cs),
(669,305,o),
(708,496,o),
(738,610,cs),
(752,663,o),
(714,680,o),
(670,680,cs),
(635,680,o),
(606,669,o),
(598,628,cs),
(524,247,o),
(453,112,o),
(332,112,cs),
(262,112,o),
(211,173,o),
(211,290,cs),
(211,516,o),
(338,732,o),
(604,732,cs),
(661,732,o),
(707,724,o),
(771,709,cs),
(844,692,o),
(889,800,o),
(820,820,cs),
(759,838,o),
(693,848,o),
(626,848,cs),
(255,848,o),
(64,576,o),
(64,280,cs),
(64,100,o),
(170,-5,o),
(308,-5,cs),
(406,-5,o),
(478,49,o),
(526,150,c),
(541,53,o),
(598,-5,o),
(693,-5,cs),
(792,-5,o),
(849,49,o),
(904,116,cs),
(921,137,o),
(923,159,o),
(923,178,cs),
(923,205,o),
(913,223,o),
(895,223,cs),
(887,223,o),
(878,221,o),
(868,209,cs)
);
}
);
};
layerId = "ECEFE970-1BBB-4E0A-A452-CEB55884B4A3";
shapes = (
{
closed = 1;
nodes = (
(406,-5,o),
(478,49,o),
(526,150,c),
(541,53,o),
(598,-5,o),
(693,-5,cs),
(792,-5,o),
(849,49,o),
(904,116,cs),
(921,137,o),
(923,159,o),
(923,178,cs),
(923,205,o),
(913,223,o),
(895,223,cs),
(887,223,o),
(878,221,o),
(868,209,cs),
(812,142,o),
(778,114,o),
(734,114,cs),
(691,114,o),
(669,144,o),
(669,217,cs),
(669,305,o),
(708,496,o),
(738,610,cs),
(752,663,o),
(714,676,o),
(670,676,cs),
(635,676,o),
(606,669,o),
(598,628,cs),
(524,247,o),
(453,112,o),
(332,112,cs),
(262,112,o),
(211,173,o),
(211,290,cs),
(211,516,o),
(338,732,o),
(604,732,cs),
(661,732,o),
(707,724,o),
(771,709,cs),
(813,699,o),
(848,744,o),
(848,780,cs),
(848,798,o),
(840,814,o),
(820,820,cs),
(760,839,o),
(683,848,o),
(626,848,cs),
(255,848,o),
(64,576,o),
(64,280,cs),
(64,100,o),
(170,-5,o),
(308,-5,cs)
);
}
);
width = 794;
}
);
metricLeft = O;
note = A;
unicode = 65;
},
{
color = 3;
glyphname = Aogonek;
kernLeft = A;
kernRight = N;
lastChange = "2023-11-07 16:54:13 +0000";
layers = (
{
anchors = (
{
name = _ogonek;
pos = (730,10);
},
{
name = bottom;
pos = (392,0);
},
{
name = ogonek;
pos = (730,10);
},
{
name = top;
pos = (600,840);
}
);
background = {
shapes = (
{
closed = 1;
nodes = (
(892,223,o),
(883,221,o),
(873,209,cs),
(817,142,o),
(781,105,o),
(754,105,cs),
(738,105,o),
(727,118,o),
(727,138,cs),
(727,214,o),
(765,352,o),
(765,398,cs),
(765,416,o),
(754,433,o),
(716,433,cs),
(702,433,o),
(688,432,o),
(672,429,c),
(666,455,o),
(662,468,o),
(630,468,cs),
(489,468,o),
(364,320,o),
(364,158,cs),
(364,61,o),
(416,-5,o),
(500,-5,cs),
(563,-5,o),
(605,37,o),
(631,79,c),
(637,62,o),
(647,44,o),
(662,27,c),
(613,-6,o),
(579,-60,o),
(579,-118,cs),
(579,-199,o),
(637,-250,o),
(729,-250,cs),
(750,-250,o),
(779,-246,o),
(796,-240,cs),
(833,-227,o),
(844,-206,o),
(843,-181,cs),
(842,-150,o),
(829,-140,o),
(790,-153,cs),
(772,-159,o),
(757,-160,o),
(743,-160,cs),
(712,-160,o),
(681,-142,o),
(681,-101,cs),
(681,-65,o),
(707,-35,o),
(768,0,cs),
(813,26,o),
(860,59,o),
(909,116,cs),
(926,136,o),
(928,159,o),
(928,178,cs),
(928,205,o),
(918,223,o),
(900,223,cs)
);
},
{
closed = 1;
nodes = (
(595,131,o),
(564,96,o),
(536,96,cs),
(507,96,o),
(489,115,o),
(489,157,cs),
(489,270,o),
(559,373,o),
(644,375,c),
(607,191,ls)
);
}
);
};
layerId = "ECEFE970-1BBB-4E0A-A452-CEB55884B4A3";
shapes = (
{
closed = 1;
nodes = (
(745,-254,o),
(774,-250,o),
(791,-244,cs),
(828,-231,o),
(839,-210,o),
(838,-181,cs),
(837,-150,o),
(824,-140,o),
(785,-153,cs),
(767,-159,o),
(752,-160,o),
(738,-160,cs),
(707,-160,o),
(676,-142,o),
(676,-101,cs),
(676,-65,o),
(702,-35,o),
(763,0,cs),
(808,26,o),
(855,59,o),
(904,116,cs),
(922,136,o),
(923,159,o),
(923,178,cs),
(923,205,o),
(913,223,o),
(895,223,cs),
(887,223,o),
(878,221,o),
(868,209,cs),
(812,142,o),
(778,114,o),
(734,114,cs),
(691,114,o),
(669,144,o),
(669,217,cs),
(669,305,o),
(708,496,o),
(738,610,cs),
(752,663,o),
(714,676,o),
(670,676,cs),
(635,676,o),
(606,669,o),
(598,628,cs),
(524,247,o),
(453,112,o),
(332,112,cs),
(262,112,o),
(211,173,o),
(211,290,cs),
(211,516,o),
(338,732,o),
(604,732,cs),
(661,732,o),
(707,724,o),
(771,709,cs),
(813,699,o),
(848,744,o),
(848,780,cs),
(848,798,o),
(840,814,o),
(820,820,cs),
(760,839,o),
(683,848,o),
(626,848,cs),
(255,848,o),
(64,576,o),
(64,280,cs),
(64,100,o),
(170,-5,o),
(308,-5,cs),
(406,-5,o),
(478,49,o),
(526,150,c),
(537,77,o),
(573,26,o),
(630,5,c),
(589,-29,o),
(570,-69,o),
(570,-118,cs),
(570,-199,o),
(632,-254,o),
(724,-254,cs)
);
}
);
width = 794;
}
);
metricLeft = A;
metricWidth = A;
unicode = 260;
},
{
color = 3;
glyphname = Aringacute;
kernLeft = A;
kernRight = N;
lastChange = "2016-08-03 22:51:12 +0000";
layers = (
{
layerId = "ECEFE970-1BBB-4E0A-A452-CEB55884B4A3";
shapes = (
{
closed = 1;
nodes = (
(684,912,o),
(752,966,o),
(752,1060,cs),
(752,1146,o),
(689,1192,o),
(623,1192,cs),
(550,1192,o),
(482,1138,o),
(482,1044,cs),
(482,958,o),
(545,912,o),
(611,912,cs)
);
},
{
closed = 1;
nodes = (
(593,1000,o),
(571,1018,o),
(571,1049,cs),
(571,1083,o),
(594,1104,o),
(619,1104,cs),
(641,1104,o),
(663,1086,o),
(663,1055,cs),
(663,1021,o),
(640,1000,o),
(615,1000,cs)
);
},
{
closed = 1;
nodes = (
(799,1127,o),
(806,1128,o),
(812,1131,cs),
(929,1183,ls),
(961,1197,o),
(974,1222,o),
(974,1243,cs),
(974,1272,o),
(949,1297,o),
(919,1297,cs),
(908,1297,o),
(894,1293,o),
(882,1282,cs),
(778,1188,ls),
(767,1178,o),
(762,1168,o),
(762,1158,cs),
(762,1141,o),
(775,1127,o),
(794,1127,cs)
);
},
{
ref = A;
}
);
width = 786;
}
);
unicode = 506;
},
{
color = 3;
glyphname = AE;
kernLeft = A;
kernRight = AE;
lastChange = "2023-11-07 16:54:13 +0000";
layers = (
{
anchors = (
{
name = bottom;
pos = (584,0);
},
{
name = top;
pos = (711,840);
}
);
background = {
shapes = (
{
closed = 1;
nodes = (
(1638,-5,o),
(1733,64,o),
(1787,237,c),
(1883,626,l),
(1763,431,l),
(1715,257,o),
(1658,112,o),
(1537,112,cs),
(1467,112,o),
(1416,174,o),
(1416,290,cs),
(1416,514,o),
(1536,704,o),
(1772,730,cs),
(1799,733,o),
(1810,754,o),
(1810,780,cs),
(1810,821,o),
(1791,850,o),
(1724,842,cs),
(1460,810,o),
(1269,576,o),
(1269,280,cs),
(1269,100,o),
(1375,-5,o),
(1525,-5,cs)
);
},
{
closed = 1;
nodes = (
(2143,-5,o),
(2253,27,o),
(2312,69,c),
(2304,182,l),
(2217,139,o),
(2147,115,o),
(2075,115,cs),
(1906,115,o),
(1865,212,o),
(1899,361,c),
(2008,363,o),
(2062,366,o),
(2157,368,cs),
(2200,369,o),
(2223,401,o),
(2223,441,cs),
(2223,471,o),
(2212,490,o),
(2170,490,cs),
(2092,490,o),
(2012,486,o),
(1923,483,c),
(1939,556,o),
(1961,650,o),
(1981,710,c),
(2022,715,o),
(2129,720,o),
(2221,720,cs),
(2273,720,o),
(2293,759,o),
(2293,795,cs),
(2293,832,o),
(2278,849,o),
(2229,849,cs),
(2133,849,o),
(2063,844,o),
(1979,840,cs),
(1912,837,o),
(1864,801,o),
(1844,727,cs),
(1763,431,l),
(1754,264,l),
(1748,121,o),
(1830,-5,o),
(2052,-5,cs)
);
},
{
closed = 1;
nodes = (
(870,-5,o),
(1010,18,o),
(1090,56,cs),
(1139,79,o),
(1154,107,o),
(1154,145,cs),
(1154,177,o),
(1137,199,o),
(1097,182,cs),
(1016,148,o),
(880,115,o),
(763,115,cs),
(590,115,o),
(521,160,o),
(521,240,cs),
(521,309,o),
(586,382,o),
(762,386,cs),
(810,387,o),
(821,417,o),
(822,449,cs),
(823,480,o),
(813,492,o),
(782,493,cs),
(657,497,o),
(618,548,o),
(618,604,cs),
(618,685,o),
(692,737,o),
(805,737,cs),
(895,737,o),
(922,698,o),
(922,656,cs),
(922,621,o),
(912,603,o),
(912,574,cs),
(912,540,o),
(936,524,o),
(972,524,cs),
(1026,524,o),
(1055,579,o),
(1055,656,cs),
(1055,762,o),
(980,848,o),
(807,848,cs),
(624,848,o),
(470,753,o),
(470,605,cs),
(470,527,o),
(525,450,o),
(636,441,c),
(647,460,l),
(464,432,o),
(373,341,o),
(373,215,cs),
(373,92,o),
(492,-5,o),
(752,-5,cs)
);
}
);
};
guides = (
{
angle = 254.6088;
pos = (583,602);
}
);
layerId = "ECEFE970-1BBB-4E0A-A452-CEB55884B4A3";
shapes = (
{
closed = 1;
nodes = (
(433,-5,o),
(528,64,o),
(582,237,c),
(678,626,l),
(558,431,l),
(510,257,o),
(453,112,o),
(332,112,cs),
(262,112,o),
(211,174,o),
(211,290,cs),
(211,514,o),
(331,704,o),
(567,730,cs),
(594,733,o),
(605,754,o),
(605,780,cs),
(605,821,o),
(586,850,o),
(519,842,cs),
(255,810,o),
(64,576,o),
(64,280,cs),
(64,100,o),
(170,-5,o),
(320,-5,cs)
);
},
{
closed = 1;
nodes = (
(938,-5,o),
(1048,27,o),
(1107,69,cs),
(1140,93,o),
(1149,118,o),
(1149,146,cs),
(1149,176,o),
(1130,198,o),
(1099,182,cs),
(1012,139,o),
(942,115,o),
(870,115,cs),
(701,115,o),
(660,212,o),
(694,361,c),
(803,363,o),
(857,366,o),
(952,368,cs),
(995,369,o),
(1018,401,o),
(1018,441,cs),
(1018,471,o),
(1007,490,o),
(965,490,cs),
(887,490,o),
(807,486,o),
(718,483,c),
(734,556,o),
(756,650,o),
(776,710,c),
(817,715,o),
(924,720,o),
(1016,720,cs),
(1068,720,o),
(1088,759,o),
(1088,795,cs),
(1088,832,o),
(1073,849,o),
(1024,849,cs),
(928,849,o),
(858,844,o),
(774,840,cs),
(707,837,o),
(659,801,o),
(639,727,cs),
(558,431,l),
(549,264,l),
(543,121,o),
(625,-5,o),
(847,-5,cs)
);
}
);
width = 1023;
}
);
metricLeft = A;
note = AE;
unicode = 198;
},
{
color = 3;
glyphname = B;
kernLeft = B;
kernRight = B;
lastChange = "2016-10-04 14:48:44 +0000";
layers = (
{
background = {
shapes = (
{
closed = 1;
nodes = (
(612,3,o),
(764,104,o),
(764,261,cs),
(764,338,o),
(707,402,o),
(587,414,c),
(586,395,l),
(775,423,o),
(873,516,o),
(873,640,cs),
(873,765,o),
(767,862,o),
(514,862,cs),
(357,862,o),
(198,825,o),
(93,764,cs),
(28,726,o),
(25,704,o),
(25,676,cs),
(25,642,o),
(49,611,o),
(123,655,cs),
(202,702,o),
(341,748,o),
(493,748,cs),
(657,748,o),
(725,696,o),
(725,623,cs),
(725,529,o),
(614,471,o),
(473,468,cs),
(428,467,o),
(418,438,o),
(417,406,cs),
(416,377,o),
(425,364,o),
(453,363,cs),
(581,359,o),
(616,307,o),
(616,256,cs),
(616,179,o),
(544,112,o),
(345,112,cs),
(301,112,o),
(253,117,o),
(228,119,c),
(226,9,l),
(244,7,o),
(282,3,o),
(341,3,cs)
);
},
{
closed = 1;
nodes = (
(224,-50,o),
(261,-33,o),
(261,8,cs),
(261,15,o),
(263,39,o),
(263,47,cs),
(270,227,o),
(319,472,o),
(356,582,cs),
(361,597,o),
(362,603,o),
(362,614,cs),
(362,641,o),
(335,650,o),
(301,650,cs),
(260,650,o),
(228,639,o),
(218,603,cs),
(165,411,o),
(129,199,o),
(117,13,cs),
(114,-26,o),
(127,-50,o),
(178,-50,cs)
);
}
);
};
layerId = "ECEFE970-1BBB-4E0A-A452-CEB55884B4A3";
shapes = (
{
closed = 1;
nodes = (
(607,3,o),
(759,104,o),
(759,261,cs),
(759,338,o),
(702,402,o),
(582,414,c),
(581,395,l),
(770,423,o),
(868,516,o),
(868,640,cs),
(868,765,o),
(762,862,o),
(509,862,cs),
(352,862,o),
(193,825,o),
(81,760,cs),
(23,726,o),
(20,704,o),
(20,676,cs),
(20,642,o),
(44,611,o),
(111,651,cs),
(197,702,o),
(336,748,o),
(488,748,cs),
(652,748,o),
(720,696,o),
(720,623,cs),
(720,529,o),
(609,471,o),
(468,468,cs),
(423,467,o),
(413,438,o),
(412,406,cs),
(411,377,o),
(420,364,o),
(448,363,cs),
(576,359,o),
(611,307,o),
(611,256,cs),
(611,179,o),
(539,112,o),
(340,112,cs),
(296,112,o),
(248,117,o),
(223,119,c),
(221,9,l),
(239,7,o),
(277,3,o),
(336,3,cs)
);
},
{
closed = 1;
nodes = (
(219,-50,o),
(256,-33,o),
(256,8,cs),
(256,15,o),
(258,39,o),
(258,47,cs),
(265,227,o),
(314,472,o),
(351,582,cs),
(356,597,o),
(357,603,o),
(357,614,cs),
(357,641,o),
(330,648,o),
(296,648,cs),
(255,648,o),
(223,639,o),
(213,603,cs),
(160,411,o),
(124,199,o),
(112,13,cs),
(109,-26,o),
(122,-50,o),
(173,-50,cs)
);
}
);
width = 827;
}
);
note = B;
unicode = 66;
},
{
glyphname = Bhook;
lastChange = "2023-11-02 16:07:13 +0000";
layers = (
{
layerId = "ECEFE970-1BBB-4E0A-A452-CEB55884B4A3";
shapes = (
{
closed = 1;
nodes = (
(268,-50,o),
(305,-33,o),
(305,6,cs),
(305,15,o),
(307,39,o),
(308,66,cs),
(314,227,o),
(363,472,o),
(399,578,cs),
(405,597,o),
(406,603,o),
(406,609,cs),
(406,641,o),
(379,648,o),
(344,648,cs),
(304,648,o),
(272,639,o),
(238,517,cs),
(209,411,o),
(173,199,o),
(165,75,cs),
(158,-26,o),
(171,-50,o),
(224,-50,cs)
);
},
{
closed = 1;
nodes = (
(700,862,o),
(480,862,cs),
(254,862,o),
(25,785,o),
(25,610,cs),
(25,515,o),
(66,484,o),
(104,484,cs),
(145,484,o),
(182,520,o),
(160,554,cs),
(155,562,o),
(144,585,o),
(144,609,cs),
(144,704,o),
(319,748,o),
(487,748,cs),
(631,748,o),
(769,715,o),
(769,617,cs),
(769,529,o),
(658,471,o),
(550,469,cs),
(472,467,o),
(462,438,o),
(461,408,cs),
(460,377,o),
(469,364,o),
(521,362,cs),
(625,359,o),
(660,307,o),
(660,254,cs),
(660,179,o),
(588,112,o),
(397,112,cs),
(345,112,o),
(297,117,o),
(272,119,c),
(270,9,l),
(288,7,o),
(326,3,o),
(381,3,cs),
(656,3,o),
(808,104,o),
(808,249,cs),
(808,338,o),
(751,402,o),
(631,414,c),
(630,395,l),
(819,423,o),
(917,516,o),
(917,626,cs),
(917,789,o)
);
}
);
width = 876;
},
{
associatedMasterId = "ECEFE970-1BBB-4E0A-A452-CEB55884B4A3";
layerId = "FC683435-7035-4011-99B4-73FC1901B5A1";
name = "Nov 2, 23, 11:38";
shapes = (
{
closed = 1;
nodes = (
(607,3,o),
(759,104,o),
(759,261,cs),
(759,338,o),
(702,402,o),
(582,414,c),
(581,395,l),
(770,423,o),
(868,516,o),
(868,640,cs),
(868,765,o),
(762,862,o),
(509,862,cs),
(352,862,o),
(193,825,o),
(81,760,cs),
(23,726,o),
(20,704,o),
(20,676,cs),
(20,642,o),
(44,611,o),
(111,651,cs),
(197,702,o),
(336,748,o),
(488,748,cs),
(652,748,o),
(720,696,o),
(720,623,cs),
(720,529,o),
(609,471,o),
(468,468,cs),
(423,467,o),
(413,438,o),
(412,406,cs),
(411,377,o),
(420,364,o),
(448,363,cs),
(576,359,o),
(611,307,o),
(611,256,cs),
(611,179,o),
(539,112,o),
(340,112,cs),
(296,112,o),
(248,117,o),
(223,119,c),
(221,9,l),
(239,7,o),
(277,3,o),
(336,3,cs)
);
},
{
closed = 1;
nodes = (
(219,-50,o),
(256,-33,o),
(256,8,cs),
(256,15,o),
(258,39,o),
(258,47,cs),
(265,227,o),
(314,472,o),
(351,582,cs),
(356,597,o),
(357,603,o),
(357,614,cs),
(357,641,o),
(330,648,o),
(296,648,cs),
(255,648,o),
(223,639,o),
(213,603,cs),
(160,411,o),
(124,199,o),
(112,13,cs),
(109,-26,o),
(122,-50,o),
(173,-50,cs)
);
},
{
closed = 0;
nodes = (
(476,847,ls),
(161,847,o),
(-24,781,o),
(-24,611,cs),
(-24,556,o),
(-4,513,o),
(10,501,cs),
(58,460,o),
(143,504,o),
(115,548,cs),
(106,562,o),
(95,585,o),
(95,613,cs),
(95,698,o),
(183,728,o),
(476,728,cs)
);
}
);
width = 827;
},
{
associatedMasterId = "ECEFE970-1BBB-4E0A-A452-CEB55884B4A3";
layerId = "DBA3AF44-F581-41B9-A558-360DD164B723";
name = "Nov 2, 23, 11:39";
shapes = (
{
closed = 1;
nodes = (
(219,-50,o),
(256,-33,o),
(256,8,cs),
(256,15,o),
(258,39,o),
(258,47,cs),
(265,227,o),
(314,472,o),
(351,582,cs),
(356,597,o),
(357,603,o),
(357,614,cs),
(357,641,o),
(330,648,o),
(296,648,cs),
(255,648,o),
(223,639,o),
(213,603,cs),
(160,411,o),
(124,199,o),
(112,13,cs),
(109,-26,o),
(122,-50,o),
(173,-50,cs)
);
},
{
closed = 1;
nodes = (
(154,862,o),
(-24,781,o),
(-24,611,cs),
(-24,556,o),
(-4,513,o),
(10,501,cs),
(58,460,o),
(143,504,o),
(115,548,cs),
(106,562,o),
(95,585,o),
(95,613,cs),
(95,698,o),
(195,748,o),
(488,748,cs),
(652,748,o),
(720,696,o),
(720,623,cs),
(720,529,o),
(609,471,o),
(468,468,cs),
(423,467,o),
(413,438,o),
(412,406,cs),
(411,377,o),
(420,364,o),
(448,363,cs),
(576,359,o),
(611,307,o),
(611,256,cs),
(611,179,o),
(539,112,o),
(340,112,cs),
(296,112,o),
(248,117,o),
(223,119,c),
(221,9,l),
(239,7,o),
(277,3,o),
(336,3,cs),
(607,3,o),
(759,104,o),
(759,261,cs),
(759,338,o),
(702,402,o),
(582,414,c),
(581,395,l),
(770,423,o),
(868,516,o),
(868,640,cs),
(868,765,o),
(722,862,o),
(469,862,cs)
);
}
);
width = 827;
},
{
associatedMasterId = "ECEFE970-1BBB-4E0A-A452-CEB55884B4A3";
layerId = "CB00B515-6899-4773-BD3F-456A8CB1E1C3";
name = "Nov 2, 23, 11:41";
shapes = (
{
closed = 1;
nodes = (
(219,-50,o),
(256,-33,o),
(256,6,cs),
(256,15,o),
(258,39,o),
(259,66,cs),
(265,227,o),
(314,472,o),
(350,578,cs),
(356,597,o),
(357,603,o),
(357,609,cs),
(357,641,o),
(330,648,o),
(295,648,cs),
(255,648,o),
(223,639,o),
(189,517,cs),
(160,411,o),
(124,199,o),
(116,75,cs),
(109,-26,o),
(122,-50,o),
(175,-50,cs)
);
},
{
closed = 1;
nodes = (
(651,862,o),
(431,862,cs),
(205,862,o),
(-24,785,o),
(-24,610,cs),
(-24,415,o),
(153,489,o),
(111,554,cs),
(106,562,o),
(95,585,o),
(95,609,cs),
(95,704,o),
(270,747,o),
(438,747,cs),
(582,747,o),
(720,715,o),
(720,617,cs),
(720,529,o),
(609,471,o),
(501,469,cs),
(423,467,o),
(413,438,o),
(412,408,cs),
(411,377,o),
(420,364,o),
(472,362,cs),
(576,359,o),
(611,307,o),
(611,254,cs),
(611,179,o),
(539,112,o),
(348,112,cs),
(296,112,o),
(248,117,o),
(223,119,c),
(221,9,l),
(239,7,o),
(277,3,o),
(332,3,cs),
(607,3,o),
(759,104,o),
(759,249,cs),
(759,338,o),
(702,402,o),
(582,414,c),
(581,395,l),
(770,423,o),
(868,516,o),
(868,626,cs),
(868,789,o)
);
}
);
width = 827;
}
);
metricRight = "=B";
unicode = 385;
},
{
color = 3;
glyphname = C;
kernLeft = O;
kernRight = C;
lastChange = "2017-11-30 10:18:50 +0000";
layers = (
{
anchors = (
{
name = bottom;
pos = (384,0);
},
{
name = top;
pos = (480,840);
}
);
layerId = "ECEFE970-1BBB-4E0A-A452-CEB55884B4A3";
shapes = (
{
closed = 1;
nodes = (
(538,-5,o),
(645,11,o),
(746,55,cs),
(794,76,o),
(812,107,o),
(812,145,cs),
(812,177,o),
(795,199,o),
(755,182,cs),
(651,138,o),
(566,115,o),
(476,115,cs),
(299,115,o),
(211,208,o),
(211,366,cs),
(211,606,o),
(343,734,o),
(471,734,cs),
(541,734,o),
(568,698,o),
(568,643,cs),
(568,611,o),
(558,584,o),
(558,562,cs),
(558,528,o),
(582,511,o),
(618,511,cs),
(672,511,o),
(701,567,o),
(701,646,cs),
(701,762,o),
(630,848,o),
(481,848,cs),
(249,848,o),
(64,649,o),
(64,348,cs),
(64,134,o),
(212,-5,o),
(453,-5,cs)
);
}
);
width = 686;
}
);
note = C;
unicode = 67;
},
{
color = 3;
glyphname = D;
kernLeft = D;
kernRight = O;
lastChange = "2023-11-07 16:54:13 +0000";
layers = (
{
anchors = (
{
name = bottom;
pos = (332,0);
},
{
name = center;
pos = (419,420);
},
{
name = top;
pos = (442,840);
}
);
background = {
shapes = (
{
closed = 1;
nodes = (
(636,-5,o),
(822,194,o),
(822,495,cs),
(822,729,o),
(670,860,o),
(426,860,cs),
(319,860,o),
(182,830,o),
(85,764,cs),
(18,718,o),
(37,604,o),
(115,655,cs),
(194,706,o),
(303,746,o),
(415,746,cs),
(581,746,o),
(675,655,o),
(675,497,cs),
(675,273,o),
(571,108,o),
(327,108,cs),
(311,108,o),
(279,109,o),
(259,111,c),
(274,279,o),
(314,479,o),
(348,582,cs),
(353,597,o),
(354,603,o),
(354,614,cs),
(354,641,o),
(327,650,o),
(293,650,cs),
(252,650,o),
(220,639,o),
(210,603,cs),
(157,411,o),
(123,199,o),
(114,78,cs),
(111,29,o),
(129,12,o),
(182,5,cs),
(233,-2,o),
(272,-5,o),
(313,-5,cs)
);
}
);
};
layerId = "ECEFE970-1BBB-4E0A-A452-CEB55884B4A3";
shapes = (
{
closed = 1;
nodes = (
(631,-5,o),
(817,194,o),
(817,495,cs),
(817,729,o),
(665,860,o),
(421,860,cs),
(314,860,o),
(177,830,o),
(80,764,cs),
(54,746,o),
(45,727,o),
(45,696,cs),
(45,659,o),
(71,630,o),
(110,655,cs),
(189,706,o),
(298,746,o),
(410,746,cs),
(576,746,o),
(670,655,o),
(670,497,cs),
(670,273,o),
(566,108,o),
(322,108,cs),
(306,108,o),
(274,109,o),
(254,111,c),
(269,279,o),
(309,479,o),
(343,582,cs),
(348,597,o),
(349,603,o),
(349,614,cs),
(349,641,o),
(322,648,o),
(288,648,cs),
(247,648,o),
(215,639,o),
(205,603,cs),
(152,411,o),
(118,199,o),
(109,78,cs),
(106,29,o),
(124,12,o),
(177,5,cs),
(228,-2,o),
(267,-5,o),
(308,-5,cs)
);
}
);
width = 835;
}
);
metricRight = O;
note = D;
unicode = 68;
},
{
color = 0;
glyphname = Dhook;
lastChange = "2023-11-08 03:21:58 +0000";
layers = (
{
associatedMasterId = "ECEFE970-1BBB-4E0A-A452-CEB55884B4A3";
layerId = "95DE53C7-FA91-4F2E-9CED-FF985A05022B";
name = "Nov 2, 23, 12:23";
shapes = (
{
closed = 1;
nodes = (
(664,862,o),
(453,862,cs),
(-24,862,o),
(-32,484,o),
(108,484,cs),
(149,484,o),
(186,520,o),
(164,554,cs),
(159,562,o),
(148,585,o),
(148,609,cs),
(148,682,o),
(293,747,o),
(438,747,cs),
(582,747,o),
(727,682,o),
(727,497,cs),
(727,273,o),
(623,108,o),
(379,108,cs),
(363,108,o),
(331,109,o),
(311,111,c),
(326,279,o),
(366,479,o),
(400,582,cs),
(405,597,o),
(406,603,o),
(406,614,cs),
(406,641,o),
(379,648,o),
(345,648,cs),
(304,648,o),
(272,639,o),
(262,603,cs),
(209,411,o),
(175,199,o),
(166,78,cs),
(163,29,o),
(181,12,o),
(234,5,cs),
(285,-2,o),
(324,-5,o),
(365,-5,cs),
(688,-5,o),
(874,194,o),
(874,495,cs),
(874,759,o)
);
}
);
width = 892;
},
{
layerId = "ECEFE970-1BBB-4E0A-A452-CEB55884B4A3";
name = Regular;
shapes = (
{
closed = 1;
nodes = (
(671,863,o),
(455,863,cs),
(150,863,o),
(45,704,o),
(45,592,cs),
(45,531,o),
(76,484,o),
(124,484,cs),
(165,484,o),
(202,520,o),
(180,554,cs),
(175,562,o),
(164,585,o),
(164,609,cs),
(164,690,o),
(298,749,o),
(437,749,cs),
(588,749,o),
(744,680,o),
(744,497,cs),
(744,273,o),
(640,108,o),
(396,108,cs),
(380,108,o),
(348,109,o),
(328,111,c),
(343,279,o),
(383,479,o),
(417,582,cs),
(422,597,o),
(423,603,o),
(423,614,cs),
(423,641,o),
(396,648,o),
(362,648,cs),
(321,648,o),
(289,639,o),
(279,603,cs),
(226,411,o),
(192,199,o),
(183,78,cs),
(180,29,o),
(198,12,o),
(251,5,cs),
(302,-2,o),
(341,-5,o),
(382,-5,cs),
(705,-5,o),
(891,194,o),
(891,495,cs),
(891,756,o)
);
}
);
width = 909;
},
{
associatedMasterId = "ECEFE970-1BBB-4E0A-A452-CEB55884B4A3";
layerId = "25E0CBBD-E327-4A04-AFD8-366D96151C63";
name = "Nov 2, 23, 12:26";
shapes = (
{
closed = 1;
nodes = (
(666,863,o),
(450,863,cs),
(243,863,o),
(40,765,o),
(40,610,cs),
(40,515,o),
(81,484,o),
(119,484,cs),
(160,484,o),
(197,520,o),
(175,554,cs),
(170,562,o),
(159,585,o),
(159,609,cs),
(159,690,o),
(293,749,o),
(432,749,cs),
(583,749,o),
(739,680,o),
(739,497,cs),
(739,273,o),
(635,108,o),
(391,108,cs),
(375,108,o),
(343,109,o),
(323,111,c),
(338,279,o),
(378,479,o),
(412,582,cs),
(417,597,o),
(418,603,o),
(418,614,cs),
(418,641,o),
(391,648,o),
(357,648,cs),
(316,648,o),
(284,639,o),
(274,603,cs),
(221,411,o),
(187,199,o),
(178,78,cs),
(175,29,o),
(193,12,o),
(246,5,cs),
(297,-2,o),
(336,-5,o),
(377,-5,cs),
(700,-5,o),
(886,194,o),
(886,495,cs),
(886,756,o)
);
}
);
width = 904;
}
);
metricRight = "=O";
unicode = 394;
},
{
color = 1;
glyphname = Eth;
kernLeft = Eth;
kernRight = O;
lastChange = "2023-11-08 03:53:55 +0000";
layers = (
{
background = {
shapes = (
{
closed = 1;
nodes = (
(622,-5,o),
(808,209,o),
(808,494,cs),
(808,714,o),
(671,860,o),
(429,860,cs),
(377,860,o),
(333,857,o),
(296,848,cs),
(268,841,o),
(256,823,o),
(248,798,cs),
(176,579,o),
(115,314,o),
(94,78,cs),
(90,29,o),
(109,12,o),
(160,5,cs),
(211,-2,o),
(243,-5,o),
(299,-5,cs)
);
},
{
closed = 1;
nodes = (
(496,381,o),
(505,414,o),
(505,448,cs),
(505,484,o),
(486,503,o),
(396,503,cs),
(312,503,o),
(285,505,o),
(143,505,cs),
(59,505,o),
(20,484,o),
(20,429,cs),
(20,404,o),
(32,383,o),
(70,383,cs),
(126,383,o),
(148,384,o),
(240,384,cs),
(294,384,o),
(387,381,o),
(442,381,cs)
);
},
{
closed = 1;
nodes = (
(291,112,o),
(266,113,o),
(245,115,c),
(260,283,o),
(312,543,o),
(378,743,c),
(389,744,o),
(400,744,o),
(416,744,cs),
(552,744,o),
(657,665,o),
(657,489,cs),
(657,286,o),
(553,112,o),
(312,112,cs)
);
}
);
};
layerId = "ECEFE970-1BBB-4E0A-A452-CEB55884B4A3";
shapes = (
{
closed = 1;
nodes = (
(617,-5,o),
(803,209,o),
(803,494,cs),
(803,714,o),
(666,860,o),
(424,860,cs),
(372,860,o),
(328,857,o),
(291,848,cs),
(263,841,o),
(251,823,o),
(243,798,cs),
(171,579,o),
(110,314,o),
(89,78,cs),
(85,29,o),
(104,12,o),
(155,5,cs),
(206,-2,o),
(248,-5,o),
(294,-5,cs)
);
},
{
closed = 1;
nodes = (
(491,381,o),
(500,414,o),
(500,448,cs),
(500,484,o),
(481,503,o),
(391,503,cs),
(307,503,o),
(280,505,o),
(138,505,cs),
(54,505,o),
(15,484,o),
(15,429,cs),
(15,404,o),
(27,383,o),
(65,383,cs),
(121,383,o),
(143,384,o),
(235,384,cs),
(289,384,o),
(382,381,o),
(437,381,cs)
);
},
{
closed = 1;
nodes = (
(286,108,o),
(255,109,o),
(234,111,c),
(249,279,o),
(301,547,o),
(367,747,c),
(378,748,o),
(395,748,o),
(411,748,cs),
(551,748,o),
(656,669,o),
(656,489,cs),
(656,286,o),
(552,108,o),
(307,108,cs)
);
}
);
width = 821;
}
);
metricRight = D.ss01;
note = Eth;
unicode = 208;
},
{
color = 3;
glyphname = E;
kernLeft = E;
kernRight = E;
lastChange = "2016-08-03 20:17:33 +0000";
layers = (
{
anchors = (
{
name = bottom;
pos = (372,0);
},
{
name = ogonek;
pos = (506,10);
},
{
name = top;
pos = (466,840);
},
{
name = topleft;
pos = (44,840);
}
);
background = {
shapes = (
{
closed = 1;
nodes = (
(533,-5,o),
(673,15,o),
(785,69,c),
(776,190,l),
(679,145,o),
(543,115,o),
(426,115,cs),
(253,115,o),
(184,160,o),
(184,240,cs),
(184,309,o),
(249,382,o),
(425,386,cs),
(473,387,o),
(484,417,o),
(485,449,cs),
(486,480,o),
(476,492,o),
(445,493,cs),
(320,497,o),
(281,548,o),
(281,604,cs),
(281,685,o),
(355,737,o),
(468,737,cs),
(558,737,o),
(585,698,o),
(585,656,cs),
(585,621,o),
(575,603,o),
(575,574,cs),
(575,540,o),
(599,522,o),
(635,522,cs),
(689,522,o),
(718,579,o),
(718,656,cs),
(718,762,o),
(643,848,o),
(470,848,cs),
(287,848,o),
(133,753,o),
(133,605,cs),
(133,527,o),
(188,450,o),
(299,441,c),
(310,460,l),
(127,432,o),
(36,341,o),
(36,215,cs),
(36,92,o),
(155,-5,o),
(415,-5,cs)
);
}
);
};
layerId = "ECEFE970-1BBB-4E0A-A452-CEB55884B4A3";
shapes = (
{
closed = 1;
nodes = (
(528,-5,o),
(668,18,o),
(748,56,cs),
(797,80,o),
(812,107,o),
(812,145,cs),
(812,177,o),
(795,199,o),
(755,182,cs),
(674,148,o),
(538,115,o),
(421,115,cs),
(248,115,o),
(179,160,o),
(179,240,cs),
(179,309,o),
(244,382,o),
(420,386,cs),
(468,387,o),
(479,417,o),
(480,449,cs),
(481,480,o),
(471,492,o),
(440,493,cs),
(315,497,o),
(276,548,o),
(276,604,cs),
(276,685,o),
(350,737,o),
(463,737,cs),
(553,737,o),
(580,698,o),
(580,656,cs),
(580,621,o),
(570,603,o),
(570,574,cs),
(570,540,o),
(594,524,o),
(630,524,cs),
(684,524,o),
(713,579,o),
(713,656,cs),
(713,762,o),
(638,848,o),
(465,848,cs),
(282,848,o),
(128,753,o),
(128,605,cs),
(128,527,o),
(183,450,o),
(294,441,c),
(305,460,l),
(122,432,o),
(31,341,o),
(31,215,cs),
(31,92,o),
(150,-5,o),
(410,-5,cs)
);
}
);
width = 686;
}
);
note = E;
unicode = 69;
},
{
color = 3;
glyphname = Schwa;
kernLeft = O;
kernRight = O;
lastChange = "2023-11-07 16:54:13 +0000";
layers = (
{
anchors = (
{
name = bottom;
pos = (375,0);
},
{
name = top;
pos = (452,840);
}
);
background = {
shapes = (
{
closed = 1;
nodes = (
(2407,-5,o),
(2593,194,o),
(2593,505,cs),
(2593,729,o),
(2451,848,o),
(2277,848,cs),
(2045,848,o),
(1859,649,o),
(1859,338,cs),
(1859,114,o),
(2001,-5,o),
(2175,-5,cs)
);
},
{
closed = 1;
nodes = (
(2085,113,o),
(2006,189,o),
(2006,355,cs),
(2006,576,o),
(2112,730,o),
(2267,730,cs),
(2367,730,o),
(2446,654,o),
(2446,488,cs),
(2446,271,o),
(2344,113,o),
(2185,113,cs)
);
},
{
closed = 1;
nodes = (
(557,726,o),
(635,658,o),
(635,476,cs),
(635,237,o),
(503,109,o),
(375,109,cs),
(305,109,o),
(278,145,o),
(278,200,cs),
(278,224,o),
(288,259,o),
(288,281,cs),
(288,315,o),
(264,333,o),
(228,333,cs),
(174,333,o),
(145,276,o),
(145,197,cs),
(145,81,o),
(216,-5,o),
(365,-5,cs),
(590,-5,o),
(782,194,o),
(782,493,cs),
(782,729,o),
(640,848,o),
(452,848,cs),
(355,848,o),
(253,808,o),
(171,722,cs),
(120,668,o),
(147,568,o),
(208,625,cs),
(283,695,o),
(352,726,o),
(432,726,cs)
);
},
{
closed = 1;
nodes = (
(1225,848,o),
(1120,814,o),
(1048,742,cs),
(996,690,o),
(1024,568,o),
(1085,625,cs),
(1160,695,o),
(1242,726,o),
(1327,726,cs),
(1447,726,o),
(1536,654,o),
(1536,488,cs),
(1536,271,o),
(1444,113,o),
(1282,113,cs),
(1175,113,o),
(1096,179,o),
(1096,356,c),
(1053,332,l),
(1571,332,l),
(1571,442,l),
(1034,442,ls),
(982,442,o),
(949,405,o),
(949,328,cs),
(949,114,o),
(1091,-5,o),
(1270,-5,cs),
(1507,-5,o),
(1683,194,o),
(1683,505,cs),
(1683,729,o),
(1531,848,o),
(1347,848,cs)
);
}
);
};
guides = (
{
angle = 90;
pos = (173,354);
},
{
angle = 90;
pos = (620,354);
},
{
pos = (350,105);
},
{
pos = (350,738);
}
);
layerId = "ECEFE970-1BBB-4E0A-A452-CEB55884B4A3";
shapes = (
{
closed = 1;
nodes = (
(602,-5,o),
(778,194,o),
(778,495,cs),
(778,729,o),
(636,848,o),
(452,848,cs),
(342,848,o),
(241,814,o),
(169,742,cs),
(117,690,o),
(139,568,o),
(200,625,cs),
(275,695,o),
(357,726,o),
(432,726,cs),
(542,726,o),
(631,654,o),
(631,488,cs),
(631,271,o),
(539,111,o),
(387,111,cs),
(290,111,o),
(205,169,o),
(211,356,c),
(168,332,l),
(666,332,l),
(666,442,l),
(149,442,ls),
(97,442,o),
(64,405,o),
(64,328,cs),
(64,114,o),
(196,-5,o),
(375,-5,cs)
);
}
);
width = 796;
}
);
metricLeft = O;
metricRight = O;
unicode = 399;
},
{
color = 3;
glyphname = F;
kernLeft = F;
kernRight = F;
lastChange = "2023-11-08 03:11:55 +0000";
layers = (
{
anchors = (
{
name = bottom;
pos = (356,0);
},
{
name = top;
pos = (517,840);
}
);
background = {
shapes = (
{
closed = 1;
nodes = (
(377,-8,o),
(473,69,o),
(502,297,cs),
(531,521,o),
(536,593,o),
(550,765,c),
(410,754,l),
(397,601,o),
(389,525,o),
(361,285,cs),
(345,148,o),
(289,93,o),
(218,92,cs),
(156,91,o),
(117,129,o),
(97,155,cs),
(72,187,o),
(59,194,o),
(44,194,cs),
(9,194,o),
(-10,132,o),
(15,93,cs),
(49,40,o),
(129,-8,o),
(224,-8,cs)
);
},
{
closed = 1;
nodes = (
(481,341,o),
(542,340,o),
(679,340,cs),
(730,340,o),
(756,369,o),
(756,413,cs),
(756,438,o),
(748,461,o),
(694,461,cs),
(651,461,o),
(362,454,o),
(326,454,cs),
(285,454,o),
(263,431,o),
(263,390,cs),
(263,356,o),
(290,340,o),
(319,340,cs)
);
},
{
closed = 1;
nodes = (
(174,460,o),
(259,504,o),
(231,548,cs),
(222,562,o),
(211,585,o),
(211,613,cs),
(211,698,o),
(299,728,o),
(592,728,cs),
(701,728,o),
(763,722,o),
(867,714,cs),
(921,710,o),
(944,737,o),
(944,778,cs),
(944,802,o),
(933,823,o),
(892,829,cs),
(798,842,o),
(710,847,o),
(592,847,cs),
(277,847,o),
(92,781,o),
(92,611,cs),
(92,556,o),
(112,513,o),
(126,501,cs)
);
}
);
};
layerId = "ECEFE970-1BBB-4E0A-A452-CEB55884B4A3";
shapes = (
{
closed = 1;
nodes = (
(372,-8,o),
(468,69,o),
(497,297,cs),
(526,521,o),
(531,593,o),
(545,765,c),
(405,754,l),
(392,601,o),
(384,525,o),
(356,285,cs),
(340,148,o),
(284,93,o),
(213,92,cs),
(151,91,o),
(112,129,o),
(92,155,cs),
(67,187,o),
(54,194,o),
(39,194,cs),
(4,194,o),
(-15,132,o),
(10,93,cs),
(44,40,o),
(124,-8,o),
(219,-8,cs)
);
},
{
closed = 1;
nodes = (
(476,341,o),
(537,340,o),
(674,340,cs),
(725,340,o),
(751,369,o),
(751,413,cs),
(751,438,o),
(743,461,o),
(689,461,cs),
(646,461,o),
(357,454,o),
(321,454,cs),
(280,454,o),
(258,431,o),
(258,390,cs),
(258,356,o),
(285,340,o),
(314,340,cs)
);
},
{
closed = 1;
nodes = (
(169,460,o),
(254,504,o),
(226,548,cs),
(217,562,o),
(206,585,o),
(206,613,cs),
(206,698,o),
(294,728,o),
(587,728,cs),
(696,728,o),
(758,722,o),
(862,714,cs),
(916,710,o),
(936,737,o),
(936,778,cs),
(936,802,o),
(928,823,o),
(887,829,cs),
(793,842,o),
(705,847,o),
(587,847,cs),
(272,847,o),
(87,781,o),
(87,611,cs),
(87,556,o),
(107,513,o),
(121,501,cs)
);
}
);
width = 712;
}
);
note = F;
unicode = 70;
},
{
color = 3;
glyphname = G;
kernLeft = O;
kernRight = j;
lastChange = "2016-08-03 19:28:52 +0000";
layers = (
{
anchors = (
{
name = bottom;
pos = (280,22);
},
{
name = top;
pos = (495,840);
}
);
background = {
shapes = (
{
closed = 1;
nodes = (
(511,-5,o),
(565,11,o),
(618,37,c),
(629,152,l),
(578,129,o),
(527,115,o),
(471,115,cs),
(304,115,o),
(216,208,o),
(216,366,cs),
(216,610,o),
(348,734,o),
(490,734,cs),
(574,734,o),
(601,698,o),
(601,646,cs),
(601,617,o),
(591,590,o),
(591,568,cs),
(591,537,o),
(615,519,o),
(651,519,cs),
(705,519,o),
(734,573,o),
(734,649,cs),
(734,762,o),
(663,848,o),
(500,848,cs),
(254,848,o),
(69,649,o),
(69,348,cs),
(69,134,o),
(220,-5,o),
(445,-5,cs)
);
},
{
closed = 1;
nodes = (
(605,-455,o),
(682,-201,o),
(727,102,cs),
(746,231,o),
(755,290,o),
(759,330,cs),
(763,368,o),
(737,386,o),
(711,386,cs),
(524,386,ls),
(491,386,o),
(469,363,o),
(469,326,cs),
(469,283,o),
(491,268,o),
(527,268,cs),
(672,268,l),
(631,290,l),
(625,238,o),
(619,172,o),
(604,60,cs),
(560,-268,o),
(497,-358,o),
(461,-358,cs),
(440,-358,o),
(433,-341,o),
(433,-319,cs),
(433,-259,o),
(487,-167,o),
(666,-39,c),
(734,8,o),
(815,64,o),
(896,118,c),
(874,213,l),
(794,159,o),
(726,108,o),
(666,61,c),
(387,-142,o),
(335,-247,o),
(335,-341,cs),
(335,-408,o),
(381,-455,o),
(450,-455,cs)
);
}
);
};
layerId = "ECEFE970-1BBB-4E0A-A452-CEB55884B4A3";
shapes = (
{
closed = 1;
nodes = (
(506,-5,o),
(560,11,o),
(613,37,c),
(624,152,l),
(573,129,o),
(522,115,o),
(466,115,cs),
(299,115,o),
(211,208,o),
(211,366,cs),
(211,610,o),
(343,734,o),
(485,734,cs),
(569,734,o),
(596,698,o),
(596,646,cs),
(596,617,o),
(586,590,o),
(586,568,cs),
(586,537,o),
(610,519,o),
(646,519,cs),
(700,519,o),
(729,573,o),
(729,649,cs),
(729,762,o),
(658,848,o),
(495,848,cs),
(249,848,o),
(64,649,o),
(64,348,cs),
(64,134,o),
(215,-5,o),
(440,-5,cs)
);
},
{
closed = 1;
nodes = (
(600,-455,o),
(677,-201,o),
(722,102,cs),
(741,231,o),
(750,290,o),
(754,330,cs),
(758,368,o),
(732,386,o),
(706,386,cs),
(519,386,ls),
(486,386,o),
(464,363,o),
(464,326,cs),
(464,283,o),
(486,268,o),
(522,268,cs),
(667,268,l),
(626,290,l),
(620,238,o),
(614,172,o),
(599,60,cs),
(555,-268,o),
(492,-358,o),
(456,-358,cs),
(435,-358,o),
(428,-341,o),
(428,-319,cs),
(428,-259,o),
(482,-167,o),
(661,-39,c),
(729,8,o),
(810,64,o),
(891,118,cs),
(911,131,o),
(920,146,o),
(920,177,cs),
(920,201,o),
(910,221,o),
(892,221,cs),
(885,221,o),
(877,218,o),
(869,213,c),
(789,159,o),
(721,108,o),
(661,61,c),
(382,-142,o),
(330,-247,o),
(330,-341,cs),
(330,-408,o),
(376,-455,o),
(445,-455,cs)
);
}
);
width = 811;
}
);
metricRight = j;
note = G;
unicode = 71;
},
{
color = 3;
glyphname = H;
kernLeft = H;
kernRight = H;
lastChange = "2017-11-08 14:03:51 +0000";
layers = (
{
anchors = (
{
name = bottom;
pos = (452,0);
},
{
name = center;
pos = (471,420);
},
{
name = top;
pos = (529,840);
},
{
name = topleft;
pos = (34,840);
}
);
background = {
shapes = (
{
closed = 1;
nodes = (
(863,-5,o),
(933,49,o),
(988,116,c),
(952,209,l),
(896,142,o),
(856,114,o),
(800,114,cs),
(743,114,o),
(701,159,o),
(701,307,cs),
(701,547,o),
(785,790,o),
(844,790,cs),
(860,790,o),
(872,773,o),
(872,741,cs),
(872,536,o),
(745,459,o),
(471,445,cs),
(327,438,o),
(200,433,o),
(182,432,cs),
(122,429,o),
(100,409,o),
(100,366,cs),
(100,331,o),
(120,317,o),
(163,317,cs),
(201,317,o),
(300,326,o),
(423,335,cs),
(816,364,o),
(957,518,o),
(957,734,cs),
(957,817,o),
(917,877,o),
(849,877,cs),
(663,877,o),
(564,519,o),
(564,285,cs),
(564,93,o),
(651,-5,o),
(777,-5,cs)
);
},
{
closed = 1;
nodes = (
(251,-7,o),
(280,15,o),
(296,80,cs),
(349,293,o),
(397,534,o),
(397,665,cs),
(397,794,o),
(344,848,o),
(261,848,cs),
(166,848,o),
(70,786,o),
(14,708,cs),
(-45,626,o),
(15,564,o),
(52,613,cs),
(111,691,o),
(164,730,o),
(210,730,cs),
(236,730,o),
(261,718,o),
(261,649,cs),
(261,531,o),
(208,293,o),
(157,87,cs),
(142,25,o),
(161,-7,o),
(216,-7,cs)
);
}
);
};
layerId = "ECEFE970-1BBB-4E0A-A452-CEB55884B4A3";
shapes = (
{
closed = 1;
nodes = (
(858,-5,o),
(928,49,o),
(983,116,cs),
(1000,137,o),
(1002,159,o),
(1002,178,cs),
(1002,205,o),
(992,223,o),
(974,223,cs),
(966,223,o),
(957,221,o),
(947,209,cs),
(891,142,o),
(851,114,o),
(795,114,cs),
(738,114,o),
(696,159,o),
(696,307,cs),
(696,547,o),
(780,790,o),
(839,790,cs),
(855,790,o),
(867,773,o),
(867,741,cs),
(867,536,o),
(740,459,o),
(466,445,cs),
(322,438,o),
(195,433,o),
(177,432,cs),
(117,429,o),
(95,409,o),
(95,366,cs),
(95,331,o),
(115,317,o),
(158,317,cs),
(196,317,o),
(295,326,o),
(418,335,cs),
(811,364,o),
(952,518,o),
(952,734,cs),
(952,817,o),
(912,877,o),
(844,877,cs),
(658,877,o),
(559,519,o),
(559,285,cs),
(559,93,o),
(646,-5,o),
(772,-5,cs)
);
},
{
closed = 1;
nodes = (
(246,-7,o),
(275,15,o),
(291,80,cs),
(344,293,o),
(392,534,o),
(392,665,cs),
(392,794,o),
(339,848,o),
(256,848,cs),
(161,848,o),
(65,786,o),
(9,708,cs),
(-50,626,o),
(10,564,o),
(47,613,cs),
(106,691,o),
(159,730,o),
(205,730,cs),
(231,730,o),
(256,718,o),
(256,649,cs),
(256,531,o),
(203,293,o),
(152,87,cs),
(137,25,o),
(156,-7,o),
(211,-7,cs)
);
}
);
width = 873;
}
);
note = H;
unicode = 72;
},
{
color = 3;
glyphname = Hbar;
kernLeft = H_ss01;
kernRight = H_ss01;
lastChange = "2016-08-02 21:22:10 +0000";
layers = (
{
background = {
shapes = (
{
closed = 1;
nodes = (
(171,366,o),
(353,370,o),
(423,370,cs),
(481,370,o),
(684,370,o),
(768,370,cs),
(838,370,o),
(853,399,o),
(853,440,cs),
(853,468,o),
(837,491,o),
(792,491,cs),
(749,491,o),
(582,488,o),
(441,486,cs),
(303,485,o),
(171,484,o),
(145,484,cs),
(80,484,o),
(61,455,o),
(61,411,cs),
(61,374,o),
(85,363,o),
(118,364,cs)
);
},
{
closed = 1;
nodes = (
(237,848,o),
(209,829,o),
(205,778,cs),
(201,715,o),
(183,576,o),
(167,486,cs),
(160,446,o),
(152,403,o),
(144,355,cs),
(123,228,o),
(102,105,o),
(102,55,cs),
(102,19,o),
(120,-5,o),
(171,-5,cs),
(215,-5,o),
(242,14,o),
(246,65,cs),
(251,128,o),
(269,267,o),
(284,357,cs),
(306,488,ls),
(327,615,o),
(349,738,o),
(349,788,cs),
(349,824,o),
(332,848,o),
(286,848,cs)
);
},
{
closed = 1;
nodes = (
(694,848,o),
(666,829,o),
(662,778,cs),
(657,715,o),
(640,576,o),
(624,486,cs),
(617,446,o),
(609,403,o),
(601,355,cs),
(580,228,o),
(559,105,o),
(559,55,cs),
(559,19,o),
(577,-5,o),
(628,-5,cs),
(672,-5,o),
(699,14,o),
(703,65,cs),
(708,128,o),
(726,267,o),
(741,357,cs),
(763,488,ls),
(784,615,o),
(806,738,o),
(806,788,cs),
(806,824,o),
(789,848,o),
(743,848,cs)
);
}
);
};
layerId = "ECEFE970-1BBB-4E0A-A452-CEB55884B4A3";
shapes = (
{
closed = 1;
nodes = (
(667,-5,o),
(694,14,o),
(698,65,cs),
(703,128,o),
(721,267,o),
(736,357,cs),
(758,488,ls),
(779,615,o),
(801,738,o),
(801,788,cs),
(801,824,o),
(784,848,o),
(738,848,cs),
(689,848,o),
(661,829,o),
(657,778,cs),
(652,715,o),
(635,576,o),
(619,486,cs),
(612,446,o),
(604,403,o),
(596,355,cs),
(575,228,o),
(554,105,o),
(554,55,cs),
(554,19,o),
(572,-5,o),
(623,-5,cs)
);
},
{
closed = 1;
nodes = (
(210,-5,o),
(237,14,o),
(241,65,cs),
(246,128,o),
(264,267,o),
(279,357,cs),
(301,488,ls),
(322,615,o),
(344,738,o),
(344,788,cs),
(344,824,o),
(327,848,o),
(281,848,cs),
(232,848,o),
(204,829,o),
(200,778,cs),
(196,715,o),
(178,576,o),
(162,486,cs),
(155,446,o),
(147,403,o),
(139,355,cs),
(118,228,o),
(97,105,o),
(97,55,cs),
(97,19,o),
(115,-5,o),
(166,-5,cs)
);
},
{
closed = 1;
nodes = (
(166,366,o),
(348,370,o),
(418,370,cs),
(476,370,o),
(679,370,o),
(763,370,cs),
(833,370,o),
(848,399,o),
(848,440,cs),
(848,468,o),
(832,491,o),
(787,491,cs),
(744,491,o),
(577,488,o),
(436,486,cs),
(298,485,o),
(166,484,o),
(140,484,cs),
(75,484,o),
(56,455,o),
(56,411,cs),
(56,374,o),
(80,363,o),
(113,364,cs)
);
},
{
closed = 1;
nodes = (
(198,596,o),
(380,599,o),
(450,599,cs),
(508,599,o),
(711,599,o),
(795,599,cs),
(865,599,o),
(880,624,o),
(880,659,cs),
(880,683,o),
(864,703,o),
(819,703,cs),
(776,703,o),
(609,700,o),
(468,699,cs),
(330,698,o),
(198,697,o),
(172,697,cs),
(107,697,o),
(88,672,o),
(88,634,cs),
(88,602,o),
(112,593,o),
(145,594,cs)
);
}
);
width = 856;
}
);
metricLeft = "=H.ss01+5";
metricWidth = "=H.ss01+10";
unicode = 294;
},
{
color = 3;
glyphname = I;
kernLeft = I;
kernRight = I;
lastChange = "2017-11-15 10:41:30 +0000";
layers = (
{
anchors = (
{
name = bottom;
pos = (221,0);
},
{
name = ogonek;
pos = (274,10);
},
{
name = top;
pos = (338,840);
},
{
name = topleft;
pos = (270,840);
}
);
background = {
shapes = (
{
closed = 1;
nodes = (
(72,-18,o),
(132,-2,o),
(225,-2,cs),
(262,-2,o),
(325,-6,o),
(370,-6,cs),
(421,-6,o),
(448,24,o),
(448,58,cs),
(449,93,o),
(432,116,o),
(357,116,cs),
(294,116,o),
(163,111,o),
(110,110,cs),
(33,108,o),
(-12,80,o),
(-12,30,cs),
(-12,-4,o),
(13,-18,o),
(40,-18,cs)
);
},
{
closed = 1;
nodes = (
(232,720,o),
(294,723,o),
(339,723,cs),
(376,723,o),
(439,724,o),
(484,724,cs),
(535,724,o),
(561,755,o),
(561,797,cs),
(561,822,o),
(534,842,o),
(499,842,cs),
(416,842,o),
(257,844,o),
(204,841,cs),
(131,838,o),
(106,806,o),
(106,765,cs),
(106,740,o),
(118,720,o),
(169,720,cs)
);
},
{
closed = 1;
nodes = (
(255,778,l),
(248,717,o),
(231,576,o),
(215,486,cs),
(208,446,o),
(200,403,o),
(192,355,cs),
(171,228,o),
(151,105,o),
(146,55,c),
(298,65,l),
(305,128,o),
(323,267,o),
(338,357,cs),
(360,488,ls),
(381,615,o),
(405,740,o),
(408,788,c)
);
}
);
};
layerId = "ECEFE970-1BBB-4E0A-A452-CEB55884B4A3";
shapes = (
{
closed = 1;
nodes = (
(289,65,l),
(296,128,o),
(316,267,o),
(330,357,cs),
(351,488,ls),
(371,615,o),
(396,740,o),
(399,788,c),
(255,778,l),
(248,717,o),
(228,576,o),
(212,486,cs),
(205,446,o),
(198,403,o),
(190,355,cs),
(169,228,o),
(151,105,o),
(146,55,c)
);
},
{
closed = 1;
nodes = (
(67,-18,o),
(127,-2,o),
(220,-2,cs),
(257,-2,o),
(320,-6,o),
(365,-6,cs),
(416,-6,o),
(443,23,o),
(443,56,cs),
(443,90,o),
(427,112,o),
(352,112,cs),
(289,112,o),
(158,107,o),
(105,106,cs),
(28,105,o),
(-17,77,o),
(-17,29,cs),
(-17,-4,o),
(8,-18,o),
(35,-18,cs)
);
},
{
closed = 1;
nodes = (
(227,724,o),
(289,727,o),
(334,727,cs),
(371,727,o),
(434,728,o),
(479,728,cs),
(530,728,o),
(556,758,o),
(556,799,cs),
(556,823,o),
(529,842,o),
(494,842,cs),
(411,842,o),
(252,844,o),
(199,841,cs),
(126,837,o),
(101,807,o),
(101,768,cs),
(101,743,o),
(113,724,o),
(164,724,cs)
);
}
);
width = 495;
}
);
note = I;
unicode = 73;
},
{
color = 3;
glyphname = J;
kernLeft = J;
kernRight = J;
lastChange = "2017-11-05 16:15:42 +0000";
layers = (
{
anchors = (
{
name = bottom;
pos = (322,-107);
},
{
name = top;
pos = (439,840);
}
);
background = {
shapes = (
{
closed = 1;
nodes = (
(141,438,o),
(247,493,o),
(215,548,cs),
(207,562,o),
(195,585,o),
(195,613,cs),
(195,695,o),
(283,726,o),
(466,726,cs),
(535,726,o),
(597,719,o),
(701,706,cs),
(755,699,o),
(773,723,o),
(773,767,cs),
(773,791,o),
(760,812,o),
(716,823,cs),
(652,839,o),
(574,847,o),
(496,847,cs),
(241,847,o),
(76,781,o),
(76,607,cs),
(76,566,o),
(87,528,o),
(104,500,cs)
);
},
{
closed = 1;
nodes = (
(574,739,l),
(566,668,o),
(560,624,o),
(554,571,cs),
(500,92,o),
(407,0,o),
(340,0,cs),
(303,0,o),
(279,25,o),
(280,74,cs),
(282,185,o),
(376,285,o),
(617,369,c),
(617,469,l),
(373,394,o),
(151,259,o),
(151,58,cs),
(151,-33,o),
(212,-107,o),
(327,-107,cs),
(497,-107,o),
(637,83,o),
(700,556,cs),
(713,653,o),
(718,682,o),
(724,739,c)
);
}
);
};
layerId = "ECEFE970-1BBB-4E0A-A452-CEB55884B4A3";
shapes = (
{
closed = 1;
nodes = (
(492,-107,o),
(628,73,o),
(693,556,cs),
(706,653,o),
(711,682,o),
(717,739,c),
(575,739,l),
(567,668,o),
(561,624,o),
(555,571,cs),
(501,92,o),
(402,0,o),
(335,0,cs),
(298,0,o),
(274,25,o),
(275,74,cs),
(277,185,o),
(371,285,o),
(612,369,c),
(612,469,l),
(368,394,o),
(146,259,o),
(146,58,cs),
(146,-33,o),
(207,-107,o),
(322,-107,cs)
);
},
{
closed = 1;
nodes = (
(136,438,o),
(242,493,o),
(210,548,cs),
(202,562,o),
(190,585,o),
(190,613,cs),
(190,695,o),
(278,728,o),
(461,728,cs),
(530,728,o),
(590,721,o),
(694,708,cs),
(748,701,o),
(766,723,o),
(766,767,cs),
(766,791,o),
(753,812,o),
(709,823,cs),
(645,839,o),
(569,847,o),
(491,847,cs),
(236,847,o),
(71,781,o),
(71,607,cs),
(71,566,o),
(82,528,o),
(99,500,cs)
);
}
);
width = 743;
}
);
note = J;
unicode = 74;
},
{
color = 3;
glyphname = K;
kernLeft = K;
kernRight = K;
lastChange = "2017-11-30 09:37:54 +0000";
layers = (
{
anchors = (
{
name = bottom;
pos = (514,0);
},
{
name = top;
pos = (644,840);
}
);
background = {
shapes = (
{
closed = 1;
nodes = (
(373,-8,o),
(454,67,o),
(483,261,cs),
(515,473,o),
(534,593,o),
(557,765,c),
(415,754,l),
(394,601,o),
(356,333,o),
(342,240,cs),
(326,137,o),
(286,93,o),
(238,91,cs),
(186,89,o),
(160,119,o),
(120,195,cs),
(109,216,o),
(98,224,o),
(81,224,cs),
(40,224,o),
(18,160,o),
(38,111,cs),
(65,43,o),
(141,-8,o),
(235,-8,cs)
);
},
{
closed = 1;
nodes = (
(937,-5,o),
(997,49,o),
(1052,116,c),
(1016,209,l),
(960,142,o),
(926,114,o),
(882,114,cs),
(834,114,o),
(802,147,o),
(761,235,cs),
(709,346,o),
(678,390,o),
(512,390,c),
(473,336,l),
(545,336,o),
(566,315,o),
(630,174,cs),
(681,61,o),
(734,-5,o),
(839,-5,cs)
);
},
{
closed = 1;
nodes = (
(136,441,o),
(236,493,o),
(210,548,cs),
(203,562,o),
(190,585,o),
(190,623,cs),
(190,696,o),
(248,737,o),
(363,737,cs),
(412,737,o),
(461,728,o),
(533,714,cs),
(574,706,o),
(597,723,o),
(597,767,cs),
(597,796,o),
(580,813,o),
(548,823,cs),
(484,843,o),
(437,847,o),
(383,847,cs),
(169,847,o),
(71,738,o),
(71,617,cs),
(71,566,o),
(85,531,o),
(101,503,cs)
);
},
{
closed = 1;
nodes = (
(493,336,l),
(547,367,l),
(697,380,o),
(880,493,o),
(964,771,cs),
(977,814,o),
(954,842,o),
(909,842,cs),
(865,842,o),
(836,821,o),
(824,784,cs),
(761,591,o),
(667,441,o),
(476,441,cs),
(430,441,o),
(397,441,o),
(338,441,cs),
(313,441,o),
(291,420,o),
(291,384,cs),
(291,354,o),
(309,335,o),
(340,335,cs)
);
}
);
};
layerId = "ECEFE970-1BBB-4E0A-A452-CEB55884B4A3";
shapes = (
{
closed = 1;
nodes = (
(368,-8,o),
(449,67,o),
(478,261,cs),
(510,473,o),
(529,593,o),
(552,765,c),
(410,754,l),
(389,601,o),
(351,333,o),
(337,240,cs),
(321,137,o),
(281,93,o),
(233,91,cs),
(181,89,o),
(155,119,o),
(115,195,cs),
(104,216,o),
(93,224,o),
(76,224,cs),
(35,224,o),
(13,160,o),
(33,111,cs),
(60,43,o),
(136,-8,o),
(230,-8,cs)
);
},
{
closed = 1;
nodes = (
(932,-5,o),
(992,49,o),
(1047,116,cs),
(1064,137,o),
(1066,159,o),
(1066,178,cs),
(1066,205,o),
(1056,223,o),
(1038,223,cs),
(1030,223,o),
(1021,221,o),
(1011,209,cs),
(955,142,o),
(921,114,o),
(877,114,cs),
(829,114,o),
(797,147,o),
(756,235,cs),
(704,346,o),
(673,390,o),
(507,390,c),
(468,336,l),
(540,336,o),
(561,315,o),
(625,174,cs),
(676,61,o),
(729,-5,o),
(834,-5,cs)
);
},
{
closed = 1;
nodes = (
(131,441,o),
(231,493,o),
(205,548,cs),
(198,562,o),
(185,585,o),
(185,623,cs),
(185,696,o),
(243,737,o),
(358,737,cs),
(407,737,o),
(456,728,o),
(528,714,cs),
(569,706,o),
(592,723,o),
(592,767,cs),
(592,796,o),
(575,813,o),
(543,823,cs),
(479,843,o),
(432,847,o),
(378,847,cs),
(164,847,o),
(66,738,o),
(66,617,cs),
(66,566,o),
(80,531,o),
(96,503,cs)
);
},
{
closed = 1;
nodes = (
(488,336,l),
(542,367,l),
(692,380,o),
(875,493,o),
(959,771,cs),
(972,814,o),
(949,842,o),
(904,842,cs),
(860,842,o),
(831,821,o),
(819,784,cs),
(756,591,o),
(662,441,o),
(471,441,cs),
(425,441,o),
(392,441,o),
(333,441,cs),
(308,441,o),
(286,420,o),
(286,384,cs),
(286,354,o),
(304,335,o),
(335,335,cs)
);
}
);
width = 937;
}
);
note = K;
unicode = 75;
},
{
glyphname = Khook;
lastChange = "2023-11-02 21:51:51 +0000";
layers = (
{
anchors = (
{
name = bottom;
pos = (514,0);
},
{
name = top;
pos = (644,840);
}
);
layerId = "ECEFE970-1BBB-4E0A-A452-CEB55884B4A3";
shapes = (
{
closed = 1;
nodes = (
(368,-8,o),
(449,67,o),
(478,261,cs),
(510,473,o),
(529,593,o),
(552,765,c),
(410,754,l),
(389,601,o),
(351,333,o),
(337,240,cs),
(321,137,o),
(281,93,o),
(233,91,cs),
(181,89,o),
(155,119,o),
(115,195,cs),
(104,216,o),
(93,224,o),
(76,224,cs),
(35,224,o),
(13,160,o),
(33,111,cs),
(60,43,o),
(136,-8,o),
(230,-8,cs)
);
},
{
closed = 1;
nodes = (
(938,-5,o),
(1033,79,o),
(1088,146,cs),
(1105,167,o),
(1107,189,o),
(1107,208,cs),
(1107,235,o),
(1097,253,o),
(1079,253,cs),
(1071,253,o),
(1062,251,o),
(1052,239,cs),
(996,172,o),
(921,114,o),
(869,114,cs),
(829,114,o),
(797,147,o),
(756,235,cs),
(704,346,o),
(673,390,o),
(507,390,c),
(468,336,l),
(540,336,o),
(561,315,o),
(625,174,cs),
(676,61,o),
(735,-5,o),
(831,-5,cs)
);
},
{
closed = 1;
nodes = (
(131,441,o),
(231,493,o),
(205,548,cs),
(198,562,o),
(185,585,o),
(185,623,cs),
(185,696,o),
(243,737,o),
(358,737,cs),
(407,737,o),
(456,728,o),
(528,714,cs),
(569,706,o),
(592,723,o),
(592,767,cs),
(592,796,o),
(575,813,o),
(543,823,cs),
(479,843,o),
(432,847,o),
(378,847,cs),
(164,847,o),
(66,738,o),
(66,617,cs),
(66,566,o),
(80,531,o),
(96,503,cs)
);
},
{
closed = 1;
nodes = (
(739,441,o),
(471,441,cs),
(425,441,o),
(392,441,o),
(333,441,cs),
(308,441,o),
(286,420,o),
(286,384,cs),
(286,354,o),
(304,335,o),
(335,335,cs),
(488,336,l),
(542,367,l),
(805,367,o),
(819,735,o),
(890,735,cs),
(944,735,o),
(945,636,o),
(872,554,cs),
(832,509,o),
(935,456,o),
(980,509,cs),
(1097,648,o),
(1036,843,o),
(894,843,cs),
(690,843,o)
);
}
);
width = 978;
},
{
anchors = (
{
name = bottom;
pos = (514,0);
},
{
name = top;
pos = (644,840);
}
);
associatedMasterId = "ECEFE970-1BBB-4E0A-A452-CEB55884B4A3";
layerId = "B5FD9899-67CD-496B-A308-0849E15B8C75";
name = "Nov 2, 23, 17:24";
shapes = (
{
closed = 1;
nodes = (
(368,-8,o),
(449,67,o),
(478,261,cs),
(510,473,o),
(529,593,o),
(552,765,c),
(410,754,l),
(389,601,o),
(351,333,o),
(337,240,cs),
(321,137,o),
(281,93,o),
(233,91,cs),
(181,89,o),
(155,119,o),
(115,195,cs),
(104,216,o),
(93,224,o),
(76,224,cs),
(35,224,o),
(13,160,o),
(33,111,cs),
(60,43,o),
(136,-8,o),
(230,-8,cs)
);
},
{
closed = 1;
nodes = (
(932,-5,o),
(992,49,o),
(1047,116,cs),
(1064,137,o),
(1066,159,o),
(1066,178,cs),
(1066,205,o),
(1056,223,o),
(1038,223,cs),
(1030,223,o),
(1021,221,o),
(1011,209,cs),
(955,142,o),
(921,114,o),
(877,114,cs),
(829,114,o),
(797,147,o),
(756,235,cs),
(704,346,o),
(673,390,o),
(507,390,c),
(468,336,l),
(540,336,o),
(561,315,o),
(625,174,cs),
(676,61,o),
(729,-5,o),
(834,-5,cs)
);
},
{
closed = 1;
nodes = (
(131,441,o),
(231,493,o),
(205,548,cs),
(198,562,o),
(185,585,o),
(185,623,cs),
(185,696,o),
(243,737,o),
(358,737,cs),
(407,737,o),
(456,728,o),
(528,714,cs),
(569,706,o),
(592,723,o),
(592,767,cs),
(592,796,o),
(575,813,o),
(543,823,cs),
(479,843,o),
(432,847,o),
(378,847,cs),
(164,847,o),
(66,738,o),
(66,617,cs),
(66,566,o),
(80,531,o),
(96,503,cs)
);
},
{
closed = 1;
nodes = (
(737,563,o),
(643,441,o),
(471,441,cs),
(425,441,o),
(392,441,o),
(333,441,cs),
(308,441,o),
(286,420,o),
(286,384,cs),
(286,354,o),
(304,335,o),
(335,335,cs),
(488,336,l),
(542,367,l),
(679,379,o),
(843,474,o),
(934,701,c),
(950,723,o),
(989,696,o),
(989,623,cs),
(989,585,o),
(976,562,o),
(969,548,cs),
(943,493,o),
(1043,441,o),
(1078,503,cs),
(1094,531,o),
(1108,566,o),
(1108,617,cs),
(1108,738,o),
(996,964,o),
(799,728,c)
);
}
);
width = 1076;
},
{
anchors = (
{
name = bottom;
pos = (514,0);
},
{
name = top;
pos = (644,840);
}
);
associatedMasterId = "ECEFE970-1BBB-4E0A-A452-CEB55884B4A3";
layerId = "BDE61C5A-39F7-4748-8487-1E9C060D5267";
name = "Nov 2, 23, 17:29";
shapes = (
{
closed = 1;
nodes = (
(368,-8,o),
(449,67,o),
(478,261,cs),
(510,473,o),
(529,593,o),
(552,765,c),
(410,754,l),
(389,601,o),
(351,333,o),
(337,240,cs),
(321,137,o),
(281,93,o),
(233,91,cs),
(181,89,o),
(155,119,o),
(115,195,cs),
(104,216,o),
(93,224,o),
(76,224,cs),
(35,224,o),
(13,160,o),
(33,111,cs),
(60,43,o),
(136,-8,o),
(230,-8,cs)
);
},
{
closed = 1;
nodes = (
(932,-5,o),
(992,49,o),
(1047,116,cs),
(1064,137,o),
(1066,159,o),
(1066,178,cs),
(1066,205,o),
(1056,223,o),
(1038,223,cs),
(1030,223,o),
(1021,221,o),
(1011,209,cs),
(955,142,o),
(921,114,o),
(877,114,cs),
(829,114,o),
(797,147,o),
(756,235,cs),
(704,346,o),
(673,390,o),
(507,390,c),
(468,336,l),
(540,336,o),
(561,315,o),
(625,174,cs),
(676,61,o),
(729,-5,o),
(834,-5,cs)
);
},
{
closed = 1;
nodes = (
(131,441,o),
(231,493,o),
(205,548,cs),
(198,562,o),
(185,585,o),
(185,623,cs),
(185,696,o),
(243,737,o),
(358,737,cs),
(407,737,o),
(456,728,o),
(528,714,cs),
(569,706,o),
(592,723,o),
(592,767,cs),
(592,796,o),
(575,813,o),
(543,823,cs),
(479,843,o),
(432,847,o),
(378,847,cs),
(164,847,o),
(66,738,o),
(66,617,cs),
(66,566,o),
(80,531,o),
(96,503,cs)
);
},
{
closed = 1;
nodes = (
(716,564,o),
(635,441,o),
(471,441,cs),
(425,441,o),
(392,441,o),
(333,441,cs),
(308,441,o),
(286,420,o),
(286,384,cs),
(286,354,o),
(304,335,o),
(335,335,cs),
(488,336,l),
(542,367,l),
(805,367,o),
(866,735,o),
(937,735,cs),
(981,735,o),
(982,629,o),
(909,547,cs),
(869,502,o),
(972,449,o),
(1017,502,cs),
(1134,641,o),
(1073,843,o),
(941,843,cs),
(885,843,o),
(827,805,o),
(791,727,cs)
);
}
);
width = 1076;
},
{
anchors = (
{
name = bottom;
pos = (508,0);
},
{
name = top;
pos = (638,840);
}
);
associatedMasterId = "ECEFE970-1BBB-4E0A-A452-CEB55884B4A3";
layerId = "74FFBBEA-CD7B-449C-94A2-4FCB2620192F";
name = "Nov 2, 23, 17:40";
shapes = (
{
closed = 1;
nodes = (
(362,-8,o),
(443,67,o),
(472,261,cs),
(504,473,o),
(523,593,o),
(546,765,c),
(404,754,l),
(383,601,o),
(345,333,o),
(331,240,cs),
(315,137,o),
(275,93,o),
(227,91,cs),
(175,89,o),
(149,119,o),
(109,195,cs),
(98,216,o),
(87,224,o),
(70,224,cs),
(29,224,o),
(7,160,o),
(27,111,cs),
(54,43,o),
(130,-8,o),
(224,-8,cs)
);
},
{
closed = 1;
nodes = (
(926,-5,o),
(986,49,o),
(1041,116,cs),
(1058,137,o),
(1060,159,o),
(1060,178,cs),
(1060,205,o),
(1050,223,o),
(1032,223,cs),
(1024,223,o),
(1015,221,o),
(1005,209,cs),
(949,142,o),
(915,114,o),
(871,114,cs),
(823,114,o),
(791,147,o),
(750,235,cs),
(698,346,o),
(667,390,o),
(501,390,c),
(462,336,l),
(534,336,o),
(555,315,o),
(619,174,cs),
(670,61,o),
(723,-5,o),
(828,-5,cs)
);
},
{
closed = 1;
nodes = (
(125,441,o),
(225,493,o),
(199,548,cs),
(192,562,o),
(179,585,o),
(179,623,cs),
(179,696,o),
(237,737,o),
(352,737,cs),
(401,737,o),
(450,728,o),
(522,714,cs),
(563,706,o),
(586,723,o),
(586,767,cs),
(586,796,o),
(569,813,o),
(537,823,cs),
(473,843,o),
(426,847,o),
(372,847,cs),
(158,847,o),
(60,738,o),
(60,617,cs),
(60,566,o),
(74,531,o),
(90,503,cs)
);
},
{
closed = 1;
nodes = (
(733,441,o),
(465,441,cs),
(419,441,o),
(386,441,o),
(327,441,cs),
(302,441,o),
(280,420,o),
(280,384,cs),
(280,354,o),
(298,335,o),
(329,335,cs),
(482,336,l),
(536,367,l),
(799,367,o),
(813,735,o),
(884,735,cs),
(938,735,o),
(939,636,o),
(866,554,cs),
(826,509,o),
(929,456,o),
(974,509,cs),
(1091,648,o),
(1030,843,o),
(888,843,cs),
(684,843,o)
);
}
);
width = 1030;
}
);
unicode = 408;
},
{
color = 3;
glyphname = L;
kernLeft = L;
kernRight = L;
lastChange = "2023-11-08 03:54:12 +0000";
layers = (
{
anchors = (
{
name = bottom;
pos = (329,0);
},
{
name = center;
pos = (479,390);
},
{
name = top;
pos = (503,840);
},
{
name = topright;
pos = (813,858);
}
);
background = {
shapes = (
{
closed = 1;
nodes = (
(218,-5,o),
(271,108,o),
(288,271,cs),
(311,498,ls),
(328,664,o),
(392,736,o),
(508,736,cs),
(578,736,o),
(607,698,o),
(607,645,cs),
(607,611,o),
(597,584,o),
(597,562,cs),
(597,528,o),
(621,510,o),
(657,510,cs),
(711,510,o),
(740,567,o),
(740,646,cs),
(740,762,o),
(665,848,o),
(516,848,cs),
(429,848,o),
(348,821,o),
(286,767,cs),
(220,710,o),
(176,631,o),
(167,491,cs),
(148,191,l),
(136,200,l),
(29,200,o),
(-36,150,o),
(-36,86,cs),
(-36,33,o),
(12,-5,o),
(87,-5,cs)
);
},
{
closed = 1;
nodes = (
(650,-5,o),
(713,25,o),
(788,116,c),
(752,208,l),
(704,152,o),
(652,127,o),
(574,127,cs),
(489,127,o),
(324,200,o),
(136,200,c),
(90,110,l),
(299,110,o),
(388,-5,o),
(553,-5,cs)
);
}
);
};
layerId = "ECEFE970-1BBB-4E0A-A452-CEB55884B4A3";
shapes = (
{
closed = 1;
nodes = (
(213,-5,o),
(266,108,o),
(283,271,cs),
(306,498,ls),
(323,664,o),
(387,736,o),
(503,736,cs),
(573,736,o),
(602,698,o),
(602,645,cs),
(602,611,o),
(592,584,o),
(592,562,cs),
(592,528,o),
(616,510,o),
(652,510,cs),
(706,510,o),
(735,567,o),
(735,646,cs),
(735,762,o),
(660,848,o),
(511,848,cs),
(424,848,o),
(343,821,o),
(281,767,cs),
(215,710,o),
(171,631,o),
(162,491,cs),
(143,191,l),
(131,200,l),
(24,200,o),
(-41,150,o),
(-41,86,cs),
(-41,33,o),
(7,-5,o),
(82,-5,cs)
);
},
{
closed = 1;
nodes = (
(645,-5,o),
(708,25,o),
(783,116,cs),
(800,137,o),
(802,159,o),
(802,178,cs),
(802,205,o),
(792,223,o),
(774,223,cs),
(766,223,o),
(757,221,o),
(747,209,cs),
(699,153,o),
(647,127,o),
(569,127,cs),
(484,127,o),
(319,200,o),
(131,200,c),
(85,110,l),
(294,110,o),
(383,-5,o),
(548,-5,cs)
);
}
);
width = 673;
}
);
note = L;
unicode = 76;
},
{
color = 3;
glyphname = LJ;
kernLeft = L;
kernRight = J;
lastChange = "2016-08-02 19:56:28 +0000";
layers = (
{
layerId = "ECEFE970-1BBB-4E0A-A452-CEB55884B4A3";
shapes = (
{
closed = 1;
nodes = (
(213,-5,o),
(266,108,o),
(283,271,cs),
(308,518,ls),
(323,664,o),
(387,736,o),
(476,736,cs),
(533,736,o),
(562,698,o),
(562,645,cs),
(562,611,o),
(552,584,o),
(552,562,cs),
(552,528,o),
(576,510,o),
(612,510,cs),
(666,510,o),
(695,567,o),
(695,646,cs),
(695,762,o),
(620,848,o),
(487,848,cs),
(305,848,o),
(176,712,o),
(163,511,cs),
(143,191,l),
(131,200,l),
(24,200,o),
(-41,150,o),
(-41,86,cs),
(-41,33,o),
(7,-5,o),
(82,-5,cs)
);
},
{
closed = 1;
nodes = (
(645,-5,o),
(708,25,o),
(783,116,c),
(747,208,l),
(699,152,o),
(647,127,o),
(569,127,cs),
(484,127,o),
(319,200,o),
(131,200,c),
(85,110,l),
(294,110,o),
(383,-5,o),
(548,-5,cs)
);
},
{
closed = 1;
nodes = (
(1025,-107,o),
(1161,73,o),
(1226,556,cs),
(1239,653,o),
(1244,682,o),
(1250,739,c),
(1108,739,l),
(1100,668,o),
(1094,624,o),
(1088,571,cs),
(1034,92,o),
(935,0,o),
(868,0,cs),
(831,0,o),
(807,25,o),
(808,74,cs),
(810,185,o),
(904,285,o),
(1145,369,c),
(1145,469,l),
(901,394,o),
(679,259,o),
(679,58,cs),
(679,-33,o),
(740,-107,o),
(855,-107,cs)
);
},
{
closed = 1;
nodes = (
(809,438,o),
(915,493,o),
(883,548,cs),
(875,562,o),
(863,585,o),
(863,613,cs),
(863,695,o),
(951,728,o),
(1034,728,cs),
(1063,728,o),
(1123,721,o),
(1227,708,cs),
(1281,701,o),
(1299,723,o),
(1299,767,cs),
(1299,791,o),
(1286,812,o),
(1242,823,cs),
(1178,839,o),
(1102,847,o),
(1064,847,cs),
(909,847,o),
(744,781,o),
(744,607,cs),
(744,566,o),
(755,528,o),
(772,500,cs)
);
}
);
width = 1276;
}
);
metricLeft = L;
metricRight = J;
unicode = 455;
},
{
color = 3;
glyphname = Lj;
kernLeft = L;
kernRight = j;
lastChange = "2023-11-08 03:12:24 +0000";
layers = (
{
anchors = (
{
name = bottom;
pos = (329,0);
},
{
name = center;
pos = (479,390);
},
{
name = top;
pos = (503,840);
},
{
name = topright;
pos = (778,840);
}
);
layerId = "ECEFE970-1BBB-4E0A-A452-CEB55884B4A3";
shapes = (
{
closed = 1;
nodes = (
(213,-5,o),
(266,108,o),
(283,271,cs),
(306,498,ls),
(323,664,o),
(387,736,o),
(463,736,cs),
(533,736,o),
(562,698,o),
(562,645,cs),
(562,611,o),
(552,584,o),
(552,562,cs),
(552,528,o),
(576,510,o),
(612,510,cs),
(666,510,o),
(695,567,o),
(695,646,cs),
(695,762,o),
(620,848,o),
(471,848,cs),
(374,848,o),
(324,821,o),
(272,767,cs),
(211,704,o),
(171,631,o),
(162,491,cs),
(143,191,l),
(131,200,l),
(24,200,o),
(-41,150,o),
(-41,86,cs),
(-41,33,o),
(7,-5,o),
(82,-5,cs)
);
},
{
closed = 1;
nodes = (
(645,-5,o),
(708,25,o),
(783,116,cs),
(800,137,o),
(802,159,o),
(802,178,cs),
(802,205,o),
(792,223,o),
(774,223,cs),
(766,223,o),
(757,221,o),
(747,209,cs),
(699,153,o),
(647,127,o),
(569,127,cs),
(484,127,o),
(319,200,o),
(131,200,c),
(85,110,l),
(294,110,o),
(383,-5,o),
(548,-5,cs)
);
},
{
closed = 1;
nodes = (
(716,-455,o),
(794,-201,o),
(838,102,cs),
(857,231,o),
(882,382,o),
(882,432,cs),
(882,450,o),
(877,466,o),
(833,466,cs),
(783,466,o),
(761,448,o),
(756,410,cs),
(738,272,o),
(735,207,o),
(715,60,cs),
(671,-268,o),
(608,-358,o),
(572,-358,cs),
(551,-358,o),
(544,-340,o),
(544,-319,cs),
(544,-259,o),
(598,-167,o),
(777,-39,c),
(845,8,o),
(926,64,o),
(1007,118,cs),
(1027,131,o),
(1036,146,o),
(1036,177,cs),
(1036,201,o),
(1026,221,o),
(1008,221,cs),
(1001,221,o),
(993,218,o),
(985,213,cs),
(905,159,o),
(837,108,o),
(777,61,c),
(498,-142,o),
(446,-250,o),
(446,-341,cs),
(446,-408,o),
(492,-455,o),
(561,-455,cs)
);
},
{
closed = 1;
nodes = (
(884,532,o),
(923,565,o),
(923,619,cs),
(923,665,o),
(888,688,o),
(840,688,cs),
(786,688,o),
(744,653,o),
(744,606,cs),
(744,561,o),
(771,532,o),
(828,532,cs)
);
}
);
width = 927;
}
);
unicode = 456;
},
{
color = 3;
glyphname = Lslash;
kernLeft = L;
kernRight = L;
lastChange = "2016-08-02 07:48:02 +0000";
layers = (
{
background = {
shapes = (
{
closed = 1;
nodes = (
(218,-5,o),
(271,108,o),
(288,271,cs),
(311,498,ls),
(326,644,o),
(392,716,o),
(508,716,cs),
(578,716,o),
(607,678,o),
(607,625,cs),
(607,591,o),
(597,564,o),
(597,542,cs),
(597,508,o),
(621,490,o),
(657,490,cs),
(711,490,o),
(740,547,o),
(740,626,cs),
(740,742,o),
(665,828,o),
(516,828,cs),
(429,828,o),
(348,801,o),
(286,747,cs),
(220,690,o),
(175,611,o),
(167,491,cs),
(148,191,l),
(136,200,l),
(29,200,o),
(-36,150,o),
(-36,86,cs),
(-36,33,o),
(12,-5,o),
(87,-5,cs)
);
},
{
closed = 1;
nodes = (
(650,-5,o),
(713,25,o),
(788,116,c),
(752,208,l),
(704,152,o),
(652,127,o),
(574,127,cs),
(489,127,o),
(324,200,o),
(136,200,c),
(90,110,l),
(299,110,o),
(388,-5,o),
(553,-5,cs)
);
},
{
closed = 1;
nodes = (
(331,845,o),
(412,908,o),
(581,908,cs),
(646,908,o),
(689,896,o),
(714,896,cs),
(744,896,o),
(767,911,o),
(767,942,cs),
(767,976,o),
(717,1013,o),
(579,1013,cs),
(472,1013,o),
(375,987,o),
(319,964,cs),
(253,937,o),
(243,916,o),
(243,887,cs),
(243,866,o),
(257,845,o),
(287,845,cs)
);
}
);
};
layerId = "ECEFE970-1BBB-4E0A-A452-CEB55884B4A3";
shapes = (
{
closed = 1;
nodes = (
(213,-5,o),
(266,108,o),
(283,271,cs),
(306,498,ls),
(321,644,o),
(387,716,o),
(503,716,cs),
(573,716,o),
(602,678,o),
(602,625,cs),
(602,591,o),
(592,564,o),
(592,542,cs),
(592,508,o),
(616,490,o),
(652,490,cs),
(706,490,o),
(735,547,o),
(735,626,cs),
(735,742,o),
(660,828,o),
(511,828,cs),
(424,828,o),
(343,801,o),
(281,747,cs),
(215,690,o),
(170,611,o),
(162,491,cs),
(143,191,l),
(131,200,l),
(24,200,o),
(-41,150,o),
(-41,86,cs),
(-41,33,o),
(7,-5,o),
(82,-5,cs)
);
},
{
closed = 1;
nodes = (
(645,-5,o),
(708,25,o),
(783,116,cs),
(800,137,o),
(802,159,o),
(802,178,cs),
(802,205,o),
(792,223,o),
(774,223,cs),
(766,223,o),
(757,221,o),
(747,209,cs),
(699,153,o),
(647,127,o),
(569,127,cs),
(484,127,o),
(319,200,o),
(131,200,c),
(85,110,l),
(294,110,o),
(383,-5,o),
(548,-5,cs)
);
},
{
closed = 1;
nodes = (
(326,845,o),
(407,908,o),
(576,908,cs),
(641,908,o),
(684,896,o),
(709,896,cs),
(739,896,o),
(762,911,o),
(762,942,cs),
(762,976,o),
(712,1013,o),
(574,1013,cs),
(467,1013,o),
(370,987,o),
(314,964,cs),
(248,937,o),
(238,916,o),
(238,887,cs),
(238,866,o),
(252,845,o),
(282,845,cs)
);
}
);
width = 673;
}
);
metricLeft = L;
metricRight = L;
note = Lslash;
unicode = 321;
},
{
color = 3;
glyphname = M;
kernLeft = N;
kernRight = N;
lastChange = "2016-08-03 22:36:16 +0000";
layers = (
{
anchors = (
{
name = bottom;
pos = (628,0);
},
{
name = top;
pos = (732,840);
}
);
background = {
shapes = (
{
closed = 1;
nodes = (
(292,-5,o),
(302,25,o),
(310,86,cs),
(381,604,o),
(511,721,o),
(595,721,cs),
(634,721,o),
(653,698,o),
(653,647,cs),
(653,587,o),
(630,456,o),
(607,335,cs),
(595,272,o),
(568,135,o),
(568,81,cs),
(568,20,o),
(590,-5,o),
(633,-5,cs),
(684,-5,o),
(705,25,o),
(714,96,cs),
(775,575,o),
(901,721,o),
(986,721,cs),
(1019,721,o),
(1038,698,o),
(1038,651,cs),
(1038,607,o),
(1028,572,o),
(1020,535,cs),
(980,352,ls),
(963,273,o),
(956,221,o),
(956,181,cs),
(956,69,o),
(1022,-5,o),
(1137,-5,cs),
(1211,-5,o),
(1277,31,o),
(1347,116,c),
(1311,209,l),
(1255,142,o),
(1217,114,o),
(1172,114,cs),
(1126,114,o),
(1098,141,o),
(1098,198,cs),
(1098,229,o),
(1102,254,o),
(1108,284,cs),
(1169,570,ls),
(1177,609,o),
(1182,645,o),
(1182,677,cs),
(1182,783,o),
(1132,848,o),
(1037,848,cs),
(927,848,o),
(836,782,o),
(766,590,c),
(773,628,o),
(775,653,o),
(775,672,cs),
(775,785,o),
(721,848,o),
(635,848,cs),
(534,848,o),
(433,790,o),
(351,556,c),
(361,614,o),
(371,666,o),
(371,711,cs),
(371,801,o),
(329,848,o),
(257,848,cs),
(178,848,o),
(96,797,o),
(32,708,cs),
(11,679,o),
(4,659,o),
(4,638,cs),
(4,603,o),
(40,573,o),
(70,613,cs),
(133,697,o),
(183,724,o),
(213,724,cs),
(233,724,o),
(246,713,o),
(246,679,cs),
(246,653,o),
(244,615,o),
(237,559,cs),
(209,333,o),
(168,159,o),
(168,84,cs),
(168,20,o),
(191,-5,o),
(237,-5,cs)
);
}
);
};
layerId = "ECEFE970-1BBB-4E0A-A452-CEB55884B4A3";
shapes = (
{
closed = 1;
nodes = (
(287,-5,o),
(297,25,o),
(305,86,cs),
(376,604,o),
(506,721,o),
(590,721,cs),
(629,721,o),
(648,698,o),
(648,647,cs),
(648,587,o),
(625,456,o),
(602,335,cs),
(590,272,o),
(563,135,o),
(563,71,cs),
(563,10,o),
(585,-5,o),
(628,-5,cs),
(679,-5,o),
(699,15,o),
(709,96,cs),
(770,575,o),
(896,721,o),
(981,721,cs),
(1014,721,o),
(1033,698,o),
(1033,651,cs),
(1033,607,o),
(1023,572,o),
(1015,535,cs),
(975,352,ls),
(958,273,o),
(951,221,o),
(951,181,cs),
(951,69,o),
(1017,-5,o),
(1132,-5,cs),
(1206,-5,o),
(1272,31,o),
(1342,116,cs),
(1359,137,o),
(1361,159,o),
(1361,178,cs),
(1361,205,o),
(1351,223,o),
(1333,223,cs),
(1325,223,o),
(1316,221,o),
(1306,209,cs),
(1250,142,o),
(1212,114,o),
(1167,114,cs),
(1121,114,o),
(1093,141,o),
(1093,198,cs),
(1093,229,o),
(1097,254,o),
(1103,284,cs),
(1164,570,ls),
(1172,609,o),
(1177,645,o),
(1177,677,cs),
(1177,783,o),
(1127,848,o),
(1032,848,cs),
(922,848,o),
(831,782,o),
(761,590,c),
(768,628,o),
(770,653,o),
(770,672,cs),
(770,785,o),
(716,848,o),
(630,848,cs),
(529,848,o),
(428,790,o),
(346,556,c),
(356,614,o),
(366,666,o),
(366,711,cs),
(366,801,o),
(324,848,o),
(252,848,cs),
(173,848,o),
(91,797,o),
(27,708,cs),
(6,679,o),
(-1,659,o),
(-1,638,cs),
(-1,603,o),
(35,573,o),
(65,613,cs),
(128,697,o),
(178,724,o),
(208,724,cs),
(228,724,o),
(241,713,o),
(241,679,cs),
(241,653,o),
(239,615,o),
(232,559,cs),
(204,333,o),
(163,159,o),
(163,74,cs),
(163,10,o),
(186,-5,o),
(232,-5,cs)
);
}
);
width = 1232;
}
);
metricLeft = N;
metricRight = N;
note = M;
unicode = 77;
},
{
color = 3;
glyphname = N;
kernLeft = N;
kernRight = N;
lastChange = "2016-10-04 14:45:22 +0000";
layers = (
{
anchors = (
{
name = bottom;
pos = (437,0);
},
{
name = top;
pos = (551,840);
}
);
background = {
shapes = (
{
closed = 1;
nodes = (
(292,-5,o),
(302,25,o),
(310,86,cs),
(372,556,o),
(510,721,o),
(621,721,cs),
(666,721,o),
(690,692,o),
(690,651,cs),
(690,607,o),
(680,572,o),
(672,535,cs),
(632,352,ls),
(615,273,o),
(608,226,o),
(608,181,cs),
(608,69,o),
(674,-5,o),
(789,-5,cs),
(863,-5,o),
(929,31,o),
(999,116,c),
(963,209,l),
(907,142,o),
(868,114,o),
(824,114,cs),
(778,114,o),
(750,141,o),
(750,198,cs),
(750,229,o),
(754,254,o),
(760,284,cs),
(821,570,ls),
(829,609,o),
(834,645,o),
(834,677,cs),
(834,776,o),
(782,848,o),
(669,848,cs),
(529,848,o),
(427,741,o),
(361,547,c),
(370,609,o),
(377,668,o),
(377,715,cs),
(377,801,o),
(341,848,o),
(267,848,cs),
(178,848,o),
(96,797,o),
(32,708,cs),
(11,679,o),
(4,661,o),
(4,638,cs),
(4,603,o),
(40,573,o),
(70,613,cs),
(132,696,o),
(183,724,o),
(213,724,cs),
(233,724,o),
(246,713,o),
(246,679,cs),
(246,653,o),
(243,615,o),
(236,559,cs),
(209,333,o),
(168,159,o),
(168,84,cs),
(168,20,o),
(191,-5,o),
(237,-5,cs)
);
},
{
closed = 1;
nodes = (
(999,116,l),
(1016,137,o),
(1018,159,o),
(1018,178,cs),
(1018,205,o),
(1008,223,o),
(990,223,cs),
(982,223,o),
(973,221,o),
(963,209,c)
);
}
);
};
layerId = "ECEFE970-1BBB-4E0A-A452-CEB55884B4A3";
shapes = (
{
closed = 1;
nodes = (
(287,-5,o),
(297,25,o),
(305,86,cs),
(367,556,o),
(505,721,o),
(616,721,cs),
(661,721,o),
(685,692,o),
(685,651,cs),
(685,607,o),
(675,572,o),
(667,535,cs),
(627,352,ls),
(610,273,o),
(603,226,o),
(603,181,cs),
(603,69,o),
(669,-5,o),
(784,-5,cs),
(858,-5,o),
(924,31,o),
(994,116,cs),
(1011,137,o),
(1013,159,o),
(1013,178,cs),
(1013,205,o),
(1003,223,o),
(985,223,cs),
(977,223,o),
(968,221,o),
(958,209,cs),
(902,142,o),
(863,114,o),
(819,114,cs),
(773,114,o),
(745,141,o),
(745,198,cs),
(745,229,o),
(749,254,o),
(755,284,cs),
(816,570,ls),
(824,609,o),
(829,645,o),
(829,677,cs),
(829,776,o),
(777,848,o),
(664,848,cs),
(524,848,o),
(422,741,o),
(356,547,c),
(365,609,o),
(372,668,o),
(372,715,cs),
(372,801,o),
(336,848,o),
(262,848,cs),
(173,848,o),
(91,797,o),
(27,708,cs),
(6,679,o),
(-1,661,o),
(-1,638,cs),
(-1,603,o),
(35,573,o),
(65,613,cs),
(127,696,o),
(178,724,o),
(208,724,cs),
(228,724,o),
(241,713,o),
(241,679,cs),
(241,653,o),
(238,615,o),
(231,559,cs),
(204,333,o),
(163,159,o),
(163,74,cs),
(163,10,o),
(186,-5,o),
(232,-5,cs)
);
}
);
width = 884;
}
);
note = N;
unicode = 78;
},
{
color = 3;
glyphname = NJ;
kernLeft = N;
kernRight = J;
lastChange = "2016-08-03 22:51:12 +0000";
layers = (
{
layerId = "ECEFE970-1BBB-4E0A-A452-CEB55884B4A3";
shapes = (
{
closed = 1;
nodes = (
(1246,-107,o),
(1382,73,o),
(1447,556,cs),
(1460,653,o),
(1465,682,o),
(1471,739,c),
(1329,739,l),
(1321,668,o),
(1315,624,o),
(1309,571,cs),
(1255,92,o),
(1156,0,o),
(1089,0,cs),
(1052,0,o),
(1028,25,o),
(1029,74,cs),
(1031,185,o),
(1125,285,o),
(1366,369,c),
(1366,469,l),
(1122,394,o),
(900,259,o),
(900,58,cs),
(900,-33,o),
(961,-107,o),
(1076,-107,cs)
);
},
{
closed = 1;
nodes = (
(960,438,o),
(1066,493,o),
(1034,548,cs),
(1026,562,o),
(1014,585,o),
(1014,613,cs),
(1014,695,o),
(1102,728,o),
(1215,728,cs),
(1284,728,o),
(1344,721,o),
(1448,708,cs),
(1502,701,o),
(1520,723,o),
(1520,767,cs),
(1520,791,o),
(1507,812,o),
(1463,823,cs),
(1399,839,o),
(1323,847,o),
(1245,847,cs),
(1060,847,o),
(895,781,o),
(895,607,cs),
(895,566,o),
(906,528,o),
(923,500,cs)
);
},
{
ref = N;
}
);
width = 1497;
}
);
metricLeft = N;
metricRight = J;
unicode = 458;
},
{
color = 3;
glyphname = Eng;
kernLeft = N;
kernRight = N;
lastChange = "2017-10-28 12:01:43 +0000";
layers = (
{
background = {
shapes = (
{
closed = 1;
nodes = (
(563,-347,o),
(649,-169,o),
(721,139,cs),
(789,430,ls),
(804,492,o),
(829,598,o),
(829,682,cs),
(829,776,o),
(782,848,o),
(669,848,cs),
(529,848,o),
(427,741,o),
(361,547,c),
(370,609,o),
(377,668,o),
(377,715,cs),
(377,801,o),
(341,848,o),
(267,848,cs),
(178,848,o),
(96,797,o),
(32,708,cs),
(11,679,o),
(4,661,o),
(4,638,cs),
(4,615,o),
(20,594,o),
(39,594,cs),
(49,594,o),
(60,599,o),
(70,613,cs),
(132,696,o),
(183,724,o),
(213,724,cs),
(233,724,o),
(246,713,o),
(246,679,cs),
(246,653,o),
(243,615,o),
(236,559,cs),
(209,333,o),
(168,159,o),
(168,84,cs),
(168,20,o),
(191,-5,o),
(237,-5,cs),
(292,-5,o),
(302,25,o),
(310,86,cs),
(372,556,o),
(510,721,o),
(621,721,cs),
(666,721,o),
(686,692,o),
(686,652,cs),
(686,597,o),
(666,517,o),
(644,415,cs),
(581,120,ls),
(514,-198,o),
(469,-248,o),
(401,-248,cs),
(362,-248,o),
(320,-231,o),
(280,-176,cs),
(266,-156,o),
(248,-148,o),
(231,-148,cs),
(201,-148,o),
(173,-175,o),
(173,-208,cs),
(173,-220,o),
(177,-233,o),
(186,-246,cs),
(233,-314,o),
(313,-347,o),
(390,-347,cs)
);
},
{
closed = 1;
nodes = (
(884,-5,o),
(944,49,o),
(999,116,c),
(963,209,l),
(907,142,o),
(873,116,o),
(829,116,cs),
(781,116,o),
(729,137,o),
(678,175,c),
(654,51,l),
(694,20,o),
(742,-5,o),
(806,-5,cs)
);
}
);
};
layerId = "ECEFE970-1BBB-4E0A-A452-CEB55884B4A3";
shapes = (
{
closed = 1;
nodes = (
(558,-347,o),
(645,-165,o),
(716,139,cs),
(784,430,ls),
(799,492,o),
(824,598,o),
(824,682,cs),
(824,776,o),
(777,848,o),
(664,848,cs),
(524,848,o),
(422,741,o),
(356,547,c),
(365,609,o),
(372,668,o),
(372,715,cs),
(372,801,o),
(336,848,o),
(262,848,cs),
(173,848,o),
(91,797,o),
(27,708,cs),
(6,679,o),
(-1,661,o),
(-1,638,cs),
(-1,615,o),
(15,594,o),
(34,594,cs),
(44,594,o),
(55,599,o),
(65,613,cs),
(127,696,o),
(178,724,o),
(208,724,cs),
(228,724,o),
(241,713,o),
(241,679,cs),
(241,653,o),
(238,615,o),
(231,559,cs),
(204,333,o),
(163,159,o),
(163,84,cs),
(163,20,o),
(186,-5,o),
(232,-5,cs),
(287,-5,o),
(297,25,o),
(305,86,cs),
(367,556,o),
(505,721,o),
(616,721,cs),
(661,721,o),
(681,692,o),
(681,652,cs),
(681,597,o),
(661,517,o),
(639,415,cs),
(576,120,ls),
(509,-198,o),
(464,-248,o),
(396,-248,cs),
(357,-248,o),
(315,-231,o),
(275,-176,cs),
(261,-156,o),
(243,-148,o),
(226,-148,cs),
(196,-148,o),
(168,-175,o),
(168,-208,cs),
(168,-220,o),
(172,-233,o),
(181,-246,cs),
(228,-314,o),
(308,-347,o),
(385,-347,cs)
);
},
{
closed = 1;
nodes = (
(879,-5,o),
(939,49,o),
(994,116,cs),
(1011,137,o),
(1013,159,o),
(1013,178,cs),
(1013,205,o),
(1003,223,o),
(985,223,cs),
(977,223,o),
(968,221,o),
(958,209,cs),
(902,142,o),
(868,116,o),
(824,116,cs),
(776,116,o),
(724,137,o),
(673,175,c),
(649,51,l),
(689,20,o),
(737,-5,o),
(801,-5,cs)
);
}
);
width = 884;
}
);
metricLeft = N;
metricRight = N;
unicode = 330;
},
{
color = 3;
glyphname = O;
kernLeft = O;
kernRight = O;
lastChange = "2017-11-09 09:26:53 +0000";
layers = (
{
anchors = (
{
name = bottom;
pos = (380,-5);
},
{
name = center;
pos = (403,420);
},
{
name = ogonek;
pos = (486,10);
},
{
name = top;
pos = (482,835);
},
{
name = topleft;
pos = (64,840);
},
{
name = topright;
pos = (660,840);
}
);
background = {
shapes = (
{
closed = 1;
nodes = (
(617,-5,o),
(803,194,o),
(803,505,cs),
(803,729,o),
(661,848,o),
(487,848,cs),
(255,848,o),
(69,649,o),
(69,338,cs),
(69,114,o),
(211,-5,o),
(385,-5,cs)
);
},
{
closed = 1;
nodes = (
(298,117,o),
(220,192,o),
(220,356,cs),
(220,570,o),
(324,726,o),
(476,726,cs),
(574,726,o),
(652,651,o),
(652,487,cs),
(652,273,o),
(548,117,o),
(396,117,cs)
);
}
);
};
guides = (
{
angle = 90;
pos = (193,354);
},
{
angle = 90;
pos = (640,354);
},
{
pos = (370,105);
},
{
pos = (370,738);
}
);
layerId = "ECEFE970-1BBB-4E0A-A452-CEB55884B4A3";
shapes = (
{
closed = 1;
nodes = (
(612,-5,o),
(798,194,o),
(798,505,cs),
(798,729,o),
(656,848,o),
(482,848,cs),
(250,848,o),
(64,649,o),
(64,338,cs),
(64,114,o),
(206,-5,o),
(380,-5,cs)
);
},
{
closed = 1;
nodes = (
(290,113,o),
(211,189,o),
(211,355,cs),
(211,576,o),
(317,730,o),
(472,730,cs),
(572,730,o),
(651,654,o),
(651,488,cs),
(651,271,o),
(549,113,o),
(390,113,cs)
);
}
);
width = 816;
}
);
note = O;
unicode = 79;
},
{
color = 3;
glyphname = Ohorn;
kernLeft = O;
kernRight = O;
lastChange = "2016-08-02 07:48:39 +0000";
layers = (
{
anchors = (
{
name = bottom;
pos = (381,0);
},
{
name = center;
pos = (403,420);
},
{
name = ogonek;
pos = (486,10);
},
{
name = top;
pos = (483,840);
},
{
name = topleft;
pos = (64,840);
},
{
name = topright;
pos = (669,912);
}
);
background = {
shapes = (
{
closed = 1;
nodes = (
(617,-5,o),
(803,194,o),
(803,505,cs),
(803,729,o),
(661,848,o),
(487,848,cs),
(255,848,o),
(69,649,o),
(69,338,cs),
(69,114,o),
(211,-5,o),
(385,-5,cs)
);
},
{
closed = 1;
nodes = (
(295,113,o),
(216,189,o),
(216,355,cs),
(216,576,o),
(322,730,o),
(477,730,cs),
(577,730,o),
(656,654,o),
(656,488,cs),
(656,271,o),
(554,113,o),
(395,113,cs)
);
},
{
closed = 1;
nodes = (
(773,726,o),
(852,804,o),
(865,919,cs),
(871,972,o),
(845,997,o),
(807,997,cs),
(779,997,o),
(759,984,o),
(753,951,cs),
(740,881,o),
(717,840,o),
(665,840,c),
(663,830,l),
(643,726,l)
);
}
);
};
layerId = "ECEFE970-1BBB-4E0A-A452-CEB55884B4A3";
shapes = (
{
closed = 1;
nodes = (
(612,-5,o),
(798,194,o),
(798,505,cs),
(798,604,o),
(770,678,o),
(729,734,c),
(803,761,o),
(850,832,o),
(860,919,cs),
(866,972,o),
(840,997,o),
(802,997,cs),
(774,997,o),
(754,984,o),
(748,951,cs),
(735,881,o),
(712,834,o),
(640,834,cs),
(612,834,o),
(571,848,o),
(482,848,cs),
(250,848,o),
(64,649,o),
(64,338,cs),
(64,114,o),
(206,-5,o),
(380,-5,cs)
);
},
{
closed = 1;
nodes = (
(290,113,o),
(211,189,o),
(211,355,cs),
(211,576,o),
(317,730,o),
(472,730,cs),
(572,730,o),
(651,654,o),
(651,488,cs),
(651,271,o),
(549,113,o),
(390,113,cs)
);
}
);
width = 816;
}
);
metricLeft = O;
metricWidth = O;
unicode = 416;
},
{
color = 3;
glyphname = Oslash;
kernLeft = O;
kernRight = O;
lastChange = "2016-08-02 07:48:39 +0000";
layers = (
{
anchors = (
{
name = bottom;
pos = (393,-100);
},
{
name = top;
pos = (391,840);
}
);
background = {
shapes = (
{
closed = 1;
nodes = (
(392,455,l),
(254,-57,ls),
(237,-119,o),
(345,-129,o),
(357,-84,cs),
(496,451,l),
(617,893,ls),
(634,956,o),
(525,966,o),
(513,921,cs)
);
},
{
closed = 1;
nodes = (
(617,-5,o),
(803,194,o),
(803,505,cs),
(803,729,o),
(661,848,o),
(487,848,cs),
(255,848,o),
(69,649,o),
(69,338,cs),
(69,114,o),
(211,-5,o),
(385,-5,cs)
);
},
{
closed = 1;
nodes = (
(298,117,o),
(220,192,o),
(220,356,cs),
(220,570,o),
(324,726,o),
(476,726,cs),
(574,726,o),
(652,651,o),
(652,487,cs),
(652,273,o),
(548,117,o),
(396,117,cs)
);
}
);
};
guides = (
{
angle = 83.1811;
pos = (414,422);
}
);
layerId = "ECEFE970-1BBB-4E0A-A452-CEB55884B4A3";
shapes = (
{
closed = 1;
nodes = (
(612,-5,o),
(798,194,o),
(798,505,cs),
(798,729,o),
(656,848,o),
(482,848,cs),
(250,848,o),
(64,649,o),
(64,338,cs),
(64,114,o),
(206,-5,o),
(380,-5,cs)
);
},
{
closed = 1;
nodes = (
(491,451,l),
(612,893,ls),
(629,956,o),
(520,966,o),
(508,921,cs),
(387,455,l),
(249,-57,ls),
(232,-119,o),
(340,-129,o),
(352,-84,cs)
);
},
{
closed = 1;
nodes = (
(290,113,o),
(211,189,o),
(211,355,cs),
(211,572,o),
(317,730,o),
(472,730,cs),
(572,730,o),
(651,654,o),
(651,488,cs),
(651,271,o),
(549,113,o),
(390,113,cs)
);
}
);
width = 816;
}
);
metricLeft = O;
metricRight = O;
note = Oslash;
unicode = 216;
},
{
color = 3;
glyphname = OE;
kernLeft = O;
kernRight = AE;
lastChange = "2016-08-02 21:24:59 +0000";
layers = (
{
anchors = (
{
name = bottom;
pos = (654,0);
},
{
name = top;
pos = (722,840);
}
);
background = {
shapes = (
{
closed = 1;
nodes = (
(617,-5,o),
(787,217,o),
(787,505,cs),
(787,724,o),
(661,848,o),
(487,848,cs),
(255,848,o),
(69,649,o),
(69,338,cs),
(69,114,o),
(211,-5,o),
(385,-5,cs)
);
},
{
closed = 1;
nodes = (
(295,113,o),
(216,189,o),
(216,355,cs),
(216,572,o),
(322,730,o),
(477,730,cs),
(577,730,o),
(656,654,o),
(656,488,cs),
(656,271,o),
(554,113,o),
(395,113,cs)
);
},
{
closed = 1;
nodes = (
(1044,-5,o),
(1154,27,o),
(1213,69,c),
(1205,182,l),
(1118,139,o),
(1048,115,o),
(976,115,cs),
(807,115,o),
(766,212,o),
(800,361,c),
(909,363,o),
(963,366,o),
(1058,368,cs),
(1101,369,o),
(1124,401,o),
(1124,441,cs),
(1124,471,o),
(1113,490,o),
(1071,490,cs),
(993,490,o),
(913,486,o),
(824,483,c),
(840,556,o),
(862,650,o),
(882,710,c),
(923,715,o),
(1030,720,o),
(1122,720,cs),
(1174,720,o),
(1194,759,o),
(1194,795,cs),
(1194,832,o),
(1179,849,o),
(1130,849,cs),
(1034,849,o),
(964,844,o),
(880,840,cs),
(813,837,o),
(765,801,o),
(745,727,cs),
(664,431,l),
(655,264,l),
(649,121,o),
(731,-5,o),
(953,-5,cs)
);
}
);
};
layerId = "ECEFE970-1BBB-4E0A-A452-CEB55884B4A3";
shapes = (
{
closed = 1;
nodes = (
(612,-5,o),
(782,217,o),
(782,505,cs),
(782,724,o),
(656,848,o),
(482,848,cs),
(250,848,o),
(64,649,o),
(64,338,cs),
(64,114,o),
(206,-5,o),
(380,-5,cs)
);
},
{
closed = 1;
nodes = (
(290,113,o),
(211,189,o),
(211,355,cs),
(211,572,o),
(317,730,o),
(472,730,cs),
(572,730,o),
(651,654,o),
(651,488,cs),
(651,271,o),
(549,113,o),
(390,113,cs)
);
},
{
closed = 1;
nodes = (
(1039,-5,o),
(1149,26,o),
(1208,69,cs),
(1241,93,o),
(1250,118,o),
(1250,146,cs),
(1250,176,o),
(1231,198,o),
(1200,182,cs),
(1114,137,o),
(1043,115,o),
(971,115,cs),
(802,115,o),
(761,212,o),
(795,361,c),
(904,363,o),
(958,366,o),
(1053,368,cs),
(1096,369,o),
(1119,401,o),
(1119,441,cs),
(1119,471,o),
(1108,490,o),
(1066,490,cs),
(988,490,o),
(908,486,o),
(819,483,c),
(835,556,o),
(857,650,o),
(877,710,c),
(918,715,o),
(1025,720,o),
(1117,720,cs),
(1169,720,o),
(1189,759,o),
(1189,795,cs),
(1189,832,o),
(1174,849,o),
(1125,849,cs),
(1029,849,o),
(959,844,o),
(875,840,cs),
(808,837,o),
(760,801,o),
(740,727,cs),
(659,431,l),
(650,264,l),
(644,121,o),
(726,-5,o),
(948,-5,cs)
);
}
);
width = 1124;
}
);
metricLeft = O;
note = OE;
unicode = 338;
},
{
color = 3;
glyphname = P;
kernLeft = P;
kernRight = P;
lastChange = "2023-11-08 03:21:05 +0000";
layers = (
{
anchors = (
{
name = bottom;
pos = (479,0);
},
{
name = top;
pos = (570,840);
}
);
background = {
shapes = (
{
closed = 1;
nodes = (
(489,428,o),
(513,568,cs),
(523,622,o),
(508,646,o),
(454,646,cs),
(414,646,o),
(378,632,o),
(369,583,cs),
(341,434,o),
(312,252,o),
(282,85,cs),
(274,41,o),
(262,16,o),
(244,16,cs),
(209,16,o),
(162,96,o),
(162,227,cs),
(162,520,o),
(292,732,o),
(511,732,cs),
(620,732,o),
(674,664,o),
(674,577,cs),
(674,474,o),
(617,372,o),
(404,372,cs),
(367,372,o),
(328,375,o),
(295,381,cs),
(257,388,o),
(233,369,o),
(233,332,cs),
(233,310,o),
(237,287,o),
(281,279,cs),
(314,273,o),
(364,269,o),
(410,269,cs),
(677,269,o),
(828,417,o),
(828,596,cs),
(828,735,o),
(729,846,o),
(536,846,cs),
(278,846,o),
(51,642,o),
(51,219,cs),
(51,-6,o),
(159,-109,o),
(277,-109,cs),
(346,-109,o),
(403,-63,o),
(421,30,cs),
(462,256,o)
);
}
);
};
layerId = "ECEFE970-1BBB-4E0A-A452-CEB55884B4A3";
shapes = (
{
closed = 1;
nodes = (
(346,-109,o),
(391,-63,o),
(408,30,cs),
(450,256,o),
(477,428,o),
(502,568,cs),
(511,622,o),
(496,646,o),
(442,646,cs),
(409,646,o),
(373,632,o),
(364,583,cs),
(336,434,o),
(307,252,o),
(277,85,cs),
(269,41,o),
(257,16,o),
(239,16,cs),
(204,16,o),
(157,96,o),
(157,227,cs),
(157,524,o),
(287,736,o),
(496,736,cs),
(624,736,o),
(674,668,o),
(674,587,cs),
(674,472,o),
(617,370,o),
(399,370,cs),
(362,370,o),
(323,373,o),
(290,379,cs),
(252,386,o),
(228,367,o),
(228,332,cs),
(228,310,o),
(232,287,o),
(276,279,cs),
(309,273,o),
(359,269,o),
(405,269,cs),
(672,269,o),
(823,417,o),
(823,596,cs),
(823,735,o),
(724,846,o),
(531,846,cs),
(273,846,o),
(46,642,o),
(46,219,cs),
(46,-6,o),
(154,-109,o),
(272,-109,cs)
);
}
);
width = 805;
}
);
note = P;
unicode = 80;
},
{
color = 3;
glyphname = Thorn;
kernLeft = R;
kernRight = Thorn;
lastChange = "2023-11-07 16:54:13 +0000";
layers = (
{
background = {
shapes = (
{
closed = 1;
nodes = (
(483,549,o),
(524,854,cs),
(530,898,o),
(521,938,o),
(462,938,cs),
(424,938,o),
(385,924,o),
(377,865,cs),
(344,619,o),
(306,369,o),
(254,85,cs),
(246,41,o),
(234,16,o),
(216,16,cs),
(181,16,o),
(162,126,o),
(162,207,cs),
(162,470,o),
(264,622,o),
(465,622,cs),
(589,622,o),
(636,564,o),
(636,487,cs),
(636,404,o),
(586,306,o),
(384,306,cs),
(349,306,o),
(310,309,o),
(277,315,cs),
(239,322,o),
(217,303,o),
(217,266,cs),
(217,244,o),
(219,221,o),
(263,213,cs),
(296,207,o),
(346,203,o),
(392,203,cs),
(656,203,o),
(790,347,o),
(790,506,cs),
(790,635,o),
(688,733,o),
(486,733,cs),
(211,733,o),
(51,528,o),
(51,202,cs),
(51,14,o),
(138,-109,o),
(249,-109,cs),
(318,-109,o),
(375,-63,o),
(393,30,cs),
(451,332,o)
);
}
);
};
layerId = "ECEFE970-1BBB-4E0A-A452-CEB55884B4A3";
shapes = (
{
closed = 1;
nodes = (
(319,-109,o),
(360,-63,o),
(378,30,cs),
(436,332,o),
(470,549,o),
(514,874,cs),
(520,918,o),
(506,938,o),
(452,938,cs),
(419,938,o),
(380,924,o),
(375,885,cs),
(339,619,o),
(301,369,o),
(249,85,cs),
(241,41,o),
(229,16,o),
(211,16,cs),
(176,16,o),
(157,126,o),
(157,207,cs),
(157,470,o),
(262,625,o),
(460,625,cs),
(588,625,o),
(635,567,o),
(635,487,cs),
(635,404,o),
(585,306,o),
(379,306,cs),
(344,306,o),
(305,309,o),
(272,315,cs),
(234,322,o),
(212,303,o),
(212,266,cs),
(212,244,o),
(214,223,o),
(258,215,cs),
(291,209,o),
(341,205,o),
(387,205,cs),
(651,205,o),
(785,347,o),
(785,506,cs),
(785,635,o),
(683,733,o),
(481,733,cs),
(216,733,o),
(46,528,o),
(46,202,cs),
(46,14,o),
(133,-109,o),
(244,-109,cs)
);
}
);
width = 780;
}
);
metricLeft = P;
note = Thorn;
unicode = 222;
},
{
color = 3;
glyphname = Q;
kernLeft = O;
kernRight = O;
lastChange = "2016-08-01 22:25:30 +0000";
layers = (
{
background = {
shapes = (
{
closed = 1;
nodes = (
(858,-96,o),
(848,-99,o),
(838,-112,cs),
(786,-180,o),
(748,-207,o),
(704,-207,cs),
(652,-207,o),
(619,-170,o),
(592,-104,cs),
(559,-23,o),
(531,10,o),
(479,27,c),
(480,8,l),
(665,54,o),
(803,234,o),
(803,505,cs),
(803,729,o),
(661,848,o),
(487,848,cs),
(255,848,o),
(69,649,o),
(69,338,cs),
(69,148,o),
(171,30,o),
(315,1,cs),
(374,-11,o),
(394,-38,o),
(445,-156,cs),
(494,-270,o),
(546,-326,o),
(666,-326,cs),
(740,-326,o),
(822,-283,o),
(869,-197,cs),
(881,-175,o),
(886,-152,o),
(886,-134,cs),
(886,-111,o),
(878,-96,o),
(865,-96,cs)
);
},
{
closed = 1;
nodes = (
(298,117,o),
(220,192,o),
(220,356,cs),
(220,570,o),
(324,726,o),
(476,726,cs),
(574,726,o),
(652,651,o),
(652,487,cs),
(652,273,o),
(548,117,o),
(396,117,cs)
);
}
);
};
layerId = "ECEFE970-1BBB-4E0A-A452-CEB55884B4A3";
shapes = (
{
closed = 1;
nodes = (
(735,-326,o),
(817,-283,o),
(864,-197,cs),
(876,-175,o),
(881,-152,o),
(881,-134,cs),
(881,-111,o),
(873,-96,o),
(860,-96,cs),
(853,-96,o),
(843,-99,o),
(833,-112,cs),
(781,-180,o),
(743,-208,o),
(699,-208,cs),
(647,-208,o),
(614,-178,o),
(584,-104,cs),
(551,-23,o),
(526,10,o),
(474,27,c),
(475,8,l),
(660,54,o),
(798,234,o),
(798,505,cs),
(798,729,o),
(656,848,o),
(482,848,cs),
(250,848,o),
(64,649,o),
(64,338,cs),
(64,148,o),
(166,30,o),
(310,1,cs),
(369,-11,o),
(389,-38,o),
(440,-156,cs),
(489,-270,o),
(541,-326,o),
(661,-326,cs)
);
},
{
closed = 1;
nodes = (
(290,113,o),
(211,189,o),
(211,355,cs),
(211,572,o),
(317,730,o),
(472,730,cs),
(572,730,o),
(651,654,o),
(651,488,cs),
(651,271,o),
(549,113,o),
(390,113,cs)
);
}
);
width = 816;
}
);
metricLeft = O;
metricWidth = O;
note = Q;
unicode = 81;
},
{
color = 3;
glyphname = R;
kernLeft = R;
kernRight = R;
lastChange = "2023-11-07 16:54:13 +0000";
layers = (
{
anchors = (
{
name = bottom;
pos = (493,0);
},
{
name = top;
pos = (503,840);
}
);
background = {
shapes = (
{
closed = 1;
nodes = (
(363,-5,o),
(396,46,o),
(408,121,cs),
(440,319,o),
(468,458,o),
(490,585,cs),
(496,623,o),
(484,653,o),
(434,653,cs),
(398,653,o),
(360,640,o),
(350,588,cs),
(326,463,o),
(302,303,o),
(276,165,cs),
(269,125,o),
(258,110,o),
(241,110,cs),
(210,110,o),
(160,175,o),
(160,312,cs),
(160,592,o),
(294,737,o),
(487,737,cs),
(599,737,o),
(656,685,o),
(656,602,cs),
(656,491,o),
(561,419,o),
(449,419,cs),
(353,419,o),
(324,419,o),
(295,419,cs),
(270,419,o),
(244,400,o),
(244,367,cs),
(244,347,o),
(252,315,o),
(303,315,c),
(440,341,l),
(689,341,o),
(806,487,o),
(806,622,cs),
(806,747,o),
(716,846,o),
(517,846,cs),
(242,846,o),
(51,647,o),
(51,305,cs),
(51,123,o),
(140,-5,o),
(277,-5,cs)
);
},
{
closed = 1;
nodes = (
(871,-5,o),
(931,49,o),
(986,116,c),
(950,209,l),
(894,142,o),
(860,114,o),
(816,114,cs),
(766,114,o),
(733,153,o),
(697,230,cs),
(653,325,o),
(617,369,o),
(455,369,c),
(417,315,l),
(489,315,o),
(507,294,o),
(576,150,cs),
(631,35,o),
(688,-5,o),
(773,-5,cs)
);
}
);
};
layerId = "ECEFE970-1BBB-4E0A-A452-CEB55884B4A3";
shapes = (
{
closed = 1;
nodes = (
(358,-5,o),
(391,46,o),
(403,121,cs),
(435,319,o),
(463,458,o),
(485,585,cs),
(491,623,o),
(479,653,o),
(429,653,cs),
(393,653,o),
(355,640,o),
(345,588,cs),
(321,463,o),
(297,303,o),
(271,165,cs),
(264,125,o),
(253,110,o),
(236,110,cs),
(205,110,o),
(155,175,o),
(155,312,cs),
(155,592,o),
(289,737,o),
(482,737,cs),
(594,737,o),
(651,685,o),
(651,602,cs),
(651,491,o),
(556,419,o),
(444,419,cs),
(348,419,o),
(319,419,o),
(290,419,cs),
(265,419,o),
(239,400,o),
(239,367,cs),
(239,347,o),
(247,315,o),
(298,315,c),
(435,341,l),
(684,341,o),
(801,487,o),
(801,622,cs),
(801,747,o),
(711,846,o),
(512,846,cs),
(237,846,o),
(46,647,o),
(46,305,cs),
(46,123,o),
(135,-5,o),
(272,-5,cs)
);
},
{
closed = 1;
nodes = (
(866,-5,o),
(926,49,o),
(981,116,cs),
(998,137,o),
(1000,159,o),
(1000,178,cs),
(1000,205,o),
(990,223,o),
(972,223,cs),
(964,223,o),
(955,221,o),
(945,209,cs),
(889,142,o),
(855,114,o),
(811,114,cs),
(761,114,o),
(728,153,o),
(692,230,cs),
(648,325,o),
(612,369,o),
(450,369,c),
(412,315,l),
(484,315,o),
(502,294,o),
(571,150,cs),
(626,35,o),
(683,-5,o),
(768,-5,cs)
);
}
);
width = 871;
}
);
metricLeft = P;
note = R;
unicode = 82;
},
{
color = 3;
glyphname = S;
kernLeft = S;
kernRight = S;
lastChange = "2016-08-03 20:18:58 +0000";
layers = (
{
anchors = (
{
name = bottom;
pos = (329,0);
},
{
name = top;
pos = (425,840);
}
);
background = {
shapes = (
{
closed = 1;
nodes = (
(661,488,o),
(252,443,o),
(252,620,cs),
(252,692,o),
(313,736,o),
(425,736,cs),
(502,736,o),
(568,708,o),
(568,654,cs),
(568,622,o),
(562,610,o),
(562,581,cs),
(562,552,o),
(587,527,o),
(623,527,cs),
(676,527,o),
(702,570,o),
(702,654,cs),
(702,788,o),
(575,849,o),
(430,849,cs),
(230,849,o),
(110,747,o),
(110,601,cs),
(110,336,o),
(519,382,o),
(519,217,cs),
(519,147,o),
(451,105,o),
(342,105,cs),
(235,105,o),
(169,133,o),
(169,190,cs),
(169,219,o),
(175,231,o),
(175,260,cs),
(175,289,o),
(150,310,o),
(114,310,cs),
(61,310,o),
(35,271,o),
(35,197,cs),
(35,52,o),
(161,-8,o),
(332,-8,cs),
(526,-8,o),
(661,76,o),
(661,239,cs)
);
}
);
};
layerId = "ECEFE970-1BBB-4E0A-A452-CEB55884B4A3";
shapes = (
{
closed = 1;
nodes = (
(521,-8,o),
(656,76,o),
(656,237,cs),
(656,488,o),
(243,443,o),
(243,620,cs),
(243,696,o),
(304,740,o),
(420,740,cs),
(497,740,o),
(563,712,o),
(563,654,cs),
(563,622,o),
(557,610,o),
(557,581,cs),
(557,552,o),
(582,527,o),
(618,527,cs),
(667,527,o),
(693,570,o),
(693,654,cs),
(693,788,o),
(566,849,o),
(425,849,cs),
(225,849,o),
(105,747,o),
(105,603,cs),
(105,336,o),
(518,382,o),
(518,217,cs),
(518,143,o),
(450,101,o),
(337,101,cs),
(230,101,o),
(164,129,o),
(164,190,cs),
(164,219,o),
(170,231,o),
(170,260,cs),
(170,289,o),
(145,310,o),
(109,310,cs),
(60,310,o),
(34,271,o),
(34,197,cs),
(34,52,o),
(160,-8,o),
(327,-8,cs)
);
}
);
width = 693;
}
);
note = S;
unicode = 83;
},
{
color = 3;
glyphname = Germandbls;
kernLeft = I_ss01;
kernRight = Germand;
lastChange = "2023-11-07 16:54:13 +0000";
layers = (
{
background = {
shapes = (
{
closed = 1;
nodes = (
(696,475,o),
(810,560,o),
(810,686,cs),
(810,781,o),
(729,848,o),
(617,848,cs),
(459,848,o),
(328,739,o),
(251,479,c),
(254,469,l),
(285,630,o),
(311,718,o),
(324,782,cs),
(334,829,o),
(319,852,o),
(262,852,cs),
(224,852,o),
(189,839,o),
(177,794,cs),
(138,649,o),
(90,328,o),
(75,73,cs),
(72,24,o),
(99,-5,o),
(142,-5,cs),
(193,-5,o),
(218,26,o),
(225,86,cs),
(276,481,o),
(417,725,o),
(572,725,cs),
(627,725,o),
(656,698,o),
(656,652,cs),
(656,574,o),
(584,524,o),
(450,492,cs),
(404,481,o),
(396,382,o),
(444,380,cs),
(557,376,o),
(639,348,o),
(639,244,cs),
(639,159,o),
(563,76,o),
(408,46,cs),
(352,35,o),
(346,-59,o),
(463,-44,cs),
(647,-20,o),
(791,100,o),
(791,252,cs),
(791,368,o),
(700,449,o),
(562,451,c),
(566,440,l)
);
}
);
};
layerId = "ECEFE970-1BBB-4E0A-A452-CEB55884B4A3";
shapes = (
{
closed = 1;
nodes = (
(642,-20,o),
(786,100,o),
(786,252,cs),
(786,368,o),
(695,449,o),
(557,451,c),
(561,440,l),
(691,475,o),
(805,560,o),
(805,686,cs),
(805,781,o),
(724,848,o),
(612,848,cs),
(454,848,o),
(323,739,o),
(246,479,c),
(249,469,l),
(280,630,o),
(306,718,o),
(319,782,cs),
(329,829,o),
(316,852,o),
(267,852,cs),
(229,852,o),
(194,839,o),
(182,794,cs),
(143,649,o),
(94,328,o),
(78,73,cs),
(74,4,o),
(104,-5,o),
(144,-5,cs),
(190,-5,o),
(211,16,o),
(220,86,cs),
(271,485,o),
(412,729,o),
(567,729,cs),
(625,729,o),
(654,702,o),
(654,652,cs),
(654,574,o),
(582,522,o),
(445,490,cs),
(399,479,o),
(391,384,o),
(439,382,cs),
(555,378,o),
(637,348,o),
(637,244,cs),
(637,159,o),
(561,73,o),
(403,43,cs),
(347,32,o),
(341,-59,o),
(458,-44,cs)
);
}
);
width = 836;
}
);
metricLeft = I.ss01;
unicode = 7838;
},
{
color = 3;
glyphname = T;
kernLeft = T;
kernRight = T;
lastChange = "2017-11-08 14:03:20 +0000";
layers = (
{
anchors = (
{
name = bottom;
pos = (370,0);
},
{
name = center;
pos = (421,420);
},
{
name = top;
pos = (503,840);
}
);
background = {
shapes = (
{
closed = 1;
nodes = (
(2073,638,o),
(2076,627,o),
(2082,618,cs),
(2092,603,o),
(2112,587,o),
(2151,587,cs),
(2170,587,o),
(2185,590,o),
(2196,597,cs),
(2216,610,o),
(2226,625,o),
(2228,639,c),
(2228,645,o),
(2229,649,o),
(2229,649,cs),
(2229,674,o),
(2243,692,o),
(2265,705,cs),
(2286,718,o),
(2316,726,o),
(2350,732,cs),
(2383,738,o),
(2419,740,o),
(2454,743,c),
(2414,619,o),
(2380,520,o),
(2350,436,cs),
(2320,352,o),
(2297,284,o),
(2278,222,cs),
(2259,160,o),
(2245,104,o),
(2237,45,c),
(2235,38,o),
(2234,31,o),
(2234,24,cs),
(2234,-15,o),
(2261,-31,o),
(2298,-31,cs),
(2310,-31,o),
(2325,-23,o),
(2339,-10,cs),
(2353,3,o),
(2363,23,o),
(2369,45,cs),
(2376,69,o),
(2383,98,o),
(2392,131,cs),
(2401,165,o),
(2412,202,o),
(2423,241,cs),
(2445,320,o),
(2470,409,o),
(2492,497,cs),
(2514,584,o),
(2533,670,o),
(2544,743,c),
(2611,739,o),
(2673,732,o),
(2732,726,cs),
(2791,720,o),
(2845,713,o),
(2895,713,cs),
(2910,713,o),
(2923,720,o),
(2933,730,cs),
(2943,740,o),
(2949,753,o),
(2949,766,cs),
(2949,787,o),
(2938,806,o),
(2907,812,cs),
(2772,838,o),
(2648,844,o),
(2535,844,cs),
(2451,844,o),
(2372,840,o),
(2304,830,cs),
(2235,820,o),
(2177,802,o),
(2137,773,cs),
(2096,744,o),
(2072,704,o),
(2072,649,c)
);
},
{
closed = 1;
nodes = (
(1320,720,o),
(1396,717,o),
(1497,717,cs),
(1575,717,o),
(1693,720,o),
(1757,732,cs),
(1801,740,o),
(1819,764,o),
(1819,788,cs),
(1819,832,o),
(1796,855,o),
(1742,851,cs),
(1638,843,o),
(1566,840,o),
(1477,840,cs),
(1396,840,o),
(1321,847,o),
(1230,847,cs),
(1187,847,o),
(1164,834,o),
(1164,799,cs),
(1164,750,o),
(1197,730,o),
(1259,725,cs)
);
},
{
closed = 1;
nodes = (
(1291,601,o),
(1278,525,o),
(1245,345,cs),
(1222,218,o),
(1200,105,o),
(1200,50,cs),
(1200,15,o),
(1223,-5,o),
(1275,-5,cs),
(1317,-5,o),
(1356,14,o),
(1356,55,cs),
(1356,108,o),
(1378,267,o),
(1395,357,cs),
(1426,521,o),
(1437,598,o),
(1469,765,c),
(1319,754,l)
);
},
{
closed = 1;
nodes = (
(122,460,o),
(203,510,o),
(179,548,cs),
(170,562,o),
(159,585,o),
(159,613,cs),
(159,695,o),
(237,724,o),
(530,724,cs),
(649,724,o),
(711,719,o),
(815,711,cs),
(869,707,o),
(892,730,o),
(892,774,cs),
(892,798,o),
(874,822,o),
(830,830,cs),
(766,842,o),
(688,847,o),
(580,847,cs),
(205,847,o),
(40,781,o),
(40,611,cs),
(40,556,o),
(60,513,o),
(86,491,cs)
);
}
);
};
layerId = "ECEFE970-1BBB-4E0A-A452-CEB55884B4A3";
shapes = (
{
closed = 1;
nodes = (
(117,460,o),
(198,510,o),
(174,548,cs),
(165,562,o),
(154,585,o),
(154,613,cs),
(154,695,o),
(232,727,o),
(501,727,cs),
(660,727,o),
(722,722,o),
(826,714,cs),
(880,710,o),
(903,730,o),
(903,774,cs),
(903,798,o),
(885,822,o),
(841,830,cs),
(777,842,o),
(699,847,o),
(551,847,cs),
(200,847,o),
(35,781,o),
(35,611,cs),
(35,556,o),
(55,513,o),
(81,491,cs)
);
},
{
closed = 1;
nodes = (
(407,-5,o),
(443,14,o),
(446,55,cs),
(452,128,o),
(470,267,o),
(485,357,cs),
(513,521,o),
(533,627,o),
(561,765,c),
(417,754,l),
(391,620,o),
(366,515,o),
(342,355,cs),
(323,228,o),
(300,105,o),
(300,53,cs),
(300,19,o),
(324,-5,o),
(369,-5,cs)
);
}
);
width = 697;
}
);
note = T;
unicode = 84;
},
{
color = 3;
glyphname = Tbar;
kernLeft = T;
kernRight = T;
lastChange = "2016-08-03 22:51:12 +0000";
layers = (
{
layerId = "ECEFE970-1BBB-4E0A-A452-CEB55884B4A3";
shapes = (
{
closed = 1;
nodes = (
(292,356,o),
(354,359,o),
(424,359,cs),
(482,359,o),
(495,359,o),
(579,359,cs),
(649,359,o),
(664,384,o),
(664,419,cs),
(664,443,o),
(648,463,o),
(603,463,cs),
(560,463,o),
(393,460,o),
(442,459,cs),
(500,458,o),
(292,457,o),
(266,457,cs),
(201,457,o),
(182,432,o),
(182,394,cs),
(182,362,o),
(206,353,o),
(239,354,cs)
);
},
{
ref = T;
}
);
width = 697;
}
);
unicode = 358;
},
{
color = 3;
glyphname = U;
kernLeft = U;
kernRight = N;
lastChange = "2017-11-05 16:14:26 +0000";
layers = (
{
anchors = (
{
name = bottom;
pos = (438,0);
},
{
name = ogonek;
pos = (868,10);
},
{
name = top;
pos = (533,840);
},
{
name = topright;
pos = (791,840);
}
);
background = {
shapes = (
{
closed = 1;
nodes = (
(472,-5,o),
(574,102,o),
(640,296,c),
(631,234,o),
(624,185,o),
(624,148,cs),
(624,62,o),
(680,-5,o),
(795,-5,cs),
(869,-5,o),
(935,31,o),
(1005,116,c),
(969,209,l),
(913,142,o),
(874,114,o),
(830,114,cs),
(790,114,o),
(762,141,o),
(762,198,cs),
(762,224,o),
(765,248,o),
(770,284,cs),
(798,510,o),
(839,684,o),
(839,759,cs),
(839,823,o),
(816,848,o),
(770,848,cs),
(715,848,o),
(705,818,o),
(697,757,cs),
(635,287,o),
(491,122,o),
(380,122,cs),
(335,122,o),
(311,151,o),
(311,192,cs),
(311,236,o),
(321,271,o),
(329,308,cs),
(370,491,ls),
(388,570,o),
(401,627,o),
(401,702,cs),
(401,801,o),
(350,848,o),
(271,848,cs),
(155,848,o),
(80,774,o),
(32,708,cs),
(11,679,o),
(4,656,o),
(4,638,cs),
(4,603,o),
(40,573,o),
(70,613,cs),
(132,696,o),
(187,729,o),
(224,729,cs),
(244,729,o),
(259,715,o),
(259,681,cs),
(259,630,o),
(248,589,o),
(242,559,cs),
(180,273,ls),
(172,234,o),
(167,198,o),
(167,166,cs),
(167,67,o),
(220,-5,o),
(337,-5,cs)
);
}
);
};
layerId = "ECEFE970-1BBB-4E0A-A452-CEB55884B4A3";
shapes = (
{
closed = 1;
nodes = (
(467,-5,o),
(569,102,o),
(635,296,c),
(626,234,o),
(619,185,o),
(619,148,cs),
(619,62,o),
(675,-5,o),
(790,-5,cs),
(864,-5,o),
(930,31,o),
(1000,116,cs),
(1017,137,o),
(1019,159,o),
(1019,178,cs),
(1019,205,o),
(1009,223,o),
(991,223,cs),
(983,223,o),
(974,221,o),
(964,209,cs),
(908,142,o),
(869,114,o),
(825,114,cs),
(785,114,o),
(757,141,o),
(757,198,cs),
(757,224,o),
(760,248,o),
(765,284,cs),
(793,510,o),
(834,684,o),
(834,759,cs),
(834,823,o),
(811,848,o),
(765,848,cs),
(710,848,o),
(700,818,o),
(692,757,cs),
(630,287,o),
(486,122,o),
(375,122,cs),
(330,122,o),
(306,151,o),
(306,192,cs),
(306,236,o),
(316,271,o),
(324,308,cs),
(365,491,ls),
(383,570,o),
(396,627,o),
(396,702,cs),
(396,801,o),
(345,848,o),
(266,848,cs),
(150,848,o),
(75,774,o),
(27,708,cs),
(6,679,o),
(-1,656,o),
(-1,638,cs),
(-1,603,o),
(35,573,o),
(65,613,cs),
(127,696,o),
(182,729,o),
(219,729,cs),
(239,729,o),
(254,715,o),
(254,681,cs),
(254,630,o),
(243,589,o),
(237,559,cs),
(175,273,ls),
(167,234,o),
(162,198,o),
(162,166,cs),
(162,67,o),
(215,-5,o),
(332,-5,cs)
);
}
);
width = 890;
}
);
metricLeft = N;
note = U;
unicode = 85;
},
{
color = 3;
glyphname = Uhorn;
kernLeft = U;
kernRight = N;
lastChange = "2016-08-02 11:49:09 +0000";
layers = (
{
anchors = (
{
name = bottom;
pos = (438,0);
},
{
name = ogonek;
pos = (868,10);
},
{
name = top;
pos = (533,840);
},
{
name = topright;
pos = (800,912);
}
);
background = {
shapes = (
{
closed = 1;
nodes = (
(1022,137,o),
(1024,159,o),
(1024,178,cs),
(1024,205,o),
(1014,223,o),
(996,223,cs),
(988,223,o),
(979,221,o),
(969,209,cs),
(913,142,o),
(874,114,o),
(830,114,cs),
(790,114,o),
(762,141,o),
(762,198,cs),
(762,224,o),
(765,248,o),
(770,284,cs),
(798,510,o),
(839,684,o),
(839,759,cs),
(839,823,o),
(816,848,o),
(770,848,cs),
(715,848,o),
(705,818,o),
(697,757,cs),
(635,287,o),
(491,122,o),
(380,122,cs),
(335,122,o),
(311,151,o),
(311,192,cs),
(311,236,o),
(321,271,o),
(329,308,cs),
(370,491,ls),
(388,570,o),
(401,627,o),
(401,702,cs),
(401,801,o),
(350,848,o),
(271,848,cs),
(155,848,o),
(80,774,o),
(32,708,cs),
(11,679,o),
(4,656,o),
(4,638,cs),
(4,603,o),
(40,573,o),
(70,613,cs),
(132,696,o),
(187,729,o),
(224,729,cs),
(244,729,o),
(259,715,o),
(259,681,cs),
(259,630,o),
(248,589,o),
(242,559,cs),
(180,273,ls),
(172,234,o),
(167,198,o),
(167,166,cs),
(167,67,o),
(220,-5,o),
(337,-5,cs),
(472,-5,o),
(574,102,o),
(640,296,c),
(631,234,o),
(624,185,o),
(624,148,cs),
(624,62,o),
(680,-5,o),
(795,-5,cs),
(869,-5,o),
(935,31,o),
(1005,116,cs)
);
},
{
closed = 1;
nodes = (
(904,726,o),
(983,804,o),
(996,919,cs),
(1002,972,o),
(976,997,o),
(938,997,cs),
(910,997,o),
(890,984,o),
(884,951,cs),
(871,881,o),
(848,840,o),
(796,840,c),
(774,726,l)
);
}
);
};
layerId = "ECEFE970-1BBB-4E0A-A452-CEB55884B4A3";
shapes = (
{
closed = 1;
nodes = (
(467,-5,o),
(569,102,o),
(635,296,c),
(626,234,o),
(619,185,o),
(619,148,cs),
(619,62,o),
(675,-5,o),
(790,-5,cs),
(864,-5,o),
(930,31,o),
(1000,116,cs),
(1017,137,o),
(1019,159,o),
(1019,178,cs),
(1019,205,o),
(1009,223,o),
(991,223,cs),
(983,223,o),
(974,221,o),
(964,209,cs),
(908,142,o),
(869,114,o),
(825,114,cs),
(785,114,o),
(757,141,o),
(757,198,cs),
(757,224,o),
(760,248,o),
(765,284,cs),
(790,487,o),
(826,648,o),
(833,733,c),
(925,755,o),
(980,824,o),
(991,919,cs),
(997,972,o),
(971,997,o),
(933,997,cs),
(905,997,o),
(885,984,o),
(879,951,cs),
(866,881,o),
(837,848,o),
(765,848,cs),
(710,848,o),
(700,818,o),
(692,757,cs),
(630,287,o),
(486,122,o),
(375,122,cs),
(330,122,o),
(306,151,o),
(306,192,cs),
(306,236,o),
(316,271,o),
(324,308,cs),
(365,491,ls),
(383,570,o),
(396,627,o),
(396,702,cs),
(396,801,o),
(345,848,o),
(266,848,cs),
(150,848,o),
(75,774,o),
(27,708,cs),
(6,679,o),
(-1,656,o),
(-1,638,cs),
(-1,603,o),
(35,573,o),
(65,613,cs),
(127,696,o),
(182,729,o),
(219,729,cs),
(239,729,o),
(254,715,o),
(254,681,cs),
(254,630,o),
(243,589,o),
(237,559,cs),
(175,273,ls),
(167,234,o),
(162,198,o),
(162,166,cs),
(162,67,o),
(215,-5,o),
(332,-5,cs)
);
}
);
width = 890;
}
);
metricLeft = U;
metricWidth = U;
unicode = 431;
},
{
color = 3;
glyphname = V;
kernLeft = V;
kernRight = V;
lastChange = "2023-11-08 03:21:26 +0000";
layers = (
{
anchors = (
{
name = bottom;
pos = (342,0);
},
{
name = top;
pos = (478,840);
}
);
background = {
shapes = (
{
closed = 1;
nodes = (
(564,-5,o),
(798,420,o),
(798,692,cs),
(798,800,o),
(744,864,o),
(659,864,cs),
(557,864,o),
(473,786,o),
(473,622,cs),
(473,442,o),
(593,321,o),
(859,329,c),
(889,432,l),
(662,432,o),
(574,489,o),
(574,629,cs),
(574,709,o),
(601,750,o),
(635,750,cs),
(658,750,o),
(676,728,o),
(676,669,cs),
(676,501,o),
(501,131,o),
(371,131,cs),
(303,131,o),
(269,240,o),
(269,443,cs),
(269,537,o),
(278,643,o),
(299,769,cs),
(308,822,o),
(287,848,o),
(235,848,cs),
(180,848,o),
(165,826,o),
(153,759,cs),
(133,647,o),
(128,540,o),
(128,443,cs),
(128,182,o),
(189,-5,o),
(334,-5,cs)
);
}
);
};
layerId = "ECEFE970-1BBB-4E0A-A452-CEB55884B4A3";
shapes = (
{
closed = 1;
nodes = (
(559,-5,o),
(793,420,o),
(793,692,cs),
(793,800,o),
(739,864,o),
(654,864,cs),
(552,864,o),
(468,786,o),
(468,622,cs),
(468,442,o),
(588,324,o),
(844,329,cs),
(893,330,o),
(908,367,o),
(908,396,cs),
(908,416,o),
(896,432,o),
(864,432,cs),
(661,432,o),
(569,489,o),
(569,629,cs),
(569,709,o),
(596,750,o),
(630,750,cs),
(653,750,o),
(671,728,o),
(671,669,cs),
(671,501,o),
(496,131,o),
(366,131,cs),
(298,131,o),
(264,240,o),
(264,443,cs),
(264,537,o),
(273,643,o),
(294,769,cs),
(303,822,o),
(282,848,o),
(230,848,cs),
(175,848,o),
(160,826,o),
(148,759,cs),
(128,647,o),
(123,540,o),
(123,443,cs),
(123,182,o),
(184,-5,o),
(329,-5,cs)
);
}
);
width = 763;
}
);
note = V;
unicode = 86;
},
{
color = 3;
glyphname = W;
kernLeft = V;
kernRight = V;
lastChange = "2023-11-07 16:54:13 +0000";
layers = (
{
anchors = (
{
name = bottom;
pos = (556,0);
},
{
name = top;
pos = (701,840);
}
);
background = {
shapes = (
{
closed = 1;
nodes = (
(1020,-5,o),
(1254,420,o),
(1254,692,cs),
(1254,800,o),
(1200,864,o),
(1115,864,cs),
(1013,864,o),
(929,786,o),
(929,622,cs),
(929,442,o),
(1049,321,o),
(1315,329,c),
(1345,432,l),
(1118,432,o),
(1030,489,o),
(1030,629,cs),
(1030,709,o),
(1057,750,o),
(1091,750,cs),
(1114,750,o),
(1132,728,o),
(1132,669,cs),
(1132,501,o),
(957,131,o),
(837,131,cs),
(752,131,o),
(738,241,o),
(738,443,cs),
(738,537,o),
(745,647,o),
(766,769,cs),
(775,822,o),
(759,848,o),
(708,848,c),
(657,759,l),
(588,411,o),
(594,-5,o),
(800,-5,cs)
);
},
{
closed = 1;
nodes = (
(482,-5,o),
(632,221,o),
(718,763,c),
(708,848,l),
(662,848,o),
(631,832,o),
(620,767,cs),
(548,341,o),
(420,131,o),
(354,131,cs),
(277,131,o),
(239,357,o),
(299,760,cs),
(310,833,o),
(278,848,o),
(238,848,cs),
(185,848,o),
(164,826,o),
(154,759,cs),
(92,341,o),
(139,-5,o),
(322,-5,cs)
);
}
);
};
layerId = "ECEFE970-1BBB-4E0A-A452-CEB55884B4A3";
shapes = (
{
closed = 1;
nodes = (
(1015,-5,o),
(1249,420,o),
(1249,692,cs),
(1249,800,o),
(1195,864,o),
(1110,864,cs),
(1008,864,o),
(924,786,o),
(924,622,cs),
(924,442,o),
(1044,324,o),
(1300,329,cs),
(1349,330,o),
(1364,367,o),
(1364,396,cs),
(1364,416,o),
(1352,432,o),
(1320,432,cs),
(1117,432,o),
(1025,489,o),
(1025,629,cs),
(1025,709,o),
(1052,750,o),
(1086,750,cs),
(1109,750,o),
(1127,728,o),
(1127,669,cs),
(1127,501,o),
(952,131,o),
(832,131,cs),
(747,131,o),
(733,241,o),
(733,443,cs),
(733,537,o),
(740,647,o),
(761,769,cs),
(770,822,o),
(754,848,o),
(703,848,c),
(652,759,l),
(583,411,o),
(589,-5,o),
(795,-5,cs)
);
},
{
closed = 1;
nodes = (
(477,-5,o),
(627,221,o),
(713,763,c),
(703,848,l),
(657,848,o),
(626,832,o),
(615,767,cs),
(543,341,o),
(415,131,o),
(349,131,cs),
(272,131,o),
(234,357,o),
(294,760,cs),
(305,833,o),
(273,848,o),
(233,848,cs),
(180,848,o),
(159,826,o),
(149,759,cs),
(87,341,o),
(134,-5,o),
(317,-5,cs)
);
}
);
width = 1219;
}
);
metricLeft = V;
metricRight = V;
note = W;
unicode = 87;
},
{
color = 3;
glyphname = X;
kernLeft = X;
kernRight = X;
lastChange = "2023-11-08 03:09:18 +0000";
layers = (
{
anchors = (
{
name = bottom;
pos = (317,0);
},
{
name = top;
pos = (476,840);
}
);
background = {
shapes = (
{
closed = 1;
nodes = (
(708,-5,o),
(770,49,o),
(827,116,c),
(795,209,l),
(736,142,o),
(691,114,o),
(649,114,cs),
(591,114,o),
(573,153,o),
(546,250,cs),
(431,660,ls),
(394,793,o),
(334,848,o),
(241,848,cs),
(145,848,o),
(84,796,o),
(38,742,cs),
(-30,663,o),
(37,611,o),
(72,649,cs),
(107,687,o),
(154,726,o),
(196,726,cs),
(241,726,o),
(279,693,o),
(311,578,cs),
(415,203,ls),
(448,84,o),
(495,-5,o),
(623,-5,cs)
);
},
{
closed = 1;
nodes = (
(86,-5,o),
(116,-1,o),
(145,35,cs),
(398,349,l),
(749,754,ls),
(798,811,o),
(776,847,o),
(718,847,cs),
(677,847,o),
(652,834,o),
(626,803,cs),
(365,486,l),
(19,92,ls),
(-40,25,o),
(1,-5,o),
(55,-5,cs)
);
}
);
};
guides = (
{
angle = -75.3543;
pos = (434,578);
}
);
layerId = "ECEFE970-1BBB-4E0A-A452-CEB55884B4A3";
shapes = (
{
closed = 1;
nodes = (
(703,-5,o),
(765,49,o),
(822,116,cs),
(839,137,o),
(841,159,o),
(841,178,cs),
(841,205,o),
(831,223,o),
(813,223,cs),
(805,223,o),
(796,221,o),
(786,209,cs),
(727,142,o),
(686,114,o),
(644,114,cs),
(586,114,o),
(568,153,o),
(541,250,cs),
(426,660,ls),
(389,793,o),
(329,848,o),
(236,848,cs),
(140,848,o),
(79,796,o),
(33,742,cs),
(-35,663,o),
(32,611,o),
(67,649,cs),
(102,687,o),
(149,726,o),
(191,726,cs),
(236,726,o),
(274,693,o),
(306,578,cs),
(410,203,ls),
(443,84,o),
(490,-5,o),
(618,-5,cs)
);
},
{
closed = 1;
nodes = (
(81,-5,o),
(111,-1,o),
(140,35,cs),
(393,349,l),
(744,754,ls),
(793,811,o),
(771,847,o),
(713,847,cs),
(672,847,o),
(647,834,o),
(621,803,cs),
(360,486,l),
(14,92,ls),
(-45,25,o),
(-4,-5,o),
(50,-5,cs)
);
}
);
width = 712;
}
);
note = X;
unicode = 88;
},
{
color = 3;
glyphname = Y;
kernLeft = Y;
kernRight = j;
lastChange = "2017-11-05 09:09:02 +0000";
layers = (
{
background = {
shapes = (
{
closed = 1;
nodes = (
(1640,257,o),
(1628,176,o),
(1609,37,cs),
(1582,-157,o),
(1517,-225,o),
(1435,-225,cs),
(1390,-225,o),
(1367,-194,o),
(1368,-158,cs),
(1371,-39,o),
(1549,53,o),
(1925,122,c),
(1913,224,l),
(1469,132,o),
(1246,3,o),
(1246,-183,cs),
(1246,-264,o),
(1305,-327,o),
(1420,-327,cs),
(1580,-327,o),
(1707,-213,o),
(1746,59,cs),
(1804,462,o),
(1830,622,o),
(1849,769,cs),
(1855,816,o),
(1832,848,o),
(1779,848,cs),
(1735,848,o),
(1705,828,o),
(1698,767,cs),
(1656,397,o),
(1521,232,o),
(1420,232,cs),
(1364,232,o),
(1344,261,o),
(1344,326,cs),
(1344,397,o),
(1406,566,o),
(1406,702,cs),
(1406,801,o),
(1355,848,o),
(1279,848,cs),
(1160,848,o),
(1085,774,o),
(1037,708,cs),
(1016,679,o),
(1009,656,o),
(1009,638,cs),
(1009,603,o),
(1045,573,o),
(1075,613,cs),
(1134,691,o),
(1187,724,o),
(1222,724,cs),
(1242,724,o),
(1257,715,o),
(1257,681,cs),
(1257,582,o),
(1194,406,o),
(1194,296,cs),
(1194,187,o),
(1253,105,o),
(1372,105,cs),
(1489,105,o),
(1591,185,o),
(1655,354,c)
);
},
{
closed = 1;
nodes = (
(472,-5,o),
(574,102,o),
(640,296,c),
(631,234,o),
(624,185,o),
(624,148,cs),
(624,62,o),
(680,-5,o),
(795,-5,cs),
(869,-5,o),
(935,31,o),
(1005,116,c),
(969,209,l),
(913,142,o),
(874,114,o),
(830,114,cs),
(790,114,o),
(762,141,o),
(762,198,cs),
(762,224,o),
(765,248,o),
(770,284,cs),
(801,510,o),
(839,684,o),
(839,759,cs),
(839,823,o),
(816,848,o),
(770,848,cs),
(715,848,o),
(705,818,o),
(697,757,cs),
(635,287,o),
(491,122,o),
(380,122,cs),
(335,122,o),
(311,151,o),
(311,192,cs),
(311,236,o),
(321,271,o),
(329,308,cs),
(370,491,ls),
(388,570,o),
(401,627,o),
(401,702,cs),
(401,801,o),
(350,848,o),
(271,848,cs),
(155,848,o),
(80,774,o),
(32,708,cs),
(11,679,o),
(4,656,o),
(4,638,cs),
(4,603,o),
(40,573,o),
(70,613,cs),
(132,696,o),
(187,729,o),
(224,729,cs),
(244,729,o),
(259,715,o),
(259,681,cs),
(259,630,o),
(248,589,o),
(242,559,cs),
(180,273,ls),
(172,234,o),
(167,198,o),
(167,166,cs),
(167,67,o),
(220,-5,o),
(337,-5,cs)
);
}
);
};
guides = (
{
pos = (400,-327);
}
);
layerId = "ECEFE970-1BBB-4E0A-A452-CEB55884B4A3";
shapes = (
{
closed = 1;
nodes = (
(575,-327,o),
(696,-213,o),
(735,59,cs),
(793,462,o),
(819,622,o),
(837,759,cs),
(844,816,o),
(821,848,o),
(768,848,cs),
(724,848,o),
(700,828,o),
(693,767,cs),
(651,397,o),
(516,231,o),
(415,231,cs),
(354,231,o),
(334,260,o),
(334,326,cs),
(334,397,o),
(396,566,o),
(396,702,cs),
(396,801,o),
(345,848,o),
(266,848,cs),
(150,848,o),
(75,774,o),
(27,708,cs),
(6,679,o),
(-1,656,o),
(-1,638,cs),
(-1,603,o),
(35,573,o),
(65,613,cs),
(127,696,o),
(182,729,o),
(217,729,cs),
(239,729,o),
(254,715,o),
(254,681,cs),
(254,582,o),
(191,406,o),
(191,296,cs),
(191,190,o),
(248,108,o),
(367,108,cs),
(484,108,o),
(586,185,o),
(650,354,c),
(635,257,o),
(623,176,o),
(604,37,cs),
(578,-157,o),
(512,-225,o),
(430,-225,cs),
(385,-225,o),
(362,-194,o),
(363,-158,cs),
(366,-39,o),
(544,53,o),
(917,121,cs),
(948,127,o),
(960,153,o),
(960,182,cs),
(960,221,o),
(940,232,o),
(908,224,cs),
(464,132,o),
(241,3,o),
(241,-183,cs),
(241,-264,o),
(300,-327,o),
(415,-327,cs)
);
}
);
width = 851;
}
);
metricLeft = N;
metricRight = j;
note = Y;
unicode = 89;
},
{
color = 0;
glyphname = Yhook;
lastChange = "2023-11-08 03:21:49 +0000";
layers = (
{
associatedMasterId = "ECEFE970-1BBB-4E0A-A452-CEB55884B4A3";
layerId = "EF226883-7708-4142-86A3-FB89EC85A568";
name = "Nov 2, 23, 17:10";
shapes = (
{
closed = 1;
nodes = (
(575,-327,o),
(696,-213,o),
(735,59,cs),
(793,462,o),
(819,622,o),
(837,759,cs),
(844,816,o),
(821,848,o),
(768,848,cs),
(724,848,o),
(700,828,o),
(693,767,cs),
(651,397,o),
(516,231,o),
(415,231,cs),
(354,231,o),
(334,260,o),
(334,326,cs),
(334,397,o),
(396,566,o),
(396,702,cs),
(396,801,o),
(345,848,o),
(266,848,cs),
(150,848,o),
(75,774,o),
(27,708,cs),
(6,679,o),
(-1,656,o),
(-1,638,cs),
(-1,603,o),
(35,573,o),
(65,613,cs),
(127,696,o),
(182,729,o),
(217,729,cs),
(239,729,o),
(254,715,o),
(254,681,cs),
(254,582,o),
(191,406,o),
(191,296,cs),
(191,190,o),
(248,108,o),
(367,108,cs),
(484,108,o),
(586,185,o),
(650,354,c),
(635,257,o),
(623,176,o),
(604,37,cs),
(578,-157,o),
(512,-225,o),
(430,-225,cs),
(385,-225,o),
(362,-194,o),
(363,-158,cs),
(366,-39,o),
(544,53,o),
(917,121,cs),
(948,127,o),
(960,153,o),
(960,182,cs),
(960,221,o),
(940,232,o),
(908,224,cs),
(464,132,o),
(241,3,o),
(241,-183,cs),
(241,-264,o),
(300,-327,o),
(415,-327,cs)
);
}
);
width = 600;
},
{
associatedMasterId = "ECEFE970-1BBB-4E0A-A452-CEB55884B4A3";
layerId = "DE562AFB-2E0C-40EF-BCE7-ADFB7BD35042";
name = "Nov 2, 23, 17:11";
shapes = (
{
closed = 1;
nodes = (
(666,-327,o),
(787,-213,o),
(826,59,cs),
(884,462,o),
(910,622,o),
(928,759,cs),
(935,816,o),
(912,848,o),
(859,848,cs),
(815,848,o),
(791,828,o),
(784,767,cs),
(742,397,o),
(607,231,o),
(506,231,cs),
(445,231,o),
(425,260,o),
(425,326,cs),
(425,397,o),
(487,566,o),
(487,702,cs),
(487,801,o),
(436,848,o),
(357,848,cs),
(241,848,o),
(166,774,o),
(118,708,cs),
(97,679,o),
(90,656,o),
(90,638,cs),
(90,603,o),
(126,573,o),
(156,613,cs),
(218,696,o),
(273,729,o),
(308,729,cs),
(330,729,o),
(345,715,o),
(345,681,cs),
(345,582,o),
(282,406,o),
(282,296,cs),
(282,190,o),
(339,108,o),
(458,108,cs),
(575,108,o),
(677,185,o),
(741,354,c),
(726,257,o),
(714,176,o),
(695,37,cs),
(669,-157,o),
(603,-225,o),
(521,-225,cs),
(476,-225,o),
(453,-194,o),
(454,-158,cs),
(457,-39,o),
(635,53,o),
(1008,121,cs),
(1039,127,o),
(1051,153,o),
(1051,182,cs),
(1051,221,o),
(1031,232,o),
(999,224,cs),
(555,132,o),
(332,3,o),
(332,-183,cs),
(332,-264,o),
(391,-327,o),
(506,-327,cs)
);
},
{
closed = 0;
nodes = (
(326,828,l),
(172,796,o),
(86,729,o),
(86,613,cs),
(86,558,o),
(106,515,o),
(120,503,cs),
(168,462,o),
(253,506,o),
(225,550,cs),
(216,564,o),
(205,587,o),
(205,615,cs),
(205,668,o),
(239,700,o),
(337,716,c)
);
}
);
width = 691;
},
{
associatedMasterId = "ECEFE970-1BBB-4E0A-A452-CEB55884B4A3";
layerId = "71FA96B0-BC2C-41EA-91DB-979436FD8BD0";
name = "Nov 2, 23, 17:21";
shapes = (
{
closed = 1;
nodes = (
(623,371,o),
(507,231,o),
(415,231,cs),
(354,231,o),
(334,260,o),
(334,326,cs),
(334,397,o),
(396,566,o),
(396,702,cs),
(396,801,o),
(345,848,o),
(266,848,cs),
(150,848,o),
(75,774,o),
(27,708,cs),
(6,679,o),
(-1,656,o),
(-1,638,cs),
(-1,603,o),
(35,573,o),
(65,613,cs),
(127,696,o),
(182,729,o),
(217,729,cs),
(239,729,o),
(254,715,o),
(254,681,cs),
(254,582,o),
(191,406,o),
(191,296,cs),
(191,190,o),
(248,108,o),
(367,108,cs),
(484,108,o),
(586,185,o),
(650,354,c),
(635,257,o),
(623,176,o),
(604,37,cs),
(578,-157,o),
(512,-225,o),
(430,-225,cs),
(385,-225,o),
(362,-194,o),
(363,-158,cs),
(366,-39,o),
(544,53,o),
(917,121,cs),
(948,127,o),
(960,153,o),
(960,182,cs),
(960,221,o),
(940,232,o),
(908,224,cs),
(464,132,o),
(241,3,o),
(241,-183,cs),
(241,-264,o),
(300,-327,o),
(415,-327,cs),
(575,-327,o),
(696,-213,o),
(735,59,cs),
(779,366,o),
(802,533,o),
(822,654,cs),
(829,693,o),
(849,729,o),
(881,729,cs),
(919,729,o),
(961,692,o),
(961,615,cs),
(961,587,o),
(950,564,o),
(941,550,cs),
(913,506,o),
(998,462,o),
(1046,503,cs),
(1060,515,o),
(1080,558,o),
(1080,613,cs),
(1080,828,o),
(744,1018,o),
(680,676,cs)
);
}
);
width = 971;
},
{
layerId = "ECEFE970-1BBB-4E0A-A452-CEB55884B4A3";
name = Regular;
shapes = (
{
closed = 1;
nodes = (
(337,850,o),
(261,850,cs),
(146,850,o),
(-1,749,o),
(-1,613,cs),
(-1,552,o),
(18,487,o),
(79,487,cs),
(120,487,o),
(158,518,o),
(138,550,cs),
(129,564,o),
(118,587,o),
(118,615,cs),
(118,692,o),
(160,729,o),
(198,729,cs),
(230,729,o),
(258,704,o),
(258,656,cs),
(258,582,o),
(195,406,o),
(195,296,cs),
(195,190,o),
(252,108,o),
(371,108,cs),
(488,108,o),
(590,185,o),
(654,354,c),
(639,257,o),
(627,176,o),
(608,37,cs),
(582,-157,o),
(516,-225,o),
(434,-225,cs),
(389,-225,o),
(366,-194,o),
(367,-158,cs),
(370,-39,o),
(548,53,o),
(921,121,cs),
(952,127,o),
(964,153,o),
(964,182,cs),
(964,221,o),
(944,232,o),
(912,224,cs),
(468,132,o),
(245,3,o),
(245,-183,cs),
(245,-264,o),
(304,-327,o),
(419,-327,cs),
(579,-327,o),
(700,-213,o),
(739,59,cs),
(797,462,o),
(823,622,o),
(841,759,cs),
(848,816,o),
(825,848,o),
(772,848,cs),
(728,848,o),
(704,828,o),
(697,767,cs),
(655,397,o),
(520,231,o),
(419,231,cs),
(358,231,o),
(338,260,o),
(338,326,cs),
(338,397,o),
(400,566,o),
(400,702,cs),
(400,807,o)
);
}
);
width = 855;
}
);
metricLeft = N;
metricRight = j;
unicode = 435;
},
{
color = 3;
glyphname = Z;
kernLeft = Z;
kernRight = Z;
lastChange = "2016-08-03 22:37:12 +0000";
layers = (
{
anchors = (
{
name = bottom;
pos = (360,0);
},
{
name = top;
pos = (450,840);
}
);
background = {
shapes = (
{
closed = 1;
nodes = (
(236,-5,o),
(307,65,o),
(504,353,cs),
(602,496,o),
(678,617,o),
(752,739,c),
(595,748,l),
(489,562,o),
(364,375,o),
(214,189,c),
(194,181,l),
(184,181,l),
(184,200,l),
(84,200,o),
(20,149,o),
(20,87,cs),
(20,32,o),
(67,-5,o),
(141,-5,cs)
);
},
{
closed = 1;
nodes = (
(178,489,o),
(208,508,o),
(208,536,cs),
(208,556,o),
(183,576,o),
(183,619,cs),
(183,694,o),
(251,729,o),
(405,729,cs),
(577,729,o),
(657,691,o),
(730,691,cs),
(764,691,o),
(783,712,o),
(783,748,cs),
(783,775,o),
(776,796,o),
(733,808,cs),
(630,837,o),
(510,846,o),
(417,846,cs),
(219,846,o),
(64,781,o),
(64,617,cs),
(64,566,o),
(82,526,o),
(106,504,cs),
(117,494,o),
(132,489,o),
(147,489,cs)
);
},
{
closed = 1;
nodes = (
(819,223,o),
(810,221,o),
(800,209,cs),
(752,153,o),
(700,127,o),
(622,127,cs),
(537,127,o),
(372,200,o),
(184,200,c),
(138,110,l),
(347,110,o),
(436,-5,o),
(601,-5,cs),
(698,-5,o),
(761,25,o),
(836,116,cs),
(853,137,o),
(855,159,o),
(855,178,cs),
(855,205,o),
(845,223,o),
(827,223,cs)
);
}
);
};
layerId = "ECEFE970-1BBB-4E0A-A452-CEB55884B4A3";
shapes = (
{
closed = 1;
nodes = (
(231,-5,o),
(302,65,o),
(499,353,cs),
(597,496,o),
(673,617,o),
(747,739,c),
(594,748,l),
(488,562,o),
(363,375,o),
(213,189,c),
(189,181,l),
(179,181,l),
(179,200,l),
(79,200,o),
(15,149,o),
(15,87,cs),
(15,32,o),
(62,-5,o),
(136,-5,cs)
);
},
{
closed = 1;
nodes = (
(693,-5,o),
(756,25,o),
(831,116,cs),
(848,137,o),
(850,159,o),
(850,178,cs),
(850,205,o),
(840,223,o),
(822,223,cs),
(814,223,o),
(805,221,o),
(795,209,cs),
(747,153,o),
(695,127,o),
(617,127,cs),
(532,127,o),
(367,200,o),
(179,200,c),
(133,110,l),
(342,110,o),
(431,-5,o),
(596,-5,cs)
);
},
{
closed = 1;
nodes = (
(173,489,o),
(203,508,o),
(203,536,cs),
(203,556,o),
(178,576,o),
(178,619,cs),
(178,694,o),
(246,729,o),
(400,729,cs),
(572,729,o),
(652,691,o),
(725,691,cs),
(759,691,o),
(778,712,o),
(778,748,cs),
(778,775,o),
(771,796,o),
(728,808,cs),
(625,837,o),
(505,846,o),
(412,846,cs),
(214,846,o),
(59,781,o),
(59,617,cs),
(59,566,o),
(77,526,o),
(101,504,cs),
(112,494,o),
(127,489,o),
(142,489,cs)
);
}
);
width = 721;
}
);
note = Z;
unicode = 90;
},
{
color = 5;
glyphname = A.ss01;
kernLeft = O;
kernRight = A_ss01;
lastChange = "2023-11-07 16:54:13 +0000";
layers = (
{
anchors = (
{
name = bottom;
pos = (392,0);
},
{
name = ogonek;
pos = (611,10);
},
{
name = top;
pos = (600,840);
}
);
background = {
shapes = (
{
closed = 1;
nodes = (
(442,-4,o),
(518,82,o),
(561,237,c),
(563,437,l),
(505,211,o),
(445,113,o),
(341,113,cs),
(268,113,o),
(217,163,o),
(217,290,cs),
(217,514,o),
(346,732,o),
(622,732,cs),
(669,732,o),
(706,728,o),
(752,719,cs),
(843,701,o),
(871,805,o),
(810,824,cs),
(754,841,o),
(691,848,o),
(634,848,cs),
(259,848,o),
(69,576,o),
(69,280,cs),
(69,75,o),
(198,-4,o),
(314,-4,cs)
);
},
{
closed = 1;
nodes = (
(623,-5,o),
(655,14,o),
(658,45,cs),
(663,94,l),
(669,231,o),
(710,493,o),
(749,611,cs),
(751,617,o),
(752,623,o),
(752,628,cs),
(752,661,o),
(721,672,o),
(691,672,cs),
(654,672,o),
(619,659,o),
(610,623,cs),
(563,437,l),
(546,347,o),
(526,172,o),
(515,60,cs),
(511,21,o),
(529,-5,o),
(581,-5,cs)
);
}
);
};
guides = (
{
angle = 255.7189;
pos = (572,568);
}
);
layerId = "ECEFE970-1BBB-4E0A-A452-CEB55884B4A3";
shapes = (
{
closed = 1;
nodes = (
(437,-4,o),
(513,82,o),
(556,237,c),
(558,437,l),
(500,211,o),
(440,113,o),
(336,113,cs),
(263,113,o),
(212,163,o),
(212,290,cs),
(212,514,o),
(341,732,o),
(617,732,cs),
(664,732,o),
(701,728,o),
(747,719,cs),
(838,701,o),
(866,805,o),
(805,824,cs),
(749,841,o),
(686,848,o),
(629,848,cs),
(254,848,o),
(64,576,o),
(64,280,cs),
(64,75,o),
(193,-4,o),
(309,-4,cs)
);
},
{
closed = 1;
nodes = (
(618,-5,o),
(650,14,o),
(653,45,cs),
(658,94,l),
(664,231,o),
(705,493,o),
(744,611,cs),
(746,617,o),
(747,623,o),
(747,628,cs),
(747,661,o),
(716,672,o),
(686,672,cs),
(649,672,o),
(614,659,o),
(605,623,cs),
(558,437,l),
(541,347,o),
(521,172,o),
(510,60,cs),
(506,21,o),
(524,-5,o),
(576,-5,cs)
);
}
);
width = 788;
}
);
metricLeft = O;
note = A;
},
{
color = 5;
glyphname = Aringacute.ss01;
kernLeft = O;
kernRight = A_ss01;
lastChange = "2016-08-05 10:27:22 +0000";
layers = (
{
layerId = "ECEFE970-1BBB-4E0A-A452-CEB55884B4A3";
shapes = (
{
closed = 1;
nodes = (
(684,912,o),
(752,966,o),
(752,1060,cs),
(752,1146,o),
(689,1192,o),
(623,1192,cs),
(550,1192,o),
(482,1138,o),
(482,1044,cs),
(482,958,o),
(545,912,o),
(611,912,cs)
);
},
{
closed = 1;
nodes = (
(593,1000,o),
(571,1018,o),
(571,1049,cs),
(571,1083,o),
(594,1104,o),
(619,1104,cs),
(641,1104,o),
(663,1086,o),
(663,1055,cs),
(663,1021,o),
(640,1000,o),
(615,1000,cs)
);
},
{
closed = 1;
nodes = (
(799,1127,o),
(806,1128,o),
(812,1131,cs),
(929,1183,ls),
(961,1197,o),
(974,1222,o),
(974,1243,cs),
(974,1272,o),
(949,1297,o),
(919,1297,cs),
(908,1297,o),
(894,1293,o),
(882,1282,cs),
(778,1188,ls),
(767,1178,o),
(762,1168,o),
(762,1158,cs),
(762,1141,o),
(775,1127,o),
(794,1127,cs)
);
},
{
ref = A.ss01;
}
);
width = 780;
}
);
},
{
color = 5;
glyphname = AE.ss01;
kernLeft = O;
kernRight = AE_ss01;
lastChange = "2023-11-07 16:54:13 +0000";
layers = (
{
anchors = (
{
name = bottom;
pos = (584,0);
},
{
name = top;
pos = (711,840);
}
);
background = {
shapes = (
{
closed = 1;
nodes = (
(1057,38,o),
(1069,61,o),
(1069,98,cs),
(1069,126,o),
(1056,155,o),
(1010,144,cs),
(956,130,o),
(927,121,o),
(865,121,cs),
(708,121,o),
(668,212,o),
(702,361,c),
(811,363,o),
(879,366,o),
(957,368,cs),
(1000,369,o),
(1023,401,o),
(1023,441,cs),
(1023,471,o),
(1012,490,o),
(970,490,cs),
(899,490,o),
(815,486,o),
(726,483,c),
(742,556,o),
(764,648,o),
(784,710,c),
(825,713,o),
(969,720,o),
(1021,720,cs),
(1073,720,o),
(1093,759,o),
(1093,795,cs),
(1093,832,o),
(1078,849,o),
(1029,849,cs),
(953,849,o),
(833,842,o),
(779,840,cs),
(712,837,o),
(661,801,o),
(641,727,cs),
(560,431,l),
(551,264,l),
(545,121,o),
(627,-5,o),
(852,-5,cs),
(909,-5,o),
(963,4,o),
(1010,21,cs)
);
},
{
closed = 1;
nodes = (
(438,-5,o),
(533,64,o),
(587,237,c),
(683,626,l),
(560,431,l),
(512,257,o),
(458,116,o),
(337,116,cs),
(271,116,o),
(220,177,o),
(220,290,cs),
(220,514,o),
(340,698,o),
(572,726,cs),
(599,729,o),
(610,750,o),
(610,779,cs),
(610,821,o),
(591,850,o),
(524,842,cs),
(260,810,o),
(69,576,o),
(69,280,cs),
(69,100,o),
(175,-5,o),
(325,-5,cs)
);
}
);
};
guides = (
{
angle = 254.6088;
pos = (1046,602);
}
);
layerId = "ECEFE970-1BBB-4E0A-A452-CEB55884B4A3";
shapes = (
{
closed = 1;
nodes = (
(433,-5,o),
(528,64,o),
(582,237,c),
(678,626,l),
(558,431,l),
(510,257,o),
(453,112,o),
(332,112,cs),
(262,112,o),
(211,174,o),
(211,290,cs),
(211,514,o),
(331,704,o),
(567,730,cs),
(594,733,o),
(605,754,o),
(605,780,cs),
(605,821,o),
(586,850,o),
(519,842,cs),
(255,810,o),
(64,576,o),
(64,280,cs),
(64,100,o),
(170,-5,o),
(320,-5,cs)
);
},
{
closed = 1;
nodes = (
(899,-5,o),
(957,4,o),
(1008,22,cs),
(1052,38,o),
(1064,61,o),
(1064,97,cs),
(1064,126,o),
(1051,155,o),
(998,139,cs),
(953,125,o),
(912,115,o),
(870,115,cs),
(701,115,o),
(660,212,o),
(694,361,c),
(803,363,o),
(857,366,o),
(952,368,cs),
(995,369,o),
(1018,401,o),
(1018,441,cs),
(1018,471,o),
(1007,490,o),
(965,490,cs),
(887,490,o),
(807,486,o),
(718,483,c),
(734,556,o),
(756,650,o),
(776,710,c),
(817,715,o),
(924,720,o),
(1016,720,cs),
(1068,720,o),
(1088,759,o),
(1088,795,cs),
(1088,832,o),
(1073,849,o),
(1024,849,cs),
(928,849,o),
(858,844,o),
(774,840,cs),
(707,837,o),
(659,801,o),
(639,727,cs),
(558,431,l),
(549,264,l),
(543,121,o),
(625,-5,o),
(847,-5,cs)
);
}
);
width = 1065;
}
);
metricLeft = A.ss01;
note = AE;
},
{
color = 5;
glyphname = B.ss01;
kernLeft = I_ss01;
kernRight = B_ss01;
lastChange = "2023-11-07 16:54:13 +0000";
layers = (
{
background = {
shapes = (
{
closed = 1;
nodes = (
(185,816,o),
(159,789,o),
(159,748,cs),
(159,719,o),
(181,698,o),
(207,705,cs),
(292,728,o),
(370,744,o),
(451,744,cs),
(586,744,o),
(654,692,o),
(654,623,cs),
(654,529,o),
(543,471,o),
(430,468,cs),
(385,467,o),
(375,438,o),
(374,406,cs),
(373,375,o),
(380,364,o),
(410,363,cs),
(551,359,o),
(587,307,o),
(587,256,cs),
(587,179,o),
(514,112,o),
(323,112,cs),
(272,112,o),
(254,113,o),
(230,115,c),
(237,227,o),
(282,472,o),
(319,582,cs),
(324,597,o),
(325,603,o),
(325,614,cs),
(325,641,o),
(298,650,o),
(261,650,cs),
(214,650,o),
(186,639,o),
(176,603,cs),
(123,411,o),
(97,262,o),
(83,76,cs),
(80,37,o),
(98,19,o),
(150,13,cs),
(201,7,o),
(230,3,o),
(319,3,cs),
(586,3,o),
(738,104,o),
(738,261,cs),
(738,347,o),
(680,399,o),
(549,419,c),
(546,400,l),
(715,432,o),
(807,517,o),
(807,640,cs),
(807,765,o),
(690,862,o),
(472,862,cs),
(349,862,o),
(283,844,o),
(219,826,cs)
);
}
);
};
layerId = "ECEFE970-1BBB-4E0A-A452-CEB55884B4A3";
shapes = (
{
closed = 1;
nodes = (
(581,3,o),
(733,104,o),
(733,261,cs),
(733,347,o),
(675,399,o),
(544,419,c),
(541,400,l),
(710,432,o),
(802,517,o),
(802,640,cs),
(802,765,o),
(685,862,o),
(467,862,cs),
(344,862,o),
(278,844,o),
(214,826,cs),
(180,816,o),
(154,793,o),
(154,752,cs),
(154,723,o),
(176,702,o),
(202,709,cs),
(287,732,o),
(365,748,o),
(446,748,cs),
(585,748,o),
(653,696,o),
(653,623,cs),
(653,529,o),
(542,471,o),
(425,468,cs),
(380,467,o),
(370,438,o),
(369,406,cs),
(368,375,o),
(375,364,o),
(405,363,cs),
(549,359,o),
(585,307,o),
(585,256,cs),
(585,179,o),
(512,112,o),
(318,112,cs),
(267,112,o),
(245,113,o),
(221,117,c),
(228,227,o),
(273,472,o),
(307,582,cs),
(312,597,o),
(313,603,o),
(313,614,cs),
(313,641,o),
(286,650,o),
(252,650,cs),
(205,650,o),
(181,639,o),
(171,603,cs),
(118,411,o),
(92,262,o),
(78,76,cs),
(75,37,o),
(93,19,o),
(145,13,cs),
(196,7,o),
(245,3,o),
(314,3,cs)
);
}
);
width = 818;
}
);
metricLeft = I.ss01;
note = B;
},
{
glyphname = Bhook.ss01;
lastChange = "2023-11-02 16:15:32 +0000";
layers = (
{
layerId = "ECEFE970-1BBB-4E0A-A452-CEB55884B4A3";
shapes = (
{
closed = 1;
nodes = (
(734,862,o),
(534,862,cs),
(309,862,o),
(70,775,o),
(70,610,cs),
(70,515,o),
(111,484,o),
(149,484,cs),
(190,484,o),
(227,520,o),
(205,554,cs),
(200,562,o),
(189,585,o),
(189,609,cs),
(189,693,o),
(366,748,o),
(526,748,cs),
(656,748,o),
(774,712,o),
(774,623,cs),
(774,529,o),
(663,471,o),
(546,468,cs),
(501,467,o),
(491,438,o),
(490,406,cs),
(489,375,o),
(496,364,o),
(526,363,cs),
(670,359,o),
(706,307,o),
(706,256,cs),
(706,179,o),
(633,112,o),
(439,112,cs),
(388,112,o),
(366,113,o),
(342,117,c),
(349,227,o),
(394,472,o),
(428,582,cs),
(433,597,o),
(434,603,o),
(434,614,cs),
(434,641,o),
(407,650,o),
(373,650,cs),
(326,650,o),
(302,639,o),
(292,603,cs),
(239,411,o),
(213,262,o),
(199,76,cs),
(196,37,o),
(214,19,o),
(266,13,cs),
(317,7,o),
(366,3,o),
(435,3,cs),
(702,3,o),
(854,104,o),
(854,261,cs),
(854,347,o),
(796,399,o),
(665,419,c),
(662,400,l),
(831,432,o),
(923,517,o),
(923,640,cs),
(923,794,o)
);
}
);
width = 939;
},
{
associatedMasterId = "ECEFE970-1BBB-4E0A-A452-CEB55884B4A3";
layerId = "FC683435-7035-4011-99B4-73FC1901B5A1";
name = "Nov 2, 23, 11:38";
shapes = (
{
closed = 1;
nodes = (
(607,3,o),
(759,104,o),
(759,261,cs),
(759,338,o),
(702,402,o),
(582,414,c),
(581,395,l),
(770,423,o),
(868,516,o),
(868,640,cs),
(868,765,o),
(762,862,o),
(509,862,cs),
(352,862,o),
(193,825,o),
(81,760,cs),
(23,726,o),
(20,704,o),
(20,676,cs),
(20,642,o),
(44,611,o),
(111,651,cs),
(197,702,o),
(336,748,o),
(488,748,cs),
(652,748,o),
(720,696,o),
(720,623,cs),
(720,529,o),
(609,471,o),
(468,468,cs),
(423,467,o),
(413,438,o),
(412,406,cs),
(411,377,o),
(420,364,o),
(448,363,cs),
(576,359,o),
(611,307,o),
(611,256,cs),
(611,179,o),
(539,112,o),
(340,112,cs),
(296,112,o),
(248,117,o),
(223,119,c),
(221,9,l),
(239,7,o),
(277,3,o),
(336,3,cs)
);
},
{
closed = 1;
nodes = (
(219,-50,o),
(256,-33,o),
(256,8,cs),
(256,15,o),
(258,39,o),
(258,47,cs),
(265,227,o),
(314,472,o),
(351,582,cs),
(356,597,o),
(357,603,o),
(357,614,cs),
(357,641,o),
(330,648,o),
(296,648,cs),
(255,648,o),
(223,639,o),
(213,603,cs),
(160,411,o),
(124,199,o),
(112,13,cs),
(109,-26,o),
(122,-50,o),
(173,-50,cs)
);
},
{
closed = 0;
nodes = (
(476,847,ls),
(161,847,o),
(-24,781,o),
(-24,611,cs),
(-24,556,o),
(-4,513,o),
(10,501,cs),
(58,460,o),
(143,504,o),
(115,548,cs),
(106,562,o),
(95,585,o),
(95,613,cs),
(95,698,o),
(183,728,o),
(476,728,cs)
);
}
);
width = 827;
},
{
associatedMasterId = "ECEFE970-1BBB-4E0A-A452-CEB55884B4A3";
layerId = "DBA3AF44-F581-41B9-A558-360DD164B723";
name = "Nov 2, 23, 11:39";
shapes = (
{
closed = 1;
nodes = (
(219,-50,o),
(256,-33,o),
(256,8,cs),
(256,15,o),
(258,39,o),
(258,47,cs),
(265,227,o),
(314,472,o),
(351,582,cs),
(356,597,o),
(357,603,o),
(357,614,cs),
(357,641,o),
(330,648,o),
(296,648,cs),
(255,648,o),
(223,639,o),
(213,603,cs),
(160,411,o),
(124,199,o),
(112,13,cs),
(109,-26,o),
(122,-50,o),
(173,-50,cs)
);
},
{
closed = 1;
nodes = (
(154,862,o),
(-24,781,o),
(-24,611,cs),
(-24,556,o),
(-4,513,o),
(10,501,cs),
(58,460,o),
(143,504,o),
(115,548,cs),
(106,562,o),
(95,585,o),
(95,613,cs),
(95,698,o),
(195,748,o),
(488,748,cs),
(652,748,o),
(720,696,o),
(720,623,cs),
(720,529,o),
(609,471,o),
(468,468,cs),
(423,467,o),
(413,438,o),
(412,406,cs),
(411,377,o),
(420,364,o),
(448,363,cs),
(576,359,o),
(611,307,o),
(611,256,cs),
(611,179,o),
(539,112,o),
(340,112,cs),
(296,112,o),
(248,117,o),
(223,119,c),
(221,9,l),
(239,7,o),
(277,3,o),
(336,3,cs),
(607,3,o),
(759,104,o),
(759,261,cs),
(759,338,o),
(702,402,o),
(582,414,c),
(581,395,l),
(770,423,o),
(868,516,o),
(868,640,cs),
(868,765,o),
(722,862,o),
(469,862,cs)
);
}
);
width = 827;
},
{
associatedMasterId = "ECEFE970-1BBB-4E0A-A452-CEB55884B4A3";
layerId = "CB00B515-6899-4773-BD3F-456A8CB1E1C3";
name = "Nov 2, 23, 11:41";
shapes = (
{
closed = 1;
nodes = (
(219,-50,o),
(256,-33,o),
(256,6,cs),
(256,15,o),
(258,39,o),
(259,66,cs),
(265,227,o),
(314,472,o),
(350,578,cs),
(356,597,o),
(357,603,o),
(357,609,cs),
(357,641,o),
(330,648,o),
(295,648,cs),
(255,648,o),
(223,639,o),
(189,517,cs),
(160,411,o),
(124,199,o),
(116,75,cs),
(109,-26,o),
(122,-50,o),
(175,-50,cs)
);
},
{
closed = 1;
nodes = (
(651,862,o),
(431,862,cs),
(205,862,o),
(-24,785,o),
(-24,610,cs),
(-24,415,o),
(153,489,o),
(111,554,cs),
(106,562,o),
(95,585,o),
(95,609,cs),
(95,704,o),
(270,747,o),
(438,747,cs),
(582,747,o),
(720,715,o),
(720,617,cs),
(720,529,o),
(609,471,o),
(501,469,cs),
(423,467,o),
(413,438,o),
(412,408,cs),
(411,377,o),
(420,364,o),
(472,362,cs),
(576,359,o),
(611,307,o),
(611,254,cs),
(611,179,o),
(539,112,o),
(348,112,cs),
(296,112,o),
(248,117,o),
(223,119,c),
(221,9,l),
(239,7,o),
(277,3,o),
(332,3,cs),
(607,3,o),
(759,104,o),
(759,249,cs),
(759,338,o),
(702,402,o),
(582,414,c),
(581,395,l),
(770,423,o),
(868,516,o),
(868,626,cs),
(868,789,o)
);
}
);
width = 827;
}
);
metricRight = "=16";
},
{
color = 5;
glyphname = C.ss01;
kernLeft = O;
kernRight = C_ss01;
lastChange = "2023-11-07 16:54:13 +0000";
layers = (
{
anchors = (
{
name = bottom;
pos = (384,0);
},
{
name = top;
pos = (480,840);
}
);
background = {
shapes = (
{
closed = 1;
nodes = (
(298,121,o),
(220,189,o),
(220,367,cs),
(220,606,o),
(352,730,o),
(476,730,cs),
(542,730,o),
(569,694,o),
(569,643,cs),
(569,619,o),
(559,584,o),
(559,562,cs),
(559,528,o),
(583,510,o),
(619,510,cs),
(677,510,o),
(706,567,o),
(706,646,cs),
(706,762,o),
(635,848,o),
(486,848,cs),
(261,848,o),
(69,649,o),
(69,350,cs),
(69,114,o),
(211,-5,o),
(399,-5,cs),
(496,-5,o),
(599,34,o),
(680,121,cs),
(731,175,o),
(705,273,o),
(643,218,cs),
(568,152,o),
(499,121,o),
(419,121,cs)
);
}
);
};
layerId = "ECEFE970-1BBB-4E0A-A452-CEB55884B4A3";
shapes = (
{
closed = 1;
nodes = (
(491,-5,o),
(594,34,o),
(675,121,cs),
(726,175,o),
(699,275,o),
(638,218,cs),
(563,148,o),
(494,117,o),
(414,117,cs),
(289,117,o),
(211,185,o),
(211,367,cs),
(211,606,o),
(343,734,o),
(471,734,cs),
(541,734,o),
(568,698,o),
(568,643,cs),
(568,619,o),
(558,584,o),
(558,562,cs),
(558,528,o),
(582,510,o),
(618,510,cs),
(672,510,o),
(701,567,o),
(701,646,cs),
(701,762,o),
(630,848,o),
(481,848,cs),
(256,848,o),
(64,649,o),
(64,350,cs),
(64,114,o),
(206,-5,o),
(394,-5,cs)
);
}
);
width = 703;
}
);
metricLeft = O;
note = C;
},
{
color = 5;
glyphname = D.ss01;
kernLeft = I_ss01;
kernRight = O;
lastChange = "2023-11-07 16:54:13 +0000";
layers = (
{
anchors = (
{
name = bottom;
pos = (341,0);
},
{
name = center;
pos = (428,420);
},
{
name = top;
pos = (451,840);
}
);
layerId = "ECEFE970-1BBB-4E0A-A452-CEB55884B4A3";
shapes = (
{
closed = 1;
nodes = (
(605,-5,o),
(791,194,o),
(791,494,cs),
(791,714,o),
(654,860,o),
(415,860,cs),
(350,860,o),
(289,850,o),
(244,834,cs),
(175,810,o),
(157,792,o),
(157,749,cs),
(157,722,o),
(170,697,o),
(223,714,cs),
(304,740,o),
(352,746,o),
(404,746,cs),
(539,746,o),
(644,665,o),
(644,489,cs),
(644,272,o),
(540,108,o),
(296,108,cs),
(280,108,o),
(255,109,o),
(229,111,c),
(244,279,o),
(283,479,o),
(315,582,cs),
(320,597,o),
(321,603,o),
(321,614,cs),
(321,642,o),
(294,650,o),
(260,650,cs),
(221,650,o),
(189,639,o),
(179,603,cs),
(126,411,o),
(93,199,o),
(83,78,cs),
(79,29,o),
(98,12,o),
(151,5,cs),
(202,-2,o),
(231,-5,o),
(282,-5,cs)
);
}
);
width = 809;
}
);
metricRight = O;
note = D;
},
{
color = 5;
glyphname = E.ss01;
kernLeft = E_ss01;
kernRight = E_ss01;
lastChange = "2017-10-24 10:28:43 +0000";
layers = (
{
anchors = (
{
name = bottom;
pos = (351,0);
},
{
name = ogonek;
pos = (485,10);
},
{
name = top;
pos = (458,840);
},
{
name = topleft;
pos = (43,840);
}
);
background = {
shapes = (
{
closed = 1;
nodes = (
(265,119,o),
(199,164,o),
(199,240,cs),
(199,309,o),
(253,382,o),
(423,386,cs),
(471,387,o),
(482,417,o),
(483,449,cs),
(484,480,o),
(474,492,o),
(443,493,cs),
(323,497,o),
(268,548,o),
(268,604,cs),
(268,681,o),
(348,733,o),
(459,733,cs),
(555,733,o),
(582,694,o),
(582,656,cs),
(582,621,o),
(572,603,o),
(572,574,cs),
(572,540,o),
(596,522,o),
(632,522,cs),
(690,522,o),
(719,579,o),
(719,656,cs),
(719,762,o),
(644,848,o),
(461,848,cs),
(278,848,o),
(118,753,o),
(118,612,cs),
(118,523,o),
(189,450,o),
(292,441,c),
(313,460,l),
(138,433,o),
(48,341,o),
(48,215,cs),
(48,94,o),
(156,-5,o),
(356,-5,cs),
(498,-5,o),
(605,36,o),
(684,121,cs),
(734,176,o),
(710,272,o),
(647,218,cs),
(570,152,o),
(486,119,o),
(381,119,cs)
);
}
);
};
layerId = "ECEFE970-1BBB-4E0A-A452-CEB55884B4A3";
shapes = (
{
closed = 1;
nodes = (
(493,-5,o),
(600,36,o),
(679,121,cs),
(729,176,o),
(703,274,o),
(642,218,cs),
(565,148,o),
(481,115,o),
(376,115,cs),
(258,115,o),
(192,164,o),
(192,240,cs),
(192,309,o),
(246,382,o),
(418,386,cs),
(466,387,o),
(477,417,o),
(478,449,cs),
(479,480,o),
(469,492,o),
(438,493,cs),
(316,497,o),
(261,548,o),
(261,604,cs),
(261,685,o),
(335,737,o),
(451,737,cs),
(550,737,o),
(577,698,o),
(577,656,cs),
(577,621,o),
(567,603,o),
(567,574,cs),
(567,540,o),
(591,522,o),
(627,522,cs),
(685,522,o),
(714,579,o),
(714,656,cs),
(714,762,o),
(639,848,o),
(456,848,cs),
(273,848,o),
(113,753,o),
(113,612,cs),
(113,523,o),
(184,450,o),
(287,441,c),
(308,460,l),
(133,433,o),
(43,341,o),
(43,215,cs),
(43,94,o),
(151,-5,o),
(351,-5,cs)
);
}
);
width = 720;
}
);
note = E;
},
{
color = 5;
glyphname = F.ss01;
kernLeft = H_ss01;
kernRight = F_ss01;
lastChange = "2016-10-04 15:26:37 +0000";
layers = (
{
background = {
shapes = (
{
closed = 1;
nodes = (
(150,334,o),
(253,338,o),
(298,338,cs),
(335,338,o),
(493,340,o),
(538,340,cs),
(589,340,o),
(615,369,o),
(615,413,cs),
(615,438,o),
(608,461,o),
(553,461,cs),
(510,461,o),
(167,454,o),
(133,454,cs),
(90,454,o),
(65,425,o),
(65,381,cs),
(65,337,o),
(95,334,o),
(116,334,cs)
);
},
{
closed = 1;
nodes = (
(250,716,o),
(326,716,o),
(427,716,cs),
(505,716,o),
(623,719,o),
(687,731,cs),
(731,739,o),
(749,764,o),
(749,796,cs),
(749,832,o),
(726,855,o),
(672,851,cs),
(568,843,o),
(496,840,o),
(407,840,cs),
(326,840,o),
(251,845,o),
(170,845,cs),
(117,845,o),
(94,831,o),
(94,793,cs),
(94,747,o),
(127,726,o),
(189,721,cs)
);
},
{
closed = 1;
nodes = (
(225,620,o),
(203,515,o),
(177,355,cs),
(156,228,o),
(133,105,o),
(133,55,cs),
(133,19,o),
(157,-5,o),
(206,-5,cs),
(248,-5,o),
(282,14,o),
(285,55,cs),
(290,128,o),
(309,267,o),
(324,357,cs),
(351,521,o),
(372,627,o),
(400,765,c),
(252,754,l)
);
}
);
};
layerId = "ECEFE970-1BBB-4E0A-A452-CEB55884B4A3";
shapes = (
{
closed = 1;
nodes = (
(243,-5,o),
(269,14,o),
(272,55,cs),
(277,128,o),
(298,267,o),
(313,357,cs),
(340,521,o),
(361,627,o),
(389,765,c),
(247,754,l),
(220,620,o),
(198,515,o),
(172,355,cs),
(151,228,o),
(130,105,o),
(130,55,cs),
(130,19,o),
(152,-5,o),
(201,-5,cs)
);
},
{
closed = 1;
nodes = (
(145,336,o),
(248,340,o),
(293,340,cs),
(330,340,o),
(488,342,o),
(533,342,cs),
(584,342,o),
(610,369,o),
(610,413,cs),
(610,438,o),
(603,461,o),
(548,461,cs),
(505,461,o),
(162,454,o),
(128,454,cs),
(85,454,o),
(60,425,o),
(60,381,cs),
(60,339,o),
(90,336,o),
(111,336,cs)
);
},
{
closed = 1;
nodes = (
(500,718,o),
(618,721,o),
(682,733,cs),
(726,741,o),
(744,764,o),
(744,796,cs),
(744,832,o),
(721,855,o),
(667,851,cs),
(563,843,o),
(491,840,o),
(402,840,cs),
(321,840,o),
(246,845,o),
(165,845,cs),
(112,845,o),
(89,831,o),
(89,793,cs),
(89,747,o),
(122,728,o),
(184,723,cs),
(245,718,o),
(321,718,o),
(422,718,cs)
);
}
);
width = 671;
}
);
note = F;
},
{
color = 5;
glyphname = G.ss01;
kernLeft = O;
kernRight = G_ss01;
lastChange = "2023-11-07 16:54:13 +0000";
layers = (
{
anchors = (
{
name = bottom;
pos = (410,0);
},
{
name = top;
pos = (495,840);
}
);
background = {
shapes = (
{
closed = 1;
nodes = (
(539,386,ls),
(496,386,o),
(469,363,o),
(469,326,cs),
(469,283,o),
(496,268,o),
(542,268,cs),
(627,268,l),
(623,222,o),
(617,163,o),
(605,75,cs),
(589,-42,o),
(574,-119,o),
(568,-175,cs),
(563,-221,o),
(582,-247,o),
(624,-247,cs),
(664,-247,o),
(687,-226,o),
(695,-185,cs),
(710,-112,o),
(722,-18,o),
(737,87,cs),
(748,167,o),
(761,260,o),
(764,320,cs),
(766,368,o),
(740,386,o),
(694,386,cs)
);
},
{
closed = 1;
nodes = (
(629,146,l),
(578,129,o),
(527,119,o),
(481,119,cs),
(308,119,o),
(220,212,o),
(220,366,cs),
(220,606,o),
(352,730,o),
(490,730,cs),
(570,730,o),
(597,694,o),
(597,646,cs),
(597,617,o),
(587,590,o),
(587,568,cs),
(587,537,o),
(611,519,o),
(647,519,cs),
(705,519,o),
(734,573,o),
(734,649,cs),
(734,762,o),
(663,848,o),
(500,848,cs),
(254,848,o),
(69,649,o),
(69,348,cs),
(69,134,o),
(217,-5,o),
(458,-5,cs),
(511,-5,o),
(565,7,o),
(618,27,c)
);
}
);
};
layerId = "ECEFE970-1BBB-4E0A-A452-CEB55884B4A3";
shapes = (
{
closed = 1;
nodes = (
(506,-5,o),
(560,9,o),
(613,31,c),
(624,146,l),
(573,127,o),
(522,115,o),
(466,115,cs),
(299,115,o),
(211,208,o),
(211,366,cs),
(211,610,o),
(343,734,o),
(485,734,cs),
(569,734,o),
(596,698,o),
(596,646,cs),
(596,617,o),
(586,590,o),
(586,568,cs),
(586,537,o),
(610,519,o),
(646,519,cs),
(700,519,o),
(729,573,o),
(729,649,cs),
(729,762,o),
(658,848,o),
(495,848,cs),
(249,848,o),
(64,649,o),
(64,348,cs),
(64,134,o),
(215,-5,o),
(440,-5,cs)
);
},
{
closed = 1;
nodes = (
(659,-247,o),
(682,-226,o),
(690,-185,cs),
(705,-112,o),
(717,-18,o),
(732,87,cs),
(743,167,o),
(756,260,o),
(759,320,cs),
(761,368,o),
(735,386,o),
(689,386,cs),
(534,386,ls),
(491,386,o),
(464,363,o),
(464,326,cs),
(464,283,o),
(491,268,o),
(537,268,cs),
(624,268,l),
(620,222,o),
(614,163,o),
(602,75,cs),
(586,-42,o),
(571,-119,o),
(565,-175,cs),
(560,-221,o),
(577,-247,o),
(619,-247,cs)
);
}
);
width = 810;
}
);
metricLeft = C.ss01;
note = G;
},
{
color = 5;
glyphname = H.ss01;
kernLeft = H_ss01;
kernRight = H_ss01;
lastChange = "2017-11-15 14:49:28 +0000";
layers = (
{
anchors = (
{
name = bottom;
pos = (390,0);
},
{
name = center;
pos = (447,420);
},
{
name = top;
pos = (505,840);
},
{
name = topleft;
pos = (195,840);
}
);
background = {
shapes = (
{
closed = 1;
nodes = (
(166,366,o),
(348,371,o),
(418,371,cs),
(476,371,o),
(679,370,o),
(763,370,cs),
(833,370,o),
(848,399,o),
(848,440,cs),
(848,468,o),
(832,491,o),
(787,491,cs),
(744,491,o),
(577,487,o),
(436,485,cs),
(298,484,o),
(166,484,o),
(140,484,cs),
(75,484,o),
(56,455,o),
(56,411,cs),
(56,374,o),
(80,363,o),
(113,364,cs)
);
},
{
closed = 1;
nodes = (
(232,848,o),
(204,829,o),
(200,778,cs),
(196,715,o),
(178,576,o),
(162,486,cs),
(155,446,o),
(147,403,o),
(139,355,cs),
(118,228,o),
(95,105,o),
(95,55,cs),
(95,19,o),
(115,-5,o),
(166,-5,cs),
(216,-5,o),
(243,14,o),
(247,65,cs),
(251,128,o),
(270,267,o),
(285,357,cs),
(307,488,ls),
(328,615,o),
(352,738,o),
(352,788,cs),
(352,824,o),
(333,848,o),
(284,848,cs)
);
},
{
closed = 1;
nodes = (
(683,848,o),
(655,829,o),
(651,778,cs),
(646,715,o),
(629,576,o),
(613,486,cs),
(606,446,o),
(598,403,o),
(590,355,cs),
(569,228,o),
(546,105,o),
(546,55,cs),
(546,19,o),
(566,-5,o),
(617,-5,cs),
(667,-5,o),
(694,14,o),
(698,65,cs),
(703,128,o),
(721,267,o),
(736,357,cs),
(758,488,ls),
(779,615,o),
(803,738,o),
(803,788,cs),
(803,824,o),
(784,848,o),
(735,848,cs)
);
}
);
};
layerId = "ECEFE970-1BBB-4E0A-A452-CEB55884B4A3";
shapes = (
{
closed = 1;
nodes = (
(662,-5,o),
(689,14,o),
(693,65,cs),
(698,128,o),
(716,267,o),
(731,357,cs),
(753,488,ls),
(774,615,o),
(796,738,o),
(796,788,cs),
(796,824,o),
(779,848,o),
(733,848,cs),
(684,848,o),
(656,829,o),
(652,778,cs),
(647,715,o),
(630,576,o),
(614,486,cs),
(607,446,o),
(599,403,o),
(591,355,cs),
(570,228,o),
(549,105,o),
(549,55,cs),
(549,19,o),
(567,-5,o),
(618,-5,cs)
);
},
{
closed = 1;
nodes = (
(205,-5,o),
(232,14,o),
(236,65,cs),
(241,128,o),
(259,267,o),
(274,357,cs),
(296,488,ls),
(317,615,o),
(339,738,o),
(339,788,cs),
(339,824,o),
(322,848,o),
(276,848,cs),
(227,848,o),
(199,829,o),
(195,778,cs),
(191,715,o),
(173,576,o),
(157,486,cs),
(150,446,o),
(142,403,o),
(134,355,cs),
(113,228,o),
(92,105,o),
(92,55,cs),
(92,19,o),
(110,-5,o),
(161,-5,cs)
);
},
{
closed = 1;
nodes = (
(161,366,o),
(343,370,o),
(413,370,cs),
(471,370,o),
(674,370,o),
(758,370,cs),
(828,370,o),
(843,399,o),
(843,440,cs),
(843,468,o),
(827,491,o),
(782,491,cs),
(739,491,o),
(572,488,o),
(431,486,cs),
(293,485,o),
(161,484,o),
(135,484,cs),
(70,484,o),
(51,455,o),
(51,411,cs),
(51,374,o),
(75,363,o),
(108,364,cs)
);
}
);
width = 846;
}
);
note = H;
},
{
color = 5;
glyphname = Hbar.ss01;
kernLeft = H_ss01;
kernRight = H_ss01;
lastChange = "2016-08-05 10:27:22 +0000";
layers = (
{
background = {
shapes = (
{
closed = 1;
nodes = (
(171,366,o),
(353,370,o),
(423,370,cs),
(481,370,o),
(684,370,o),
(768,370,cs),
(838,370,o),
(853,399,o),
(853,440,cs),
(853,468,o),
(837,491,o),
(792,491,cs),
(749,491,o),
(582,488,o),
(441,486,cs),
(303,485,o),
(171,484,o),
(145,484,cs),
(80,484,o),
(61,455,o),
(61,411,cs),
(61,374,o),
(85,363,o),
(118,364,cs)
);
},
{
closed = 1;
nodes = (
(237,848,o),
(209,829,o),
(205,778,cs),
(201,715,o),
(183,576,o),
(167,486,cs),
(160,446,o),
(152,403,o),
(144,355,cs),
(123,228,o),
(102,105,o),
(102,55,cs),
(102,19,o),
(120,-5,o),
(171,-5,cs),
(215,-5,o),
(242,14,o),
(246,65,cs),
(251,128,o),
(269,267,o),
(284,357,cs),
(306,488,ls),
(327,615,o),
(349,738,o),
(349,788,cs),
(349,824,o),
(332,848,o),
(286,848,cs)
);
},
{
closed = 1;
nodes = (
(694,848,o),
(666,829,o),
(662,778,cs),
(657,715,o),
(640,576,o),
(624,486,cs),
(617,446,o),
(609,403,o),
(601,355,cs),
(580,228,o),
(559,105,o),
(559,55,cs),
(559,19,o),
(577,-5,o),
(628,-5,cs),
(672,-5,o),
(699,14,o),
(703,65,cs),
(708,128,o),
(726,267,o),
(741,357,cs),
(763,488,ls),
(784,615,o),
(806,738,o),
(806,788,cs),
(806,824,o),
(789,848,o),
(743,848,cs)
);
}
);
};
layerId = "ECEFE970-1BBB-4E0A-A452-CEB55884B4A3";
shapes = (
{
closed = 1;
nodes = (
(667,-5,o),
(694,14,o),
(698,65,cs),
(703,128,o),
(721,267,o),
(736,357,cs),
(758,488,ls),
(779,615,o),
(801,738,o),
(801,788,cs),
(801,824,o),
(784,848,o),
(738,848,cs),
(689,848,o),
(661,829,o),
(657,778,cs),
(652,715,o),
(635,576,o),
(619,486,cs),
(612,446,o),
(604,403,o),
(596,355,cs),
(575,228,o),
(554,105,o),
(554,55,cs),
(554,19,o),
(572,-5,o),
(623,-5,cs)
);
},
{
closed = 1;
nodes = (
(210,-5,o),
(237,14,o),
(241,65,cs),
(246,128,o),
(264,267,o),
(279,357,cs),
(301,488,ls),
(322,615,o),
(344,738,o),
(344,788,cs),
(344,824,o),
(327,848,o),
(281,848,cs),
(232,848,o),
(204,829,o),
(200,778,cs),
(196,715,o),
(178,576,o),
(162,486,cs),
(155,446,o),
(147,403,o),
(139,355,cs),
(118,228,o),
(97,105,o),
(97,55,cs),
(97,19,o),
(115,-5,o),
(166,-5,cs)
);
},
{
closed = 1;
nodes = (
(166,366,o),
(348,370,o),
(418,370,cs),
(476,370,o),
(679,370,o),
(763,370,cs),
(833,370,o),
(848,399,o),
(848,440,cs),
(848,468,o),
(832,491,o),
(787,491,cs),
(744,491,o),
(577,488,o),
(436,486,cs),
(298,485,o),
(166,484,o),
(140,484,cs),
(75,484,o),
(56,455,o),
(56,411,cs),
(56,374,o),
(80,363,o),
(113,364,cs)
);
},
{
closed = 1;
nodes = (
(198,596,o),
(380,599,o),
(450,599,cs),
(508,599,o),
(711,599,o),
(795,599,cs),
(865,599,o),
(880,624,o),
(880,659,cs),
(880,683,o),
(864,703,o),
(819,703,cs),
(776,703,o),
(609,700,o),
(468,699,cs),
(330,698,o),
(198,697,o),
(172,697,cs),
(107,697,o),
(88,672,o),
(88,634,cs),
(88,602,o),
(112,593,o),
(145,594,cs)
);
}
);
width = 856;
}
);
metricLeft = "=H.ss01+5";
},
{
color = 5;
glyphname = I.ss01;
kernLeft = I_ss01;
kernRight = I_ss01;
lastChange = "2017-11-30 10:33:26 +0000";
layers = (
{
anchors = (
{
name = bottom;
pos = (145,0);
},
{
name = ogonek;
pos = (198,10);
},
{
name = top;
pos = (262,840);
},
{
name = topleft;
pos = (194,840);
}
);
background = {
shapes = (
{
closed = 1;
nodes = (
(215,848,o),
(187,829,o),
(183,778,cs),
(178,715,o),
(161,576,o),
(145,486,cs),
(138,446,o),
(130,403,o),
(122,355,cs),
(101,228,o),
(78,105,o),
(78,55,cs),
(78,19,o),
(98,-5,o),
(149,-5,cs),
(199,-5,o),
(226,14,o),
(230,65,cs),
(235,128,o),
(253,267,o),
(268,357,cs),
(290,488,ls),
(311,615,o),
(335,738,o),
(335,788,cs),
(335,824,o),
(316,848,o),
(267,848,cs)
);
}
);
};
layerId = "ECEFE970-1BBB-4E0A-A452-CEB55884B4A3";
shapes = (
{
closed = 1;
nodes = (
(191,-5,o),
(218,14,o),
(222,65,cs),
(227,128,o),
(245,267,o),
(260,357,cs),
(282,488,ls),
(303,615,o),
(325,738,o),
(325,788,cs),
(325,824,o),
(308,848,o),
(262,848,cs),
(213,848,o),
(185,829,o),
(181,778,cs),
(176,715,o),
(159,576,o),
(143,486,cs),
(136,446,o),
(128,403,o),
(120,355,cs),
(99,228,o),
(78,105,o),
(78,55,cs),
(78,19,o),
(96,-5,o),
(147,-5,cs)
);
}
);
width = 357;
}
);
note = I;
},
{
color = 5;
glyphname = J.ss01;
kernLeft = J_ss01;
kernRight = J;
lastChange = "2016-08-05 10:27:22 +0000";
layers = (
{
anchors = (
{
name = bottom;
pos = (310,0);
},
{
name = top;
pos = (447,840);
}
);
background = {
shapes = (
{
closed = 1;
nodes = (
(488,-8,o),
(586,107,o),
(630,391,cs),
(650,521,o),
(661,593,o),
(684,765,c),
(533,754,l),
(513,601,o),
(502,525,o),
(467,280,cs),
(445,127,o),
(382,98,o),
(322,96,cs),
(259,94,o),
(220,126,o),
(185,181,cs),
(164,215,o),
(149,224,o),
(132,224,cs),
(81,224,o),
(65,158,o),
(91,111,cs),
(128,43,o),
(218,-8,o),
(315,-8,cs)
);
},
{
closed = 1;
nodes = (
(147,438,o),
(253,493,o),
(221,548,cs),
(213,562,o),
(201,585,o),
(201,613,cs),
(201,696,o),
(289,724,o),
(422,724,cs),
(501,724,o),
(553,717,o),
(657,704,cs),
(711,697,o),
(729,723,o),
(729,767,cs),
(729,791,o),
(716,812,o),
(672,823,cs),
(608,839,o),
(530,847,o),
(462,847,cs),
(247,847,o),
(82,781,o),
(82,607,cs),
(82,566,o),
(93,528,o),
(110,500,cs)
);
}
);
};
layerId = "ECEFE970-1BBB-4E0A-A452-CEB55884B4A3";
shapes = (
{
closed = 1;
nodes = (
(483,-8,o),
(581,107,o),
(627,411,cs),
(644,521,o),
(656,593,o),
(676,765,c),
(532,754,l),
(514,601,o),
(504,525,o),
(476,330,cs),
(447,127,o),
(379,98,o),
(321,96,cs),
(256,94,o),
(215,126,o),
(180,181,cs),
(159,215,o),
(144,224,o),
(127,224,cs),
(76,224,o),
(60,158,o),
(86,111,cs),
(123,43,o),
(213,-8,o),
(310,-8,cs)
);
},
{
closed = 1;
nodes = (
(142,438,o),
(248,493,o),
(216,548,cs),
(208,562,o),
(196,585,o),
(196,613,cs),
(196,696,o),
(284,726,o),
(417,726,cs),
(496,726,o),
(548,719,o),
(652,706,cs),
(706,699,o),
(724,723,o),
(724,767,cs),
(724,791,o),
(711,812,o),
(667,823,cs),
(603,839,o),
(525,847,o),
(457,847,cs),
(242,847,o),
(77,781,o),
(77,607,cs),
(77,566,o),
(88,528,o),
(105,500,cs)
);
}
);
width = 716;
}
);
note = J;
},
{
color = 5;
glyphname = K.ss01;
kernLeft = H_ss01;
kernRight = K_ss01;
lastChange = "2017-11-30 11:42:57 +0000";
layers = (
{
anchors = (
{
name = bottom;
pos = (365,0);
},
{
name = top;
pos = (489,840);
}
);
background = {
shapes = (
{
closed = 1;
nodes = (
(1809,51,o),
(1790,135,o),
(1733,122,cs),
(1715,118,o),
(1698,114,o),
(1682,114,cs),
(1642,114,o),
(1610,147,o),
(1565,235,cs),
(1509,344,o),
(1482,390,o),
(1316,390,c),
(1277,336,l),
(1346,336,o),
(1363,314,o),
(1431,174,cs),
(1486,61,o),
(1541,-5,o),
(1647,-5,cs),
(1685,-5,o),
(1723,6,o),
(1746,18,cs)
);
},
{
closed = 1;
nodes = (
(1784,814,o),
(1761,842,o),
(1718,842,cs),
(1669,842,o),
(1640,821,o),
(1628,784,cs),
(1565,591,o),
(1471,441,o),
(1280,441,cs),
(1234,441,o),
(1181,441,o),
(1122,441,cs),
(1097,441,o),
(1075,420,o),
(1075,384,cs),
(1075,354,o),
(1093,335,o),
(1124,335,cs),
(1297,336,l),
(1351,367,l),
(1501,380,o),
(1687,493,o),
(1771,771,cs)
);
},
{
closed = 1;
nodes = (
(1226,848,o),
(1198,829,o),
(1194,778,cs),
(1189,715,o),
(1172,576,o),
(1156,486,cs),
(1149,446,o),
(1141,403,o),
(1133,355,cs),
(1112,228,o),
(1089,105,o),
(1089,55,cs),
(1089,19,o),
(1109,-5,o),
(1160,-5,cs),
(1210,-5,o),
(1237,14,o),
(1241,65,cs),
(1246,128,o),
(1264,267,o),
(1279,357,cs),
(1301,488,ls),
(1322,615,o),
(1346,738,o),
(1346,788,cs),
(1346,824,o),
(1327,848,o),
(1278,848,cs)
);
},
{
closed = 1;
nodes = (
(741,-5,o),
(801,49,o),
(856,116,c),
(820,209,l),
(764,142,o),
(730,114,o),
(686,114,cs),
(638,114,o),
(606,147,o),
(565,235,cs),
(513,346,o),
(482,390,o),
(316,390,c),
(277,336,l),
(349,336,o),
(370,315,o),
(434,174,cs),
(485,61,o),
(538,-5,o),
(643,-5,cs)
);
},
{
closed = 1;
nodes = (
(781,814,o),
(758,842,o),
(713,842,cs),
(669,842,o),
(640,821,o),
(628,784,cs),
(565,591,o),
(471,441,o),
(280,441,cs),
(234,441,o),
(201,441,o),
(142,441,cs),
(117,441,o),
(95,420,o),
(95,384,cs),
(95,354,o),
(113,335,o),
(144,335,cs),
(297,336,l),
(351,367,l),
(501,380,o),
(684,493,o),
(768,771,cs)
);
}
);
};
layerId = "ECEFE970-1BBB-4E0A-A452-CEB55884B4A3";
shapes = (
{
closed = 1;
nodes = (
(292,336,l),
(346,367,l),
(496,380,o),
(679,493,o),
(763,771,cs),
(776,814,o),
(751,842,o),
(708,842,cs),
(659,842,o),
(635,821,o),
(623,784,cs),
(560,591,o),
(466,441,o),
(275,441,cs),
(229,441,o),
(176,441,o),
(117,441,cs),
(92,441,o),
(70,420,o),
(70,384,cs),
(70,354,o),
(88,335,o),
(119,335,cs)
);
},
{
closed = 1;
nodes = (
(198,-5,o),
(225,14,o),
(229,65,cs),
(234,128,o),
(252,267,o),
(267,357,cs),
(289,488,ls),
(310,615,o),
(332,738,o),
(332,788,cs),
(332,824,o),
(315,848,o),
(269,848,cs),
(220,848,o),
(192,829,o),
(188,778,cs),
(183,715,o),
(166,576,o),
(150,486,cs),
(143,446,o),
(135,403,o),
(127,355,cs),
(106,228,o),
(85,105,o),
(85,55,cs),
(85,19,o),
(103,-5,o),
(154,-5,cs)
);
},
{
closed = 1;
nodes = (
(676,-5,o),
(718,6,o),
(741,18,cs),
(804,52,o),
(785,136,o),
(728,122,cs),
(710,118,o),
(693,114,o),
(677,114,cs),
(637,114,o),
(602,145,o),
(560,235,cs),
(508,346,o),
(477,390,o),
(311,390,c),
(272,336,l),
(344,336,o),
(365,316,o),
(429,174,cs),
(480,61,o),
(533,-5,o),
(638,-5,cs)
);
}
);
width = 779;
}
);
note = K;
},
{
glyphname = Khook.ss01;
lastChange = "2023-11-02 21:47:29 +0000";
layers = (
{
anchors = (
{
name = bottom;
pos = (508,0);
},
{
name = top;
pos = (638,840);
}
);
guides = (
{
angle = 270;
pos = (781,655);
}
);
layerId = "ECEFE970-1BBB-4E0A-A452-CEB55884B4A3";
shapes = (
{
closed = 1;
nodes = (
(198,-5,o),
(225,14,o),
(229,65,cs),
(234,128,o),
(252,267,o),
(267,357,cs),
(289,488,ls),
(310,615,o),
(332,738,o),
(332,788,cs),
(332,824,o),
(315,848,o),
(269,848,cs),
(220,848,o),
(192,829,o),
(188,778,cs),
(183,715,o),
(166,576,o),
(150,486,cs),
(143,446,o),
(135,403,o),
(127,355,cs),
(106,228,o),
(85,105,o),
(85,55,cs),
(85,19,o),
(103,-5,o),
(154,-5,cs)
);
},
{
closed = 1;
nodes = (
(706,-5,o),
(748,6,o),
(771,18,cs),
(834,52,o),
(815,136,o),
(758,122,cs),
(740,118,o),
(723,114,o),
(707,114,cs),
(667,114,o),
(612,145,o),
(570,235,cs),
(518,346,o),
(477,390,o),
(311,390,c),
(272,336,l),
(344,336,o),
(375,316,o),
(439,174,cs),
(490,61,o),
(563,-5,o),
(668,-5,cs)
);
},
{
closed = 1;
nodes = (
(435,843,o),
(524,441,o),
(256,441,cs),
(210,441,o),
(177,441,o),
(118,441,cs),
(93,441,o),
(71,420,o),
(71,384,cs),
(71,354,o),
(89,335,o),
(120,335,cs),
(273,336,l),
(327,367,l),
(590,367,o),
(574,735,o),
(645,735,cs),
(699,735,o),
(700,636,o),
(627,554,cs),
(587,509,o),
(690,456,o),
(735,509,cs),
(852,648,o),
(791,843,o),
(649,843,cs)
);
}
);
width = 800;
},
{
anchors = (
{
name = bottom;
pos = (514,0);
},
{
name = top;
pos = (644,840);
}
);
associatedMasterId = "ECEFE970-1BBB-4E0A-A452-CEB55884B4A3";
layerId = "B5FD9899-67CD-496B-A308-0849E15B8C75";
name = "Nov 2, 23, 17:24";
shapes = (
{
closed = 1;
nodes = (
(368,-8,o),
(449,67,o),
(478,261,cs),
(510,473,o),
(529,593,o),
(552,765,c),
(410,754,l),
(389,601,o),
(351,333,o),
(337,240,cs),
(321,137,o),
(281,93,o),
(233,91,cs),
(181,89,o),
(155,119,o),
(115,195,cs),
(104,216,o),
(93,224,o),
(76,224,cs),
(35,224,o),
(13,160,o),
(33,111,cs),
(60,43,o),
(136,-8,o),
(230,-8,cs)
);
},
{
closed = 1;
nodes = (
(932,-5,o),
(992,49,o),
(1047,116,cs),
(1064,137,o),
(1066,159,o),
(1066,178,cs),
(1066,205,o),
(1056,223,o),
(1038,223,cs),
(1030,223,o),
(1021,221,o),
(1011,209,cs),
(955,142,o),
(921,114,o),
(877,114,cs),
(829,114,o),
(797,147,o),
(756,235,cs),
(704,346,o),
(673,390,o),
(507,390,c),
(468,336,l),
(540,336,o),
(561,315,o),
(625,174,cs),
(676,61,o),
(729,-5,o),
(834,-5,cs)
);
},
{
closed = 1;
nodes = (
(131,441,o),
(231,493,o),
(205,548,cs),
(198,562,o),
(185,585,o),
(185,623,cs),
(185,696,o),
(243,737,o),
(358,737,cs),
(407,737,o),
(456,728,o),
(528,714,cs),
(569,706,o),
(592,723,o),
(592,767,cs),
(592,796,o),
(575,813,o),
(543,823,cs),
(479,843,o),
(432,847,o),
(378,847,cs),
(164,847,o),
(66,738,o),
(66,617,cs),
(66,566,o),
(80,531,o),
(96,503,cs)
);
},
{
closed = 1;
nodes = (
(737,563,o),
(643,441,o),
(471,441,cs),
(425,441,o),
(392,441,o),
(333,441,cs),
(308,441,o),
(286,420,o),
(286,384,cs),
(286,354,o),
(304,335,o),
(335,335,cs),
(488,336,l),
(542,367,l),
(679,379,o),
(843,474,o),
(934,701,c),
(950,723,o),
(989,696,o),
(989,623,cs),
(989,585,o),
(976,562,o),
(969,548,cs),
(943,493,o),
(1043,441,o),
(1078,503,cs),
(1094,531,o),
(1108,566,o),
(1108,617,cs),
(1108,738,o),
(996,964,o),
(799,728,c)
);
}
);
width = 1076;
},
{
anchors = (
{
name = bottom;
pos = (514,0);
},
{
name = top;
pos = (644,840);
}
);
associatedMasterId = "ECEFE970-1BBB-4E0A-A452-CEB55884B4A3";
layerId = "BDE61C5A-39F7-4748-8487-1E9C060D5267";
name = "Nov 2, 23, 17:29";
shapes = (
{
closed = 1;
nodes = (
(368,-8,o),
(449,67,o),
(478,261,cs),
(510,473,o),
(529,593,o),
(552,765,c),
(410,754,l),
(389,601,o),
(351,333,o),
(337,240,cs),
(321,137,o),
(281,93,o),
(233,91,cs),
(181,89,o),
(155,119,o),
(115,195,cs),
(104,216,o),
(93,224,o),
(76,224,cs),
(35,224,o),
(13,160,o),
(33,111,cs),
(60,43,o),
(136,-8,o),
(230,-8,cs)
);
},
{
closed = 1;
nodes = (
(932,-5,o),
(992,49,o),
(1047,116,cs),
(1064,137,o),
(1066,159,o),
(1066,178,cs),
(1066,205,o),
(1056,223,o),
(1038,223,cs),
(1030,223,o),
(1021,221,o),
(1011,209,cs),
(955,142,o),
(921,114,o),
(877,114,cs),
(829,114,o),
(797,147,o),
(756,235,cs),
(704,346,o),
(673,390,o),
(507,390,c),
(468,336,l),
(540,336,o),
(561,315,o),
(625,174,cs),
(676,61,o),
(729,-5,o),
(834,-5,cs)
);
},
{
closed = 1;
nodes = (
(131,441,o),
(231,493,o),
(205,548,cs),
(198,562,o),
(185,585,o),
(185,623,cs),
(185,696,o),
(243,737,o),
(358,737,cs),
(407,737,o),
(456,728,o),
(528,714,cs),
(569,706,o),
(592,723,o),
(592,767,cs),
(592,796,o),
(575,813,o),
(543,823,cs),
(479,843,o),
(432,847,o),
(378,847,cs),
(164,847,o),
(66,738,o),
(66,617,cs),
(66,566,o),
(80,531,o),
(96,503,cs)
);
},
{
closed = 1;
nodes = (
(716,564,o),
(635,441,o),
(471,441,cs),
(425,441,o),
(392,441,o),
(333,441,cs),
(308,441,o),
(286,420,o),
(286,384,cs),
(286,354,o),
(304,335,o),
(335,335,cs),
(488,336,l),
(542,367,l),
(805,367,o),
(866,735,o),
(937,735,cs),
(981,735,o),
(982,629,o),
(909,547,cs),
(869,502,o),
(972,449,o),
(1017,502,cs),
(1134,641,o),
(1073,843,o),
(941,843,cs),
(885,843,o),
(827,805,o),
(791,727,cs)
);
}
);
width = 1076;
},
{
anchors = (
{
name = bottom;
pos = (508,0);
},
{
name = top;
pos = (638,840);
}
);
associatedMasterId = "ECEFE970-1BBB-4E0A-A452-CEB55884B4A3";
layerId = "74FFBBEA-CD7B-449C-94A2-4FCB2620192F";
name = "Nov 2, 23, 17:40";
shapes = (
{
closed = 1;
nodes = (
(362,-8,o),
(443,67,o),
(472,261,cs),
(504,473,o),
(523,593,o),
(546,765,c),
(404,754,l),
(383,601,o),
(345,333,o),
(331,240,cs),
(315,137,o),
(275,93,o),
(227,91,cs),
(175,89,o),
(149,119,o),
(109,195,cs),
(98,216,o),
(87,224,o),
(70,224,cs),
(29,224,o),
(7,160,o),
(27,111,cs),
(54,43,o),
(130,-8,o),
(224,-8,cs)
);
},
{
closed = 1;
nodes = (
(926,-5,o),
(986,49,o),
(1041,116,cs),
(1058,137,o),
(1060,159,o),
(1060,178,cs),
(1060,205,o),
(1050,223,o),
(1032,223,cs),
(1024,223,o),
(1015,221,o),
(1005,209,cs),
(949,142,o),
(915,114,o),
(871,114,cs),
(823,114,o),
(791,147,o),
(750,235,cs),
(698,346,o),
(667,390,o),
(501,390,c),
(462,336,l),
(534,336,o),
(555,315,o),
(619,174,cs),
(670,61,o),
(723,-5,o),
(828,-5,cs)
);
},
{
closed = 1;
nodes = (
(125,441,o),
(225,493,o),
(199,548,cs),
(192,562,o),
(179,585,o),
(179,623,cs),
(179,696,o),
(237,737,o),
(352,737,cs),
(401,737,o),
(450,728,o),
(522,714,cs),
(563,706,o),
(586,723,o),
(586,767,cs),
(586,796,o),
(569,813,o),
(537,823,cs),
(473,843,o),
(426,847,o),
(372,847,cs),
(158,847,o),
(60,738,o),
(60,617,cs),
(60,566,o),
(74,531,o),
(90,503,cs)
);
},
{
closed = 1;
nodes = (
(733,441,o),
(465,441,cs),
(419,441,o),
(386,441,o),
(327,441,cs),
(302,441,o),
(280,420,o),
(280,384,cs),
(280,354,o),
(298,335,o),
(329,335,cs),
(482,336,l),
(536,367,l),
(799,367,o),
(813,735,o),
(884,735,cs),
(938,735,o),
(939,636,o),
(866,554,cs),
(826,509,o),
(929,456,o),
(974,509,cs),
(1091,648,o),
(1030,843,o),
(888,843,cs),
(684,843,o)
);
}
);
width = 1030;
}
);
},
{
color = 5;
glyphname = L.ss01;
kernLeft = I_ss01;
kernRight = L_ss01;
lastChange = "2023-11-07 16:54:13 +0000";
layers = (
{
anchors = (
{
name = bottom;
pos = (346,0);
},
{
name = center;
pos = (491,420);
},
{
name = top;
pos = (261,840);
},
{
name = topright;
pos = (493,840);
}
);
background = {
shapes = (
{
closed = 1;
nodes = (
(395,124,o),
(311,122,o),
(238,118,c),
(247,187,o),
(261,285,o),
(273,357,cs),
(294,488,ls),
(314,615,o),
(338,738,o),
(338,788,cs),
(338,824,o),
(319,848,o),
(269,848,cs),
(217,848,o),
(190,829,o),
(185,778,cs),
(174,657,o),
(147,511,o),
(124,355,cs),
(108,248,o),
(85,91,o),
(83,41,cs),
(82,9,o),
(105,-13,o),
(149,-11,cs),
(284,-5,o),
(370,-2,o),
(550,-2,cs),
(595,-2,o),
(618,28,o),
(618,68,cs),
(618,112,o),
(595,124,o),
(563,124,cs)
);
}
);
};
layerId = "ECEFE970-1BBB-4E0A-A452-CEB55884B4A3";
shapes = (
{
closed = 1;
nodes = (
(279,-5,o),
(365,-2,o),
(545,-2,cs),
(590,-2,o),
(613,28,o),
(613,68,cs),
(613,110,o),
(590,122,o),
(558,122,cs),
(390,122,o),
(306,120,o),
(226,116,c),
(235,185,o),
(250,285,o),
(261,357,cs),
(281,488,ls),
(300,615,o),
(324,738,o),
(324,788,cs),
(324,824,o),
(307,848,o),
(261,848,cs),
(212,848,o),
(185,829,o),
(180,778,cs),
(169,657,o),
(142,511,o),
(119,355,cs),
(103,248,o),
(80,91,o),
(78,41,cs),
(77,9,o),
(100,-13,o),
(144,-11,cs)
);
}
);
width = 627;
}
);
metricLeft = I.ss01;
note = L;
},
{
color = 5;
glyphname = Lslash.ss01;
kernLeft = I_ss01;
kernRight = L_ss01;
lastChange = "2023-11-07 16:54:13 +0000";
layers = (
{
background = {
shapes = (
{
closed = 1;
nodes = (
(284,-5,o),
(370,-2,o),
(550,-2,cs),
(595,-2,o),
(618,28,o),
(618,68,cs),
(618,110,o),
(595,122,o),
(563,122,cs),
(395,122,o),
(311,120,o),
(231,116,c),
(240,185,o),
(255,285,o),
(266,357,cs),
(286,488,ls),
(305,615,o),
(329,738,o),
(329,788,cs),
(329,824,o),
(312,848,o),
(266,848,cs),
(217,848,o),
(190,829,o),
(185,778,cs),
(174,657,o),
(147,511,o),
(124,355,cs),
(108,248,o),
(85,91,o),
(83,41,cs),
(82,9,o),
(105,-13,o),
(149,-11,cs)
);
},
{
closed = 1;
nodes = (
(238,422,o),
(287,453,o),
(415,529,cs),
(462,557,o),
(486,595,o),
(461,640,cs),
(451,658,o),
(429,661,o),
(403,647,cs),
(390,640,o),
(95,461,o),
(68,444,cs),
(26,418,o),
(73,327,o),
(127,358,cs)
);
}
);
};
layerId = "ECEFE970-1BBB-4E0A-A452-CEB55884B4A3";
shapes = (
{
closed = 1;
nodes = (
(279,-5,o),
(365,-2,o),
(545,-2,cs),
(590,-2,o),
(613,28,o),
(613,68,cs),
(613,110,o),
(590,122,o),
(558,122,cs),
(390,122,o),
(306,120,o),
(226,116,c),
(235,185,o),
(250,285,o),
(261,357,cs),
(281,488,ls),
(300,615,o),
(324,738,o),
(324,788,cs),
(324,824,o),
(307,848,o),
(261,848,cs),
(212,848,o),
(185,829,o),
(180,778,cs),
(169,657,o),
(142,511,o),
(119,355,cs),
(103,248,o),
(80,91,o),
(78,41,cs),
(77,9,o),
(100,-13,o),
(144,-11,cs)
);
},
{
closed = 1;
nodes = (
(210,402,o),
(325,470,o),
(453,546,cs),
(500,574,o),
(524,612,o),
(499,657,cs),
(489,675,o),
(467,678,o),
(441,664,cs),
(428,657,o),
(67,441,o),
(40,424,cs),
(-2,398,o),
(45,307,o),
(99,338,cs)
);
}
);
width = 627;
}
);
metricRight = L.ss01;
metricWidth = L.ss01;
},
{
color = 5;
glyphname = M.ss01;
kernLeft = I_ss01;
kernRight = I_ss01;
lastChange = "2023-11-07 16:54:13 +0000";
layers = (
{
anchors = (
{
name = bottom;
pos = (547,0);
},
{
name = top;
pos = (651,840);
}
);
background = {
shapes = (
{
closed = 1;
nodes = (
(1944,848,o),
(1852,782,o),
(1782,590,c),
(1789,628,o),
(1791,653,o),
(1791,672,cs),
(1791,785,o),
(1738,848,o),
(1651,848,cs),
(1548,848,o),
(1457,790,o),
(1379,590,c),
(1392,666,o),
(1406,744,o),
(1410,782,cs),
(1415,829,o),
(1404,852,o),
(1351,852,cs),
(1316,852,o),
(1280,839,o),
(1273,794,cs),
(1242,592,o),
(1184,210,o),
(1174,84,cs),
(1169,20,o),
(1199,-5,o),
(1247,-5,cs),
(1298,-5,o),
(1317,25,o),
(1325,86,cs),
(1392,594,o),
(1525,721,o),
(1609,721,cs),
(1645,721,o),
(1664,698,o),
(1664,647,cs),
(1664,587,o),
(1638,456,o),
(1615,335,cs),
(1603,272,o),
(1576,135,o),
(1576,81,cs),
(1576,20,o),
(1598,-5,o),
(1645,-5,cs),
(1699,-5,o),
(1719,25,o),
(1728,96,cs),
(1787,565,o),
(1926,721,o),
(2010,721,cs),
(2041,721,o),
(2063,698,o),
(2063,651,cs),
(2063,619,o),
(2053,549,o),
(2042,486,cs),
(2018,353,ls),
(1995,226,o),
(1974,105,o),
(1974,55,cs),
(1974,19,o),
(1994,-5,o),
(2045,-5,cs),
(2095,-5,o),
(2122,14,o),
(2126,65,cs),
(2131,128,o),
(2149,267,o),
(2165,357,cs),
(2187,480,ls),
(2200,551,o),
(2213,625,o),
(2213,677,cs),
(2213,783,o),
(2152,848,o),
(2063,848,cs)
);
},
{
closed = 1;
nodes = (
(1226,209,l),
(1170,142,o),
(1132,114,o),
(1087,114,cs),
(1041,114,o),
(1013,141,o),
(1013,198,cs),
(1013,229,o),
(1017,254,o),
(1023,284,cs),
(1084,570,ls),
(1092,609,o),
(1097,645,o),
(1097,677,cs),
(1097,783,o),
(1047,848,o),
(952,848,cs),
(842,848,o),
(751,782,o),
(681,590,c),
(688,628,o),
(690,653,o),
(690,672,cs),
(690,785,o),
(636,848,o),
(550,848,cs),
(449,848,o),
(348,790,o),
(266,556,c),
(276,614,o),
(286,666,o),
(286,711,cs),
(286,801,o),
(244,848,o),
(172,848,cs),
(93,848,o),
(11,797,o),
(-53,708,cs),
(-74,679,o),
(-81,659,o),
(-81,638,cs),
(-81,603,o),
(-45,573,o),
(-15,613,cs),
(48,697,o),
(98,724,o),
(128,724,cs),
(148,724,o),
(161,713,o),
(161,679,cs),
(161,653,o),
(159,615,o),
(152,559,cs),
(124,333,o),
(83,159,o),
(83,84,cs),
(83,20,o),
(106,-5,o),
(152,-5,cs),
(207,-5,o),
(217,25,o),
(225,86,cs),
(293,604,o),
(426,721,o),
(510,721,cs),
(549,721,o),
(568,698,o),
(568,647,cs),
(568,587,o),
(545,456,o),
(522,335,cs),
(510,272,o),
(483,135,o),
(483,81,cs),
(483,20,o),
(505,-5,o),
(548,-5,cs),
(599,-5,o),
(620,25,o),
(629,96,cs),
(690,575,o),
(816,721,o),
(901,721,cs),
(934,721,o),
(953,698,o),
(953,651,cs),
(953,607,o),
(943,572,o),
(935,535,cs),
(895,352,ls),
(878,273,o),
(871,221,o),
(871,181,cs),
(871,69,o),
(937,-5,o),
(1052,-5,cs),
(1126,-5,o),
(1192,31,o),
(1262,116,c)
);
}
);
};
layerId = "ECEFE970-1BBB-4E0A-A452-CEB55884B4A3";
shapes = (
{
closed = 1;
nodes = (
(194,-5,o),
(213,25,o),
(218,66,cs),
(289,604,o),
(422,721,o),
(505,721,cs),
(545,721,o),
(564,698,o),
(564,647,cs),
(564,587,o),
(541,456,o),
(518,335,cs),
(506,272,o),
(479,135,o),
(479,61,cs),
(479,10,o),
(501,-5,o),
(544,-5,cs),
(598,-5,o),
(615,15,o),
(623,76,cs),
(686,575,o),
(812,721,o),
(897,721,cs),
(928,721,o),
(949,699,o),
(949,652,cs),
(949,620,o),
(939,549,o),
(928,486,cs),
(904,353,ls),
(881,226,o),
(860,105,o),
(860,55,cs),
(860,19,o),
(880,-5,o),
(931,-5,cs),
(981,-5,o),
(1001,14,o),
(1005,65,cs),
(1010,128,o),
(1029,267,o),
(1045,357,cs),
(1067,480,ls),
(1080,551,o),
(1093,625,o),
(1093,677,cs),
(1093,783,o),
(1043,848,o),
(948,848,cs),
(838,848,o),
(747,782,o),
(677,590,c),
(684,628,o),
(686,653,o),
(686,672,cs),
(686,785,o),
(632,848,o),
(546,848,cs),
(445,848,o),
(353,790,o),
(275,590,c),
(292,666,o),
(306,744,o),
(310,782,cs),
(315,829,o),
(314,852,o),
(257,852,cs),
(216,852,o),
(186,839,o),
(179,794,cs),
(148,592,o),
(90,210,o),
(78,64,cs),
(74,10,o),
(105,-5,o),
(143,-5,cs)
);
}
);
width = 1125;
}
);
metricLeft = N.ss01;
metricRight = N.ss01;
note = M;
},
{
color = 5;
glyphname = N.ss01;
kernLeft = I_ss01;
kernRight = I_ss01;
lastChange = "2023-11-07 16:54:13 +0000";
layers = (
{
anchors = (
{
name = bottom;
pos = (365,0);
},
{
name = top;
pos = (479,840);
}
);
background = {
shapes = (
{
closed = 1;
nodes = (
(1437,848,o),
(1338,746,o),
(1271,590,c),
(1284,666,o),
(1298,744,o),
(1302,782,cs),
(1307,829,o),
(1296,852,o),
(1243,852,cs),
(1208,852,o),
(1172,840,o),
(1165,794,cs),
(1134,592,o),
(1079,210,o),
(1069,84,cs),
(1064,20,o),
(1091,-5,o),
(1139,-5,cs),
(1187,-5,o),
(1209,25,o),
(1216,86,cs),
(1265,513,o),
(1413,721,o),
(1539,721,cs),
(1575,721,o),
(1598,700,o),
(1598,649,cs),
(1598,619,o),
(1588,549,o),
(1577,486,cs),
(1553,353,ls),
(1530,226,o),
(1509,105,o),
(1509,55,cs),
(1509,19,o),
(1529,-5,o),
(1580,-5,cs),
(1630,-5,o),
(1657,14,o),
(1661,65,cs),
(1666,128,o),
(1684,267,o),
(1700,357,cs),
(1722,480,ls),
(1735,551,o),
(1748,625,o),
(1748,677,cs),
(1748,776,o),
(1696,848,o),
(1577,848,cs)
);
},
{
closed = 1;
nodes = (
(503,848,o),
(412,782,o),
(342,590,c),
(349,628,o),
(351,653,o),
(351,672,cs),
(351,785,o),
(297,848,o),
(211,848,cs),
(110,848,o),
(18,790,o),
(-60,590,c),
(-43,666,o),
(-29,744,o),
(-25,782,cs),
(-20,829,o),
(-21,852,o),
(-78,852,cs),
(-119,852,o),
(-149,839,o),
(-156,794,cs),
(-187,592,o),
(-245,210,o),
(-255,84,cs),
(-260,20,o),
(-230,-5,o),
(-192,-5,cs),
(-141,-5,o),
(-122,25,o),
(-114,86,cs),
(-46,604,o),
(87,721,o),
(170,721,cs),
(210,721,o),
(229,698,o),
(229,647,cs),
(229,587,o),
(206,456,o),
(183,335,cs),
(171,272,o),
(144,135,o),
(144,81,cs),
(144,20,o),
(166,-5,o),
(209,-5,cs),
(263,-5,o),
(281,25,o),
(290,96,cs),
(351,575,o),
(477,721,o),
(562,721,cs),
(593,721,o),
(614,699,o),
(614,652,cs),
(614,620,o),
(604,549,o),
(593,486,cs),
(569,353,ls),
(546,226,o),
(525,105,o),
(525,55,cs),
(525,19,o),
(545,-5,o),
(596,-5,cs),
(646,-5,o),
(666,14,o),
(670,65,cs),
(675,128,o),
(694,267,o),
(710,357,cs),
(732,480,ls),
(745,551,o),
(758,625,o),
(758,677,cs),
(758,783,o),
(708,848,o),
(613,848,cs)
);
}
);
};
layerId = "ECEFE970-1BBB-4E0A-A452-CEB55884B4A3";
shapes = (
{
closed = 1;
nodes = (
(192,-5,o),
(214,25,o),
(219,66,cs),
(270,513,o),
(418,721,o),
(547,721,cs),
(586,721,o),
(609,700,o),
(609,649,cs),
(609,619,o),
(599,549,o),
(588,486,cs),
(564,353,ls),
(541,226,o),
(520,105,o),
(520,55,cs),
(520,19,o),
(540,-5,o),
(585,-5,cs),
(635,-5,o),
(662,14,o),
(666,65,cs),
(671,128,o),
(689,267,o),
(705,357,cs),
(727,480,ls),
(740,551,o),
(753,625,o),
(753,677,cs),
(753,776,o),
(701,848,o),
(584,848,cs),
(442,848,o),
(343,746,o),
(276,590,c),
(292,666,o),
(306,744,o),
(310,782,cs),
(315,829,o),
(314,852,o),
(254,852,cs),
(221,852,o),
(185,840,o),
(178,794,cs),
(147,592,o),
(90,210,o),
(78,64,cs),
(74,10,o),
(102,-5,o),
(144,-5,cs)
);
}
);
width = 785;
}
);
metricLeft = I.ss01;
metricRight = I.ss01;
note = N;
},
{
color = 5;
glyphname = Eng.ss01;
kernLeft = I_ss01;
kernRight = I_ss01;
lastChange = "2023-11-07 16:54:13 +0000";
layers = (
{
background = {
shapes = (
{
closed = 1;
nodes = (
(1378,-347,o),
(1464,-169,o),
(1536,139,cs),
(1604,430,ls),
(1619,492,o),
(1644,598,o),
(1644,682,cs),
(1644,776,o),
(1597,848,o),
(1484,848,cs),
(1344,848,o),
(1242,741,o),
(1176,547,c),
(1185,609,o),
(1192,668,o),
(1192,715,cs),
(1192,801,o),
(1156,848,o),
(1082,848,cs),
(993,848,o),
(911,797,o),
(847,708,cs),
(826,679,o),
(819,661,o),
(819,638,cs),
(819,615,o),
(835,594,o),
(854,594,cs),
(864,594,o),
(875,599,o),
(885,613,cs),
(945,697,o),
(998,724,o),
(1028,724,cs),
(1048,724,o),
(1061,713,o),
(1061,679,cs),
(1061,653,o),
(1058,615,o),
(1051,559,cs),
(1023,333,o),
(983,159,o),
(983,84,cs),
(983,20,o),
(1006,-5,o),
(1052,-5,cs),
(1107,-5,o),
(1117,25,o),
(1125,86,cs),
(1187,556,o),
(1325,721,o),
(1436,721,cs),
(1481,721,o),
(1501,692,o),
(1501,652,cs),
(1501,597,o),
(1481,517,o),
(1459,415,cs),
(1396,120,ls),
(1328,-198,o),
(1284,-248,o),
(1216,-248,cs),
(1177,-248,o),
(1134,-232,o),
(1095,-176,cs),
(1081,-156,o),
(1063,-148,o),
(1046,-148,cs),
(1016,-148,o),
(988,-175,o),
(988,-208,cs),
(988,-220,o),
(992,-233,o),
(1001,-246,cs),
(1048,-314,o),
(1128,-347,o),
(1205,-347,cs)
);
},
{
closed = 1;
nodes = (
(197,-5,o),
(219,25,o),
(224,66,cs),
(279,513,o),
(423,721,o),
(552,721,c),
(589,848,l),
(447,848,o),
(348,746,o),
(281,590,c),
(297,666,o),
(311,744,o),
(315,782,cs),
(320,829,o),
(319,852,o),
(259,852,cs),
(226,852,o),
(190,840,o),
(183,794,cs),
(152,592,o),
(94,210,o),
(83,64,cs),
(79,10,o),
(107,-5,o),
(149,-5,cs)
);
}
);
};
layerId = "ECEFE970-1BBB-4E0A-A452-CEB55884B4A3";
shapes = (
{
closed = 1;
nodes = (
(478,-347,o),
(564,-169,o),
(636,139,cs),
(704,430,ls),
(719,492,o),
(744,598,o),
(744,682,cs),
(744,776,o),
(697,848,o),
(584,848,cs),
(442,848,o),
(343,746,o),
(276,590,c),
(292,666,o),
(306,744,o),
(310,782,cs),
(315,829,o),
(314,852,o),
(254,852,cs),
(221,852,o),
(185,840,o),
(178,794,cs),
(147,592,o),
(89,210,o),
(78,64,cs),
(74,10,o),
(102,-5,o),
(144,-5,cs),
(192,-5,o),
(214,25,o),
(219,66,cs),
(274,513,o),
(418,721,o),
(541,721,cs),
(581,721,o),
(601,692,o),
(601,652,cs),
(601,597,o),
(581,517,o),
(559,415,cs),
(496,120,ls),
(429,-198,o),
(384,-248,o),
(316,-248,cs),
(277,-248,o),
(235,-231,o),
(195,-176,cs),
(181,-156,o),
(163,-148,o),
(146,-148,cs),
(116,-148,o),
(88,-175,o),
(88,-208,cs),
(88,-220,o),
(92,-233,o),
(101,-246,cs),
(148,-314,o),
(228,-347,o),
(305,-347,cs)
);
}
);
width = 776;
}
);
metricLeft = I.ss01;
metricRight = N.ss01;
},
{
color = 5;
glyphname = OE.ss01;
kernLeft = O;
kernRight = AE_ss01;
lastChange = "2016-08-05 10:27:22 +0000";
layers = (
{
anchors = (
{
name = bottom;
pos = (654,0);
},
{
name = top;
pos = (722,840);
}
);
background = {
shapes = (
{
closed = 1;
nodes = (
(617,-5,o),
(787,217,o),
(787,505,cs),
(787,724,o),
(661,848,o),
(487,848,cs),
(255,848,o),
(69,649,o),
(69,338,cs),
(69,114,o),
(211,-5,o),
(385,-5,cs)
);
},
{
closed = 1;
nodes = (
(298,117,o),
(220,192,o),
(220,356,cs),
(220,570,o),
(322,726,o),
(476,726,cs),
(576,726,o),
(652,651,o),
(652,487,cs),
(652,273,o),
(548,117,o),
(396,117,cs)
);
},
{
closed = 1;
nodes = (
(1158,38,o),
(1170,61,o),
(1170,98,cs),
(1170,126,o),
(1157,155,o),
(1111,144,cs),
(1057,131,o),
(1028,121,o),
(966,121,cs),
(809,121,o),
(769,212,o),
(803,361,c),
(912,363,o),
(980,366,o),
(1058,368,cs),
(1101,369,o),
(1124,401,o),
(1124,441,cs),
(1124,471,o),
(1113,490,o),
(1071,490,cs),
(1000,490,o),
(916,486,o),
(827,483,c),
(843,556,o),
(865,648,o),
(885,710,c),
(926,713,o),
(1070,720,o),
(1122,720,cs),
(1174,720,o),
(1194,759,o),
(1194,795,cs),
(1194,832,o),
(1179,849,o),
(1130,849,cs),
(1054,849,o),
(934,842,o),
(880,840,cs),
(813,838,o),
(762,801,o),
(742,727,cs),
(661,431,l),
(652,264,l),
(646,121,o),
(728,-5,o),
(953,-5,cs),
(1010,-5,o),
(1064,4,o),
(1111,21,cs)
);
}
);
};
layerId = "ECEFE970-1BBB-4E0A-A452-CEB55884B4A3";
shapes = (
{
closed = 1;
nodes = (
(612,-5,o),
(782,217,o),
(782,505,cs),
(782,724,o),
(656,848,o),
(482,848,cs),
(250,848,o),
(64,649,o),
(64,338,cs),
(64,114,o),
(206,-5,o),
(380,-5,cs)
);
},
{
closed = 1;
nodes = (
(290,113,o),
(211,189,o),
(211,355,cs),
(211,576,o),
(317,730,o),
(472,730,cs),
(572,730,o),
(651,654,o),
(651,488,cs),
(651,271,o),
(549,113,o),
(390,113,cs)
);
},
{
closed = 1;
nodes = (
(1000,-5,o),
(1058,4,o),
(1109,22,cs),
(1153,38,o),
(1165,61,o),
(1165,97,cs),
(1165,126,o),
(1152,155,o),
(1099,139,cs),
(1054,125,o),
(1013,115,o),
(971,115,cs),
(802,115,o),
(761,212,o),
(795,361,c),
(904,363,o),
(958,366,o),
(1053,368,cs),
(1096,369,o),
(1119,401,o),
(1119,441,cs),
(1119,471,o),
(1108,490,o),
(1066,490,cs),
(988,490,o),
(908,486,o),
(819,483,c),
(835,556,o),
(857,650,o),
(877,710,c),
(918,715,o),
(1025,720,o),
(1117,720,cs),
(1169,720,o),
(1189,759,o),
(1189,795,cs),
(1189,832,o),
(1174,849,o),
(1125,849,cs),
(1029,849,o),
(959,844,o),
(875,840,cs),
(808,837,o),
(760,801,o),
(740,727,cs),
(659,431,l),
(650,264,l),
(644,121,o),
(726,-5,o),
(948,-5,cs)
);
}
);
width = 1166;
}
);
metricLeft = O;
metricRight = AE.ss01;
note = OE;
},
{
color = 5;
glyphname = P.ss01;
kernLeft = H_ss01;
kernRight = P_ss01;
lastChange = "2017-10-24 10:30:56 +0000";
layers = (
{
background = {
shapes = (
{
closed = 1;
nodes = (
(62,748,o),
(105,668,o),
(157,696,cs),
(202,720,o),
(266,737,o),
(325,737,cs),
(461,737,o),
(517,683,o),
(517,587,cs),
(517,459,o),
(437,372,o),
(232,372,cs),
(187,372,o),
(148,375,o),
(115,381,cs),
(77,388,o),
(52,369,o),
(52,332,cs),
(52,310,o),
(57,287,o),
(101,279,cs),
(134,273,o),
(184,268,o),
(240,268,cs),
(524,268,o),
(665,417,o),
(665,593,cs),
(665,735,o),
(565,846,o),
(353,846,cs),
(270,846,o),
(189,826,o),
(140,796,cs)
);
},
{
closed = 1;
nodes = (
(214,778,l),
(207,715,o),
(187,576,o),
(171,486,cs),
(164,446,o),
(156,403,o),
(148,355,cs),
(127,228,o),
(105,105,o),
(105,55,cs),
(105,19,o),
(125,-5,o),
(174,-5,cs),
(226,-5,o),
(241,14,o),
(247,65,cs),
(254,128,o),
(275,267,o),
(290,357,cs),
(312,488,ls),
(333,615,o),
(353,738,o),
(357,788,c)
);
}
);
};
layerId = "ECEFE970-1BBB-4E0A-A452-CEB55884B4A3";
shapes = (
{
closed = 1;
nodes = (
(527,268,o),
(668,417,o),
(668,593,cs),
(668,735,o),
(568,846,o),
(348,846,cs),
(265,846,o),
(184,826,o),
(135,796,cs),
(57,748,o),
(100,672,o),
(152,700,cs),
(197,724,o),
(261,741,o),
(320,741,cs),
(466,741,o),
(522,687,o),
(522,587,cs),
(522,455,o),
(442,368,o),
(227,368,cs),
(182,368,o),
(143,371,o),
(110,377,cs),
(72,384,o),
(47,369,o),
(47,332,cs),
(47,310,o),
(52,287,o),
(96,279,cs),
(129,273,o),
(179,268,o),
(235,268,cs)
);
},
{
closed = 1;
nodes = (
(221,-5,o),
(236,14,o),
(242,65,cs),
(249,128,o),
(270,267,o),
(285,357,cs),
(307,488,ls),
(328,615,o),
(348,738,o),
(352,788,c),
(209,778,l),
(202,715,o),
(182,576,o),
(166,486,cs),
(159,446,o),
(151,403,o),
(143,355,cs),
(122,228,o),
(100,105,o),
(100,55,cs),
(100,19,o),
(120,-5,o),
(169,-5,cs)
);
}
);
width = 662;
}
);
note = P;
},
{
color = 5;
glyphname = Thorn.ss01;
kernLeft = Thorn_ss01;
kernRight = P_ss01;
lastChange = "2016-08-05 10:27:22 +0000";
layers = (
{
background = {
shapes = (
{
closed = 1;
nodes = (
(53,615,o),
(96,535,o),
(148,563,cs),
(193,587,o),
(263,605,o),
(322,605,cs),
(460,605,o),
(504,534,o),
(504,466,cs),
(504,374,o),
(456,282,o),
(239,282,cs),
(184,282,o),
(145,285,o),
(112,291,cs),
(74,298,o),
(47,279,o),
(47,242,cs),
(47,220,o),
(54,197,o),
(98,189,cs),
(131,183,o),
(181,179,o),
(247,179,cs),
(521,179,o),
(652,317,o),
(652,483,cs),
(652,605,o),
(562,713,o),
(350,713,cs),
(267,713,o),
(180,693,o),
(131,663,cs)
);
},
{
closed = 1;
nodes = (
(239,848,o),
(211,829,o),
(207,778,cs),
(203,715,o),
(185,576,o),
(169,486,cs),
(162,446,o),
(154,403,o),
(146,355,cs),
(125,228,o),
(102,105,o),
(102,55,cs),
(102,19,o),
(122,-5,o),
(173,-5,cs),
(223,-5,o),
(250,14,o),
(254,65,cs),
(258,128,o),
(277,267,o),
(292,357,cs),
(314,488,ls),
(335,615,o),
(359,738,o),
(359,788,cs),
(359,824,o),
(340,848,o),
(291,848,cs)
);
}
);
};
layerId = "ECEFE970-1BBB-4E0A-A452-CEB55884B4A3";
shapes = (
{
closed = 1;
nodes = (
(516,179,o),
(647,317,o),
(647,483,cs),
(647,605,o),
(557,713,o),
(345,713,cs),
(262,713,o),
(175,693,o),
(126,663,cs),
(48,615,o),
(91,539,o),
(143,567,cs),
(188,591,o),
(258,609,o),
(317,609,cs),
(455,609,o),
(499,538,o),
(499,466,cs),
(499,370,o),
(451,278,o),
(234,278,cs),
(179,278,o),
(140,281,o),
(107,287,cs),
(69,294,o),
(42,279,o),
(42,242,cs),
(42,220,o),
(49,197,o),
(93,189,cs),
(126,183,o),
(176,179,o),
(242,179,cs)
);
},
{
closed = 1;
nodes = (
(212,-5,o),
(239,14,o),
(243,65,cs),
(248,128,o),
(266,267,o),
(281,357,cs),
(303,488,ls),
(324,615,o),
(346,738,o),
(346,788,cs),
(346,824,o),
(329,848,o),
(283,848,cs),
(234,848,o),
(206,829,o),
(202,778,cs),
(197,715,o),
(180,576,o),
(164,486,cs),
(157,446,o),
(149,403,o),
(141,355,cs),
(120,228,o),
(99,105,o),
(99,55,cs),
(99,19,o),
(117,-5,o),
(168,-5,cs)
);
}
);
width = 658;
}
);
note = Thorn;
},
{
color = 5;
glyphname = Q.ss01;
kernLeft = O;
kernRight = O;
lastChange = "2016-08-05 10:27:22 +0000";
layers = (
{
background = {
shapes = (
{
closed = 1;
nodes = (
(298,117,o),
(220,192,o),
(220,356,cs),
(220,570,o),
(324,726,o),
(476,726,cs),
(574,726,o),
(652,651,o),
(652,487,cs),
(652,273,o),
(548,117,o),
(396,117,cs)
);
},
{
closed = 1;
nodes = (
(564,-329,o),
(700,-266,o),
(650,-186,cs),
(565,-51,ls),
(548,-24,o),
(522,8,o),
(479,24,c),
(480,8,l),
(665,54,o),
(803,234,o),
(803,505,cs),
(803,729,o),
(661,848,o),
(487,848,cs),
(255,848,o),
(69,649,o),
(69,338,cs),
(69,148,o),
(171,30,o),
(315,1,cs),
(364,-9,o),
(386,-40,o),
(433,-116,cs),
(516,-251,ls)
);
}
);
};
layerId = "ECEFE970-1BBB-4E0A-A452-CEB55884B4A3";
shapes = (
{
closed = 1;
nodes = (
(555,-322,o),
(683,-252,o),
(642,-186,cs),
(557,-51,ls),
(540,-24,o),
(512,8,o),
(469,24,c),
(475,8,l),
(660,54,o),
(798,234,o),
(798,505,cs),
(798,729,o),
(656,848,o),
(482,848,cs),
(250,848,o),
(64,649,o),
(64,338,cs),
(64,148,o),
(166,30,o),
(310,1,cs),
(359,-9,o),
(381,-40,o),
(428,-116,cs),
(498,-229,ls)
);
},
{
closed = 1;
nodes = (
(290,113,o),
(211,189,o),
(211,355,cs),
(211,576,o),
(317,730,o),
(472,730,cs),
(572,730,o),
(651,654,o),
(651,488,cs),
(651,271,o),
(549,113,o),
(390,113,cs)
);
}
);
width = 816;
}
);
metricLeft = O;
metricWidth = O;
note = Q;
},
{
color = 5;
glyphname = R.ss01;
kernLeft = H_ss01;
kernRight = R_ss01;
lastChange = "2016-08-05 10:27:22 +0000";
layers = (
{
anchors = (
{
name = bottom;
pos = (359,0);
},
{
name = top;
pos = (419,840);
}
);
background = {
shapes = (
{
closed = 1;
nodes = (
(954,744,o),
(998,661,o),
(1057,696,cs),
(1101,722,o),
(1166,737,o),
(1225,737,cs),
(1350,737,o),
(1406,690,o),
(1406,597,cs),
(1406,495,o),
(1323,419,o),
(1133,419,cs),
(1107,419,o),
(1062,419,o),
(1033,419,cs),
(1008,419,o),
(988,400,o),
(988,367,cs),
(988,335,o),
(999,315,o),
(1051,315,c),
(1168,336,l),
(1427,340,o),
(1554,477,o),
(1554,622,cs),
(1554,747,o),
(1454,846,o),
(1255,846,cs),
(1170,846,o),
(1089,826,o),
(1040,796,cs)
);
},
{
closed = 1;
nodes = (
(1113,778,l),
(1106,715,o),
(1086,576,o),
(1070,486,cs),
(1063,446,o),
(1055,403,o),
(1047,355,cs),
(1026,228,o),
(1004,105,o),
(1004,55,cs),
(1004,19,o),
(1024,-5,o),
(1073,-5,cs),
(1125,-5,o),
(1145,14,o),
(1151,65,cs),
(1158,128,o),
(1179,267,o),
(1194,357,cs),
(1216,488,ls),
(1237,615,o),
(1257,738,o),
(1261,788,c)
);
},
{
closed = 1;
nodes = (
(1554,-5,o),
(1592,6,o),
(1615,18,cs),
(1678,51,o),
(1659,135,o),
(1602,122,cs),
(1584,118,o),
(1567,114,o),
(1551,114,cs),
(1511,114,o),
(1479,147,o),
(1436,230,cs),
(1388,323,o),
(1356,366,o),
(1194,366,c),
(1156,315,l),
(1225,315,o),
(1242,293,o),
(1300,174,cs),
(1355,61,o),
(1410,-5,o),
(1516,-5,cs)
);
},
{
closed = 1;
nodes = (
(778,51,o),
(759,135,o),
(702,122,cs),
(684,118,o),
(667,114,o),
(651,114,cs),
(611,114,o),
(576,145,o),
(534,235,cs),
(482,346,o),
(451,390,o),
(285,390,c),
(246,336,l),
(318,336,o),
(339,316,o),
(403,174,cs),
(454,61,o),
(507,-5,o),
(612,-5,cs),
(650,-5,o),
(692,6,o),
(715,18,cs)
);
}
);
};
layerId = "ECEFE970-1BBB-4E0A-A452-CEB55884B4A3";
shapes = (
{
closed = 1;
nodes = (
(263,336,l),
(532,340,o),
(658,477,o),
(658,622,cs),
(658,747,o),
(559,846,o),
(350,846,cs),
(265,846,o),
(184,826,o),
(135,796,cs),
(49,744,o),
(93,665,o),
(152,700,cs),
(196,726,o),
(261,741,o),
(320,741,cs),
(455,741,o),
(511,694,o),
(511,610,cs),
(511,495,o),
(425,419,o),
(248,419,cs),
(202,419,o),
(157,419,o),
(128,419,cs),
(103,419,o),
(83,400,o),
(83,367,cs),
(83,335,o),
(94,315,o),
(146,315,c)
);
},
{
closed = 1;
nodes = (
(212,-5,o),
(232,14,o),
(238,65,cs),
(245,128,o),
(266,267,o),
(281,357,cs),
(303,488,ls),
(324,615,o),
(344,738,o),
(348,788,c),
(208,778,l),
(201,715,o),
(181,576,o),
(165,486,cs),
(158,446,o),
(150,403,o),
(142,355,cs),
(121,228,o),
(99,105,o),
(99,55,cs),
(99,19,o),
(119,-5,o),
(168,-5,cs)
);
},
{
closed = 1;
nodes = (
(645,-5,o),
(687,6,o),
(710,18,cs),
(773,51,o),
(754,135,o),
(697,122,cs),
(679,118,o),
(662,114,o),
(646,114,cs),
(606,114,o),
(574,145,o),
(531,230,cs),
(484,323,o),
(451,366,o),
(289,366,c),
(251,315,l),
(320,315,o),
(341,293,o),
(398,174,cs),
(456,52,o),
(502,-5,o),
(607,-5,cs)
);
}
);
width = 744;
}
);
note = R;
},
{
color = 5;
glyphname = T.ss01;
kernLeft = T_ss01;
kernRight = T_ss01;
lastChange = "2017-10-24 10:31:40 +0000";
layers = (
{
anchors = (
{
name = bottom;
pos = (291,0);
},
{
name = center;
pos = (337,420);
},
{
name = top;
pos = (409,840);
}
);
background = {
shapes = (
{
closed = 1;
nodes = (
(327,620,o),
(306,515,o),
(280,355,cs),
(259,228,o),
(236,105,o),
(236,55,cs),
(236,19,o),
(260,-5,o),
(309,-5,cs),
(351,-5,o),
(387,14,o),
(390,55,cs),
(396,128,o),
(414,267,o),
(429,357,cs),
(457,521,o),
(477,627,o),
(505,765,c),
(353,754,l)
);
},
{
closed = 1;
nodes = (
(57,460,o),
(138,510,o),
(114,548,cs),
(105,562,o),
(94,585,o),
(94,613,cs),
(94,695,o),
(172,724,o),
(441,724,cs),
(600,724,o),
(662,719,o),
(766,711,cs),
(820,707,o),
(843,730,o),
(843,774,cs),
(843,798,o),
(825,822,o),
(781,830,cs),
(717,842,o),
(639,847,o),
(511,847,cs),
(140,847,o),
(-25,781,o),
(-25,611,cs),
(-25,556,o),
(-5,513,o),
(21,491,cs)
);
}
);
};
layerId = "ECEFE970-1BBB-4E0A-A452-CEB55884B4A3";
shapes = (
{
closed = 1;
nodes = (
(321,-5,o),
(357,14,o),
(360,55,cs),
(365,128,o),
(384,267,o),
(399,357,cs),
(426,521,o),
(447,627,o),
(475,765,c),
(331,754,l),
(305,620,o),
(285,515,o),
(259,355,cs),
(238,228,o),
(217,105,o),
(217,55,cs),
(217,19,o),
(239,-5,o),
(279,-5,cs)
);
},
{
closed = 1;
nodes = (
(248,723,o),
(329,726,o),
(409,726,cs),
(490,726,o),
(587,723,o),
(668,723,cs),
(721,723,o),
(744,734,o),
(744,772,cs),
(744,818,o),
(711,839,o),
(649,844,cs),
(588,849,o),
(490,847,o),
(389,847,cs),
(311,847,o),
(223,844,o),
(129,832,cs),
(85,826,o),
(67,799,o),
(67,767,cs),
(67,731,o),
(90,711,o),
(144,715,cs)
);
}
);
width = 631;
}
);
note = T;
},
{
color = 5;
glyphname = Tbar.ss01;
kernLeft = T_ss01;
kernRight = T_ss01;
lastChange = "2016-08-05 10:27:22 +0000";
layers = (
{
layerId = "ECEFE970-1BBB-4E0A-A452-CEB55884B4A3";
shapes = (
{
closed = 1;
nodes = (
(210,356,o),
(272,359,o),
(342,359,cs),
(400,359,o),
(413,359,o),
(497,359,cs),
(567,359,o),
(582,384,o),
(582,419,cs),
(582,443,o),
(566,463,o),
(521,463,cs),
(478,463,o),
(311,460,o),
(360,459,cs),
(418,458,o),
(210,457,o),
(184,457,cs),
(119,457,o),
(100,432,o),
(100,394,cs),
(100,362,o),
(124,353,o),
(157,354,cs)
);
},
{
ref = T.ss01;
}
);
width = 631;
}
);
metricLeft = T.ss01;
metricWidth = T.ss01;
},
{
color = 5;
glyphname = U.ss01;
kernLeft = I_ss01;
kernRight = I_ss01;
lastChange = "2023-11-07 16:54:13 +0000";
layers = (
{
anchors = (
{
name = bottom;
pos = (372,0);
},
{
name = ogonek;
pos = (629,10);
},
{
name = top;
pos = (467,840);
},
{
name = topright;
pos = (705,840);
}
);
background = {
shapes = (
{
closed = 1;
nodes = (
(393,-1,o),
(492,101,o),
(559,257,c),
(546,181,o),
(532,103,o),
(528,65,cs),
(523,18,o),
(534,-5,o),
(587,-5,cs),
(622,-5,o),
(658,7,o),
(665,53,cs),
(696,255,o),
(751,637,o),
(760,763,cs),
(766,827,o),
(739,852,o),
(691,852,cs),
(645,852,o),
(623,822,o),
(616,761,cs),
(567,334,o),
(423,126,o),
(291,126,cs),
(255,126,o),
(232,147,o),
(232,198,cs),
(232,228,o),
(242,298,o),
(253,361,cs),
(277,494,ls),
(300,621,o),
(321,742,o),
(321,792,cs),
(321,828,o),
(301,852,o),
(250,852,cs),
(200,852,o),
(173,833,o),
(169,782,cs),
(164,719,o),
(148,580,o),
(130,490,cs),
(106,367,ls),
(92,296,o),
(82,222,o),
(82,170,cs),
(82,71,o),
(134,-1,o),
(253,-1,cs)
);
}
);
};
layerId = "ECEFE970-1BBB-4E0A-A452-CEB55884B4A3";
shapes = (
{
closed = 1;
nodes = (
(610,-5,o),
(646,7,o),
(653,53,cs),
(684,255,o),
(742,637,o),
(753,783,cs),
(757,837,o),
(729,852,o),
(687,852,cs),
(639,852,o),
(617,822,o),
(612,781,cs),
(557,334,o),
(413,126,o),
(284,126,cs),
(245,126,o),
(222,147,o),
(222,198,cs),
(222,228,o),
(232,298,o),
(243,361,cs),
(267,494,ls),
(290,621,o),
(311,742,o),
(311,792,cs),
(311,828,o),
(291,852,o),
(246,852,cs),
(196,852,o),
(169,833,o),
(165,782,cs),
(160,719,o),
(142,580,o),
(126,490,cs),
(104,367,ls),
(91,296,o),
(78,222,o),
(78,170,cs),
(78,71,o),
(130,-1,o),
(247,-1,cs),
(389,-1,o),
(488,101,o),
(555,257,c),
(539,181,o),
(525,103,o),
(521,65,cs),
(516,18,o),
(517,-5,o),
(577,-5,cs)
);
}
);
width = 785;
}
);
metricLeft = I.ss01;
metricRight = I.ss01;
note = U;
},
{
color = 5;
glyphname = Uhorn.ss01;
kernLeft = I_ss01;
kernRight = Uhorn_ss01;
lastChange = "2023-11-07 16:54:13 +0000";
layers = (
{
anchors = (
{
name = bottom;
pos = (372,0);
},
{
name = ogonek;
pos = (629,10);
},
{
name = top;
pos = (467,840);
},
{
name = topright;
pos = (714,912);
}
);
background = {
shapes = (
{
closed = 1;
nodes = (
(615,-5,o),
(651,7,o),
(658,53,cs),
(689,255,o),
(747,637,o),
(758,783,cs),
(762,837,o),
(734,852,o),
(692,852,cs),
(644,852,o),
(622,822,o),
(617,781,cs),
(562,334,o),
(418,126,o),
(289,126,cs),
(250,126,o),
(227,147,o),
(227,198,cs),
(227,228,o),
(237,298,o),
(248,361,cs),
(272,494,ls),
(295,621,o),
(316,742,o),
(316,792,cs),
(316,828,o),
(296,852,o),
(251,852,cs),
(201,852,o),
(174,833,o),
(170,782,cs),
(165,719,o),
(147,580,o),
(131,490,cs),
(109,367,ls),
(96,296,o),
(83,222,o),
(83,170,cs),
(83,71,o),
(135,-1,o),
(252,-1,cs),
(394,-1,o),
(493,101,o),
(560,257,c),
(544,181,o),
(530,103,o),
(526,65,cs),
(521,18,o),
(522,-5,o),
(582,-5,cs)
);
},
{
closed = 1;
nodes = (
(818,726,o),
(897,804,o),
(910,919,cs),
(916,972,o),
(890,997,o),
(852,997,cs),
(824,997,o),
(804,984,o),
(798,951,cs),
(785,881,o),
(762,840,o),
(710,840,c),
(688,726,l)
);
}
);
};
layerId = "ECEFE970-1BBB-4E0A-A452-CEB55884B4A3";
shapes = (
{
closed = 1;
nodes = (
(610,-5,o),
(646,7,o),
(653,53,cs),
(681,235,o),
(731,564,o),
(748,733,c),
(839,755,o),
(894,825,o),
(905,919,cs),
(911,972,o),
(885,997,o),
(847,997,cs),
(819,997,o),
(799,984,o),
(793,951,cs),
(780,881,o),
(759,852,o),
(687,852,cs),
(639,852,o),
(617,822,o),
(612,781,cs),
(557,334,o),
(413,126,o),
(284,126,cs),
(245,126,o),
(222,147,o),
(222,198,cs),
(222,228,o),
(232,298,o),
(243,361,cs),
(267,494,ls),
(290,621,o),
(311,742,o),
(311,792,cs),
(311,828,o),
(291,852,o),
(246,852,cs),
(196,852,o),
(169,833,o),
(165,782,cs),
(160,719,o),
(142,580,o),
(126,490,cs),
(104,367,ls),
(91,296,o),
(78,222,o),
(78,170,cs),
(78,71,o),
(130,-1,o),
(247,-1,cs),
(389,-1,o),
(488,101,o),
(555,257,c),
(539,181,o),
(525,103,o),
(521,65,cs),
(516,18,o),
(517,-5,o),
(577,-5,cs)
);
}
);
width = 785;
}
);
metricLeft = U.ss01;
metricWidth = U.ss01;
},
{
color = 4;
glyphname = V.ss01;
kernLeft = V;
kernRight = V_ss01;
lastChange = "2017-11-30 11:34:44 +0000";
layers = (
{
background = {
shapes = (
{
closed = 1;
nodes = (
(1312,-5,o),
(1499,221,o),
(1615,763,cs),
(1627,819,o),
(1613,848,o),
(1555,848,cs),
(1502,848,o),
(1471,832,o),
(1460,767,cs),
(1389,345,o),
(1257,136,o),
(1174,136,cs),
(1095,136,o),
(1044,361,o),
(1104,760,cs),
(1115,833,o),
(1083,848,o),
(1035,848,cs),
(987,848,o),
(963,826,o),
(952,759,cs),
(884,342,o),
(949,-5,o),
(1142,-5,cs)
);
},
{
closed = 1;
nodes = (
(564,-5,o),
(798,420,o),
(798,692,cs),
(798,800,o),
(744,864,o),
(659,864,cs),
(557,864,o),
(473,786,o),
(473,622,cs),
(473,442,o),
(593,321,o),
(859,329,c),
(889,432,l),
(662,432,o),
(574,489,o),
(574,629,cs),
(574,709,o),
(601,750,o),
(635,750,cs),
(658,750,o),
(676,728,o),
(676,669,cs),
(676,501,o),
(501,131,o),
(371,131,cs),
(303,131,o),
(269,240,o),
(269,443,cs),
(269,537,o),
(278,643,o),
(299,769,cs),
(308,822,o),
(287,848,o),
(235,848,cs),
(180,848,o),
(165,826,o),
(153,759,cs),
(133,647,o),
(128,540,o),
(128,443,cs),
(128,182,o),
(189,-5,o),
(334,-5,cs)
);
}
);
};
layerId = "ECEFE970-1BBB-4E0A-A452-CEB55884B4A3";
shapes = (
{
closed = 1;
nodes = (
(507,-5,o),
(694,221,o),
(810,763,cs),
(822,819,o),
(808,848,o),
(753,848,cs),
(703,848,o),
(672,832,o),
(660,767,cs),
(585,345,o),
(452,131,o),
(367,131,cs),
(283,131,o),
(234,361,o),
(294,760,cs),
(305,833,o),
(273,848,o),
(230,848,cs),
(182,848,o),
(158,826,o),
(147,759,cs),
(83,341,o),
(144,-5,o),
(337,-5,cs)
);
}
);
width = 797;
}
);
metricLeft = V;
note = V;
},
{
color = 5;
glyphname = W.ss01;
kernLeft = V;
kernRight = V_ss01;
lastChange = "2023-11-07 16:54:13 +0000";
layers = (
{
anchors = (
{
name = bottom;
pos = (556,0);
},
{
name = top;
pos = (701,840);
}
);
background = {
shapes = (
{
closed = 1;
nodes = (
(1481,-5,o),
(1631,221,o),
(1717,763,c),
(1707,848,l),
(1658,848,o),
(1627,832,o),
(1616,767,cs),
(1545,345,o),
(1419,136,o),
(1353,136,cs),
(1284,136,o),
(1245,361,o),
(1305,760,cs),
(1316,833,o),
(1285,848,o),
(1237,848,cs),
(1188,848,o),
(1163,826,o),
(1153,759,cs),
(1091,341,o),
(1137,-5,o),
(1321,-5,cs)
);
},
{
closed = 1;
nodes = (
(1968,-5,o),
(2139,220,o),
(2255,763,cs),
(2267,819,o),
(2253,848,o),
(2195,848,cs),
(2142,848,o),
(2112,832,o),
(2100,767,cs),
(2023,347,o),
(1911,136,o),
(1836,136,cs),
(1759,136,o),
(1745,245,o),
(1745,443,cs),
(1745,537,o),
(1755,647,o),
(1772,763,cs),
(1783,836,o),
(1755,848,o),
(1707,848,c),
(1658,759,l),
(1589,411,o),
(1590,-5,o),
(1804,-5,cs)
);
},
{
closed = 1;
nodes = (
(952,-5,o),
(1139,221,o),
(1255,763,cs),
(1267,819,o),
(1253,848,o),
(1198,848,cs),
(1148,848,o),
(1117,832,o),
(1105,767,cs),
(1027,346,o),
(897,131,o),
(812,131,cs),
(728,131,o),
(679,361,o),
(739,760,cs),
(750,833,o),
(718,848,o),
(675,848,cs),
(627,848,o),
(603,826,o),
(592,759,cs),
(524,342,o),
(589,-5,o),
(782,-5,cs)
);
}
);
};
layerId = "ECEFE970-1BBB-4E0A-A452-CEB55884B4A3";
shapes = (
{
closed = 1;
nodes = (
(963,-5,o),
(1130,221,o),
(1250,763,cs),
(1262,819,o),
(1248,848,o),
(1190,848,cs),
(1142,848,o),
(1112,832,o),
(1100,767,cs),
(1021,347,o),
(906,131,o),
(831,131,cs),
(749,131,o),
(735,245,o),
(735,443,cs),
(735,537,o),
(745,647,o),
(762,763,cs),
(773,836,o),
(745,848,o),
(702,848,c),
(656,759,l),
(587,411,o),
(585,-5,o),
(799,-5,cs)
);
},
{
closed = 1;
nodes = (
(476,-5,o),
(626,221,o),
(712,763,c),
(702,848,l),
(656,848,o),
(625,832,o),
(614,767,cs),
(543,345,o),
(414,131,o),
(348,131,cs),
(273,131,o),
(234,361,o),
(294,760,cs),
(305,833,o),
(274,848,o),
(232,848,cs),
(183,848,o),
(158,826,o),
(148,759,cs),
(86,341,o),
(137,-5,o),
(316,-5,cs)
);
}
);
width = 1237;
}
);
metricLeft = V;
metricRight = V.ss01;
note = W;
},
{
color = 5;
glyphname = X.ss01;
kernLeft = X_ss01;
kernRight = X_ss01;
lastChange = "2017-11-15 14:27:51 +0000";
layers = (
{
background = {
shapes = (
{
closed = 1;
nodes = (
(708,142,o),
(663,114,o),
(621,114,cs),
(563,114,o),
(541,153,o),
(515,250,cs),
(406,660,ls),
(371,793,o),
(306,848,o),
(213,848,cs),
(117,848,o),
(56,796,o),
(10,742,cs),
(-58,663,o),
(9,611,o),
(44,649,cs),
(79,687,o),
(126,726,o),
(168,726,cs),
(213,726,o),
(256,693,o),
(286,578,cs),
(384,203,ls),
(415,84,o),
(467,-5,o),
(595,-5,cs),
(680,-5,o),
(742,49,o),
(799,116,c),
(767,209,l)
);
},
{
closed = 1;
nodes = (
(337,486,l),
(-9,92,ls),
(-68,25,o),
(-27,-5,o),
(27,-5,cs),
(58,-5,o),
(88,-1,o),
(117,35,cs),
(370,349,l),
(721,754,ls),
(770,811,o),
(748,847,o),
(690,847,cs),
(649,847,o),
(624,834,o),
(598,803,cs)
);
}
);
};
guides = (
{
angle = -75.3543;
pos = (408,578);
}
);
layerId = "ECEFE970-1BBB-4E0A-A452-CEB55884B4A3";
shapes = (
{
closed = 1;
nodes = (
(53,-5,o),
(83,-1,o),
(112,35,cs),
(365,349,l),
(716,754,ls),
(765,811,o),
(743,847,o),
(685,847,cs),
(644,847,o),
(619,834,o),
(593,803,cs),
(332,486,l),
(-14,92,ls),
(-73,25,o),
(-32,-5,o),
(22,-5,cs)
);
},
{
closed = 1;
nodes = (
(607,-5,o),
(643,25,o),
(611,92,cs),
(421,486,l),
(282,803,ls),
(269,834,o),
(247,847,o),
(206,847,cs),
(148,847,o),
(120,811,o),
(148,754,cs),
(345,349,l),
(478,44,ls),
(495,5,o),
(522,-5,o),
(553,-5,cs)
);
}
);
width = 677;
}
);
note = X;
},
{
color = 5;
glyphname = Y.ss01;
kernLeft = I_ss01;
kernRight = Y_ss01;
lastChange = "2017-10-29 14:41:25 +0000";
layers = (
{
anchors = (
{
name = bottom;
pos = (345,0);
},
{
name = top;
pos = (455,840);
},
{
name = topleft;
pos = (238,840);
}
);
background = {
shapes = (
{
closed = 1;
nodes = (
(909,199,o),
(868,99,o),
(925,50,cs),
(964,17,o),
(1043,-7,o),
(1150,-7,cs),
(1338,-7,o),
(1483,96,o),
(1510,375,cs),
(1528,558,o),
(1541,657,o),
(1549,769,cs),
(1553,826,o),
(1533,852,o),
(1480,852,cs),
(1439,852,o),
(1412,828,o),
(1408,767,cs),
(1389,477,o),
(1273,361,o),
(1160,361,cs),
(1098,361,o),
(1066,391,o),
(1066,446,cs),
(1066,537,o),
(1100,642,o),
(1108,788,cs),
(1110,824,o),
(1088,852,o),
(1039,852,cs),
(989,852,o),
(965,829,o),
(961,788,cs),
(946,630,o),
(916,536,o),
(916,426,cs),
(916,312,o),
(984,234,o),
(1130,234,cs),
(1237,234,o),
(1320,285,o),
(1378,406,c),
(1359,177,o),
(1286,108,o),
(1154,108,cs),
(1078,108,o),
(1014,127,o),
(969,158,cs)
);
},
{
closed = 1;
nodes = (
(386,-1,o),
(485,101,o),
(552,257,c),
(536,181,o),
(522,103,o),
(518,65,cs),
(513,18,o),
(514,-5,o),
(574,-5,cs),
(607,-5,o),
(643,7,o),
(650,53,cs),
(681,255,o),
(739,637,o),
(750,783,cs),
(754,837,o),
(726,852,o),
(684,852,cs),
(636,852,o),
(614,822,o),
(609,781,cs),
(554,334,o),
(410,126,o),
(281,126,cs),
(242,126,o),
(219,147,o),
(219,198,cs),
(219,228,o),
(229,298,o),
(240,361,cs),
(264,494,ls),
(287,621,o),
(308,742,o),
(308,792,cs),
(308,828,o),
(288,852,o),
(243,852,cs),
(193,852,o),
(166,833,o),
(162,782,cs),
(157,719,o),
(139,580,o),
(123,490,cs),
(101,367,ls),
(88,296,o),
(75,222,o),
(75,170,cs),
(75,71,o),
(127,-1,o),
(244,-1,cs)
);
}
);
};
layerId = "ECEFE970-1BBB-4E0A-A452-CEB55884B4A3";
shapes = (
{
closed = 1;
nodes = (
(533,-7,o),
(667,96,o),
(699,375,cs),
(720,558,o),
(732,657,o),
(740,769,cs),
(744,826,o),
(722,852,o),
(675,852,cs),
(634,852,o),
(607,828,o),
(603,767,cs),
(584,477,o),
(466,361,o),
(351,361,cs),
(291,361,o),
(258,391,o),
(258,444,cs),
(258,517,o),
(295,642,o),
(303,788,cs),
(305,824,o),
(283,852,o),
(234,852,cs),
(186,852,o),
(162,829,o),
(158,788,cs),
(143,630,o),
(114,526,o),
(114,426,cs),
(114,312,o),
(179,234,o),
(325,234,cs),
(432,234,o),
(515,285,o),
(573,406,c),
(554,177,o),
(481,105,o),
(349,105,cs),
(273,105,o),
(209,124,o),
(164,155,cs),
(104,196,o),
(62,98,o),
(120,50,cs),
(159,17,o),
(238,-7,o),
(345,-7,cs)
);
}
);
width = 776;
}
);
note = Y;
},
{
color = 0;
glyphname = Yhook.ss01;
lastChange = "2023-11-08 03:40:17 +0000";
layers = (
{
layerId = "ECEFE970-1BBB-4E0A-A452-CEB55884B4A3";
name = Regular;
shapes = (
{
closed = 1;
nodes = (
(205,506,o),
(205,426,cs),
(205,312,o),
(270,234,o),
(416,234,cs),
(523,234,o),
(606,285,o),
(664,406,c),
(645,177,o),
(572,105,o),
(440,105,cs),
(364,105,o),
(300,124,o),
(255,155,cs),
(195,196,o),
(153,98,o),
(211,50,cs),
(250,17,o),
(329,-7,o),
(436,-7,cs),
(624,-7,o),
(758,96,o),
(790,375,cs),
(811,558,o),
(823,657,o),
(831,769,cs),
(835,826,o),
(813,852,o),
(766,852,cs),
(725,852,o),
(698,828,o),
(694,767,cs),
(675,477,o),
(557,361,o),
(442,361,cs),
(382,361,o),
(349,391,o),
(349,444,cs),
(349,629,o),
(445,850,o),
(240,850,cs),
(125,850,o),
(-1,749,o),
(-1,613,cs),
(-1,552,o),
(18,487,o),
(79,487,cs),
(120,487,o),
(159,519,o),
(138,550,cs),
(95,613,o),
(126,733,o),
(194,733,cs),
(270,733,o)
);
}
);
width = 867;
},
{
associatedMasterId = "ECEFE970-1BBB-4E0A-A452-CEB55884B4A3";
layerId = "89C83C53-EC6C-43A9-8929-DBEE581DDA5A";
name = "Nov 2, 23, 18:22";
shapes = (
{
closed = 1;
nodes = (
(533,-7,o),
(667,96,o),
(699,375,cs),
(720,558,o),
(732,657,o),
(740,769,cs),
(744,826,o),
(722,852,o),
(675,852,cs),
(634,852,o),
(607,828,o),
(603,767,cs),
(584,477,o),
(466,361,o),
(351,361,cs),
(291,361,o),
(258,391,o),
(258,444,cs),
(258,517,o),
(295,642,o),
(303,788,cs),
(305,824,o),
(283,852,o),
(234,852,cs),
(186,852,o),
(162,829,o),
(158,788,cs),
(143,630,o),
(114,526,o),
(114,426,cs),
(114,312,o),
(179,234,o),
(325,234,cs),
(432,234,o),
(515,285,o),
(573,406,c),
(554,177,o),
(481,105,o),
(349,105,cs),
(273,105,o),
(209,124,o),
(164,155,cs),
(104,196,o),
(62,98,o),
(120,50,cs),
(159,17,o),
(238,-7,o),
(345,-7,cs)
);
},
{
closed = 0;
nodes = (
(404,847,ls),
(89,847,o),
(-96,781,o),
(-96,611,cs),
(-96,556,o),
(-76,513,o),
(-62,501,cs),
(-14,460,o),
(71,504,o),
(43,548,cs),
(34,562,o),
(23,585,o),
(23,613,cs),
(23,698,o),
(111,728,o),
(404,728,cs)
);
}
);
width = 855;
},
{
associatedMasterId = "ECEFE970-1BBB-4E0A-A452-CEB55884B4A3";
layerId = "D8DCFD1D-9260-463F-8200-35EAD3576F87";
name = "Nov 2, 23, 18:25";
shapes = (
{
closed = 1;
nodes = (
(141,565,o),
(114,495,o),
(114,426,cs),
(114,312,o),
(179,234,o),
(325,234,cs),
(432,234,o),
(515,285,o),
(573,406,c),
(554,177,o),
(481,105,o),
(349,105,cs),
(273,105,o),
(209,124,o),
(164,155,cs),
(104,196,o),
(62,98,o),
(120,50,cs),
(159,17,o),
(238,-7,o),
(345,-7,cs),
(533,-7,o),
(667,96,o),
(699,375,cs),
(720,558,o),
(732,657,o),
(740,769,cs),
(744,826,o),
(722,852,o),
(675,852,cs),
(634,852,o),
(607,828,o),
(603,767,cs),
(584,477,o),
(466,361,o),
(351,361,cs),
(291,361,o),
(258,391,o),
(258,444,cs),
(258,629,o),
(354,850,o),
(149,850,cs),
(34,850,o),
(-92,749,o),
(-92,613,cs),
(-92,558,o),
(-72,515,o),
(-58,503,cs),
(-10,462,o),
(75,506,o),
(47,550,cs),
(38,564,o),
(27,587,o),
(27,615,cs),
(27,678,o),
(70,733,o),
(103,733,cs),
(124,733,o),
(141,711,o),
(141,656,cs)
);
}
);
width = 855;
},
{
associatedMasterId = "ECEFE970-1BBB-4E0A-A452-CEB55884B4A3";
layerId = "8B6F6282-4423-43B5-B4A3-241109655784";
name = "Nov 2, 23, 18:25";
shapes = (
{
closed = 1;
nodes = (
(205,506,o),
(205,426,cs),
(205,312,o),
(270,234,o),
(416,234,cs),
(523,234,o),
(606,285,o),
(664,406,c),
(645,177,o),
(572,105,o),
(440,105,cs),
(364,105,o),
(300,124,o),
(255,155,cs),
(195,196,o),
(153,98,o),
(211,50,cs),
(250,17,o),
(329,-7,o),
(436,-7,cs),
(624,-7,o),
(758,96,o),
(790,375,cs),
(811,558,o),
(823,657,o),
(831,769,cs),
(835,826,o),
(813,852,o),
(766,852,cs),
(725,852,o),
(698,828,o),
(694,767,cs),
(675,477,o),
(557,361,o),
(442,361,cs),
(382,361,o),
(349,391,o),
(349,444,cs),
(349,629,o),
(445,850,o),
(240,850,cs),
(125,850,o),
(-1,749,o),
(-1,613,cs),
(-1,558,o),
(19,515,o),
(33,503,cs),
(81,462,o),
(166,506,o),
(138,550,cs),
(129,564,o),
(118,587,o),
(118,615,cs),
(118,678,o),
(161,733,o),
(194,733,cs),
(270,733,o)
);
}
);
width = 867;
}
);
metricLeft = N;
},
{
color = 5;
glyphname = Z.ss01;
kernLeft = Z_ss01;
kernRight = Z_ss01;
lastChange = "2016-08-05 10:27:22 +0000";
layers = (
{
anchors = (
{
name = bottom;
pos = (324,0);
},
{
name = top;
pos = (422,840);
}
);
background = {
shapes = (
{
closed = 1;
nodes = (
(489,124,o),
(417,125,o),
(350,125,cs),
(310,125,o),
(265,124,o),
(229,122,c),
(389,324,o),
(567,560,o),
(666,705,cs),
(690,740,o),
(694,760,o),
(694,781,cs),
(694,817,o),
(669,841,o),
(607,846,cs),
(546,851,o),
(470,851,o),
(389,851,cs),
(311,851,o),
(213,849,o),
(159,841,cs),
(105,834,o),
(87,803,o),
(87,771,cs),
(87,735,o),
(110,718,o),
(164,720,cs),
(302,726,o),
(357,727,o),
(518,727,c),
(392,547,o),
(251,364,o),
(41,110,cs),
(19,84,o),
(13,62,o),
(13,45,cs),
(13,9,o),
(31,-14,o),
(95,-9,cs),
(189,-2,o),
(251,0,o),
(360,0,cs),
(417,0,o),
(488,-4,o),
(569,-4,cs),
(622,-4,o),
(645,20,o),
(645,58,cs),
(645,104,o),
(622,114,o),
(570,118,cs)
);
}
);
};
layerId = "ECEFE970-1BBB-4E0A-A452-CEB55884B4A3";
shapes = (
{
closed = 1;
nodes = (
(184,-2,o),
(246,0,o),
(355,0,cs),
(412,0,o),
(483,-4,o),
(564,-4,cs),
(617,-4,o),
(640,20,o),
(640,58,cs),
(640,104,o),
(617,112,o),
(565,116,cs),
(484,122,o),
(412,123,o),
(345,123,cs),
(305,123,o),
(254,122,o),
(218,120,c),
(378,322,o),
(562,560,o),
(661,705,cs),
(685,740,o),
(689,760,o),
(689,781,cs),
(689,817,o),
(664,841,o),
(602,846,cs),
(541,851,o),
(465,851,o),
(384,851,cs),
(306,851,o),
(208,849,o),
(154,841,cs),
(100,834,o),
(82,803,o),
(82,771,cs),
(82,737,o),
(105,720,o),
(159,722,cs),
(297,727,o),
(355,729,o),
(516,729,c),
(390,549,o),
(246,364,o),
(36,110,cs),
(14,84,o),
(8,62,o),
(8,45,cs),
(8,9,o),
(26,-14,o),
(90,-9,cs)
);
}
);
width = 665;
}
);
note = Z;
},
{
color = 3;
glyphname = I_J.loclNLD;
kernLeft = I_ss01;
kernRight = Y_ss01;
lastChange = "2016-08-05 10:27:22 +0000";
layers = (
{
anchors = (
{
name = top;
pos = (441,840);
}
);
background = {
shapes = (
{
closed = 1;
nodes = (
(909,199,o),
(868,99,o),
(925,50,cs),
(964,17,o),
(1043,-7,o),
(1150,-7,cs),
(1338,-7,o),
(1483,96,o),
(1510,375,cs),
(1528,558,o),
(1541,657,o),
(1549,769,cs),
(1553,826,o),
(1533,852,o),
(1480,852,cs),
(1439,852,o),
(1412,828,o),
(1408,767,cs),
(1389,477,o),
(1273,361,o),
(1160,361,cs),
(1098,361,o),
(1066,391,o),
(1066,446,cs),
(1066,537,o),
(1100,642,o),
(1108,788,cs),
(1110,824,o),
(1088,852,o),
(1039,852,cs),
(989,852,o),
(965,829,o),
(961,788,cs),
(946,630,o),
(916,536,o),
(916,426,cs),
(916,312,o),
(984,234,o),
(1130,234,cs),
(1237,234,o),
(1320,285,o),
(1378,406,c),
(1359,177,o),
(1286,108,o),
(1154,108,cs),
(1078,108,o),
(1014,127,o),
(969,158,cs)
);
},
{
closed = 1;
nodes = (
(386,-1,o),
(485,101,o),
(552,257,c),
(536,181,o),
(522,103,o),
(518,65,cs),
(513,18,o),
(514,-5,o),
(574,-5,cs),
(607,-5,o),
(643,7,o),
(650,53,cs),
(681,255,o),
(739,637,o),
(750,783,cs),
(754,837,o),
(726,852,o),
(684,852,cs),
(636,852,o),
(614,822,o),
(609,781,cs),
(554,334,o),
(410,126,o),
(281,126,cs),
(242,126,o),
(219,147,o),
(219,198,cs),
(219,228,o),
(229,298,o),
(240,361,cs),
(264,494,ls),
(287,621,o),
(308,742,o),
(308,792,cs),
(308,828,o),
(288,852,o),
(243,852,cs),
(193,852,o),
(166,833,o),
(162,782,cs),
(157,719,o),
(139,580,o),
(123,490,cs),
(101,367,ls),
(88,296,o),
(75,222,o),
(75,170,cs),
(75,71,o),
(127,-1,o),
(244,-1,cs)
);
}
);
};
layerId = "ECEFE970-1BBB-4E0A-A452-CEB55884B4A3";
shapes = (
{
closed = 1;
nodes = (
(533,-7,o),
(667,96,o),
(699,375,cs),
(720,558,o),
(732,657,o),
(740,769,cs),
(744,826,o),
(722,852,o),
(675,852,cs),
(634,852,o),
(607,828,o),
(603,767,cs),
(584,477,o),
(466,361,o),
(351,361,cs),
(291,361,o),
(258,391,o),
(258,444,cs),
(258,517,o),
(295,642,o),
(303,788,cs),
(305,824,o),
(283,852,o),
(234,852,cs),
(186,852,o),
(162,829,o),
(158,788,cs),
(143,630,o),
(114,526,o),
(114,426,cs),
(114,312,o),
(179,234,o),
(325,234,cs),
(432,234,o),
(515,285,o),
(573,406,c),
(554,177,o),
(481,105,o),
(349,105,cs),
(273,105,o),
(209,124,o),
(164,155,cs),
(104,196,o),
(62,98,o),
(120,50,cs),
(159,17,o),
(238,-7,o),
(345,-7,cs)
);
}
);
width = 776;
}
);
metricLeft = Y.ss01;
metricRight = Y.ss01;
},
